<?xml version="1.0" encoding="UTF-8"?>
<svg width="91px" height="91px" viewBox="0 0 91 91" version="1.1" xmlns="http://www.w3.org/2000/svg" xmlns:xlink="http://www.w3.org/1999/xlink">
    <!-- Generator: Sketch 51.3 (57544) - http://www.bohemiancoding.com/sketch -->
    <title>Group 10</title>
    <desc>Created with Sketch.</desc>
    <defs>
        <polygon id="path-1" points="34 16.9999557 34 0 0 0 0 16.9999557 0 33.9999115 34 33.9999115"></polygon>
    </defs>
    <g id="Welcome" stroke="none" stroke-width="1" fill="none" fill-rule="evenodd">
        <g id="payroll" transform="translate(-1074.000000, -2253.000000)">
            <g id="Group-10" transform="translate(1075.000000, 2254.000000)">
                <circle id="Oval-Copy-5" stroke="#D1C2A1" stroke-width="2" cx="44.5" cy="44.5" r="44.5"></circle>
                <g id="Page-1" transform="translate(29.000000, 27.000000)">
                    <g id="Group-3">
                        <mask id="mask-2" fill="white">
                            <use xlink:href="#path-1"></use>
                        </mask>
                        <g id="Clip-2"></g>
                        <path d="M32.7346486,30.2130432 C32.7282162,31.6098 31.5915135,32.7382324 30.1947568,32.7345568 L3.80616216,32.7345568 C2.40848649,32.7382324 1.27178378,31.6098 1.26535135,30.2130432 L1.26535135,15.3513676 L14.8432973,24.6894216 C16.1444865,25.5752595 17.8536757,25.5752595 19.1539459,24.6894216 L32.7346486,15.3513676 L32.7346486,30.2130432 Z M3.87416216,15.6040703 L1.70183784,14.1089892 L3.87416216,12.3612054 L3.87416216,15.6040703 Z M28.8604865,1.26525946 L28.8604865,16.4742865 L18.4335135,23.6464486 C17.5688108,24.2373135 16.4311892,24.2373135 15.5664865,23.6464486 L5.13951351,16.4742865 L5.13951351,1.26525946 L28.8604865,1.26525946 Z M32.2981622,14.1089892 L30.1258378,15.6040703 L30.1258378,12.3612054 L32.2981622,14.1089892 Z M33.7574054,13.6568811 L33.7555676,13.6559622 L30.1258378,10.7374757 L30.1258378,0.624772973 C30.1258378,0.45752973 30.0587568,0.297637838 29.9392973,0.180016216 C29.8216757,0.0623945946 29.6599459,-0.00192972973 29.4936216,-9.18918919e-05 L4.50637838,-9.18918919e-05 C4.34005405,-0.00192972973 4.17924324,0.0623945946 4.05978378,0.180016216 C3.94124324,0.297637838 3.87416216,0.45752973 3.87416216,0.624772973 L3.87416216,10.7374757 L0.247189189,13.6559622 L0.242594595,13.6568811 C0.0918918919,13.7754216 0.00183783784,13.9564486 0,14.1485027 L0,30.2130432 C0.00827027027,32.3081784 1.71010811,34.0026649 3.80616216,33.9999081 L30.1947568,33.9999081 C32.2898919,34.0026649 33.9917297,32.3081784 34,30.2130432 L34,14.1485027 C33.9981622,13.9564486 33.9081081,13.7754216 33.7574054,13.6568811 Z" id="Fill-1" fill="#555555" mask="url(#mask-2)"></path>
                    </g>
                    <g id="Group-14" transform="translate(9.189189, 4.594595)" fill="#555555">
                        <path d="M2.32777195,6.22908369 C3.38248951,6.22908369 4.25097034,5.7141017 4.25097034,4.33084698 L4.25097034,0.687653143 C4.25097034,0.430629462 3.99735148,0.276415254 3.72314363,0.276415254 L2.31373401,0.276415254 C2.04794892,0.276415254 1.93564537,0.573628092 1.93564537,0.831586404 C1.93564537,1.12879924 2.07228136,1.40171166 2.31373401,1.40171166 L3.04277126,1.40171166 L3.04277126,4.33178162 C3.04277126,4.87854108 2.76294823,5.13556476 2.29595261,5.13556476 C1.65114303,5.13556476 1.60434988,4.64488319 1.58001744,4.33178162 C1.55568501,4.03363415 1.27866957,3.95325583 0.956732708,3.95325583 C0.52155643,3.95325583 0.313794852,4.06634625 0.313794852,4.54861614 C0.313794852,5.61783465 1.1766605,6.22908369 2.32777195,6.22908369" id="Fill-4"></path>
                        <path d="M7.85432351,1.81967889 L8.44204545,3.97493928 L7.26660157,3.97493928 L7.85432351,1.81967889 Z M6.32418757,6.18066978 C6.5253981,6.18066978 6.68636653,6.11524557 6.73503141,5.94701189 L7.00830339,4.94041369 L8.70783054,4.94041369 L8.98203838,5.94701189 C9.0297674,6.11524557 9.19073583,6.18066978 9.39194636,6.18066978 C9.73821566,6.18066978 10.1967885,5.96290062 10.1967885,5.66568779 C10.1949168,5.63577958 10.1902375,5.60587137 10.1808788,5.57689779 L8.67507533,0.671016701 C8.58710421,0.389692599 8.22492525,0.253236391 7.85432351,0.253236391 C7.48372178,0.253236391 7.12154281,0.389692599 7.03263583,0.671016701 L5.53431922,5.57689779 C5.52683232,5.60587137 5.52121714,5.63577958 5.51840955,5.66568779 C5.51840955,5.96383526 5.97791827,6.18066978 6.32418757,6.18066978 Z" id="Fill-6"></path>
                        <path d="M12.1018312,6.18066978 C12.4153453,6.18066978 12.7063986,6.05169062 12.7063986,5.79466694 L12.7063986,3.06086961 L14.2458932,5.84326778 C14.3993747,6.12459189 14.6717109,6.18066978 14.9618284,6.18066978 C15.2762783,6.18066978 15.6047662,6.05169062 15.6047662,5.79466694 L15.6047662,0.680363016 C15.6047662,0.414927652 15.2744066,0.301837232 14.9608925,0.301837232 C14.6464426,0.301837232 14.3170188,0.414927652 14.3170188,0.680363016 L14.3170188,3.41416035 L13.018041,0.928975013 C12.7120138,0.34202639 12.560404,0.301837232 12.1093181,0.301837232 C11.7948681,0.301837232 11.4981996,0.422404704 11.4981996,0.687840069 L11.4981996,5.79466694 C11.4981996,6.05169062 11.7883171,6.18066978 12.1018312,6.18066978" id="Fill-8"></path>
                        <path d="M5.78063836,9.43776732 C5.78063836,8.8835308 6.05016689,8.63398418 6.50125284,8.63398418 C6.95233879,8.63398418 7.23029009,8.8835308 7.23029009,9.43776732 L7.23029009,11.5687273 C7.23029009,12.1238984 6.95233879,12.3734451 6.50125284,12.3734451 C6.05110275,12.3734451 5.78063836,12.1238984 5.78063836,11.5687273 L5.78063836,9.43776732 Z M6.50125284,13.466964 C7.61305804,13.466964 8.51897339,12.951982 8.51897339,11.5687273 L8.51897339,9.43776732 C8.51897339,8.05451261 7.61305804,7.53953061 6.50125284,7.53953061 C5.3903835,7.53953061 4.49195506,8.05451261 4.49195506,9.43776732 L4.49195506,11.5687273 C4.49195506,12.951982 5.3903835,13.466964 6.50125284,13.466964 Z" id="Fill-10"></path>
                        <path d="M9.58164579,8.64912521 C9.58164579,8.89867184 9.74261422,9.14821846 9.97657996,9.14821846 C10.0420904,9.1463492 10.105729,9.12391804 10.1572015,9.08372889 L10.3705783,8.93886099 L10.3705783,13.0325472 C10.3705783,13.2895709 10.7009379,13.4185501 11.0153878,13.4185501 C11.3289019,13.4185501 11.6592616,13.2895709 11.6592616,13.0325472 L11.6592616,7.91730869 C11.6592616,7.67617375 11.3654006,7.52289417 11.1071024,7.52289417 C11.0266182,7.52009028 10.946134,7.53971754 10.8759443,7.5799067 L9.81467566,8.22293321 C9.66493759,8.31265784 9.57603061,8.47528374 9.58164579,8.64912521" id="Fill-12"></path>
                    </g>
                </g>
            </g>
        </g>
    </g>
</svg>