<?xml version="1.0" encoding="UTF-8"?>
<svg width="91px" height="91px" viewBox="0 0 91 91" version="1.1" xmlns="http://www.w3.org/2000/svg" xmlns:xlink="http://www.w3.org/1999/xlink">
    <!-- Generator: Sketch 51.3 (57544) - http://www.bohemiancoding.com/sketch -->
    <title>Group 18</title>
    <desc>Created with Sketch.</desc>
    <defs></defs>
    <g id="Welcome" stroke="none" stroke-width="1" fill="none" fill-rule="evenodd">
        <g id="payroll" transform="translate(-563.000000, -2254.000000)">
            <g id="Group-18" transform="translate(563.000000, 2254.000000)">
                <path d="M45.5,2 C21.5,2 2,21.5 2,45.5 C2,69.5 21.5,89 45.5,89 C69.5,89 89,69.5 89,45.5 C89,21.5 69.5,2 45.5,2 M45.5,91 C20.4,91 0,70.6 0,45.5 C0,20.4 20.4,0 45.5,0 C70.6,0 91,20.4 91,45.5 C91,70.6 70.6,91 45.5,91" id="Fill-1" fill="#D1C2A1"></path>
                <g id="Group-17" transform="translate(30.000000, 34.500000)" fill="#555555">
                    <path d="M4.1001,4.3999 C5.0001,4.3999 5.5001,3.9999 5.5001,3.1999 C5.5001,2.3999 5.0001,1.9999 4.1001,1.9999 L2.3001,1.9999 L2.3001,4.3999 L4.1001,4.3999 Z M0.7001,8.7999 C0.5001,8.5999 0.4001,8.3999 0.4001,8.0999 L0.4001,1.3999 C0.4001,1.0999 0.5001,0.8999 0.6001,0.7999 C0.8001,0.5999 1.0001,0.5999 1.2001,0.5999 L4.2001,0.5999 C5.1001,0.5999 5.8001,0.7999 6.3001,1.2999 C6.8001,1.7999 7.1001,2.3999 7.1001,3.1999 C7.1001,3.9999 6.8001,4.6999 6.3001,5.0999 C5.8001,5.5999 5.1001,5.7999 4.2001,5.7999 L2.2001,5.7999 L2.2001,8.0999 C2.2001,8.3999 2.1001,8.5999 1.9001,8.7999 C1.7001,8.9999 1.5001,9.0999 1.2001,9.0999 C0.9001,9.0999 0.9001,8.9999 0.7001,8.7999 Z" id="Fill-3"></path>
                    <path d="M9.7998,5.7002 L12.5998,5.7002 L11.1998,2.6002 L9.7998,5.7002 Z M15.4998,8.2002 C15.4998,8.4002 15.3998,8.6002 15.1998,8.8002 C14.9998,9.0002 14.7998,9.0002 14.5998,9.0002 C14.3998,9.0002 14.2998,9.0002 14.1998,8.9002 C14.0998,8.8002 13.9998,8.7002 13.8998,8.5002 L13.2998,7.1002 L9.1998,7.1002 L8.5998,8.5002 C8.4998,8.7002 8.3998,8.8002 8.2998,8.9002 C8.1998,9.0002 7.9998,9.0002 7.8998,9.0002 C7.6998,9.0002 7.4998,8.9002 7.2998,8.8002 C7.0998,8.6002 6.9998,8.5002 6.9998,8.2002 C6.9998,8.1002 6.9998,8.0002 7.0998,7.8002 L10.2998,1.0002 C10.3998,0.8002 10.4998,0.7002 10.6998,0.6002 C10.7998,0.5002 10.9998,0.5002 11.1998,0.5002 C11.3998,0.5002 11.5998,0.6002 11.7998,0.7002 C11.9998,0.8002 12.0998,0.9002 12.1998,1.1002 L15.3998,7.9002 C15.4998,8.0002 15.4998,8.1002 15.4998,8.2002 Z" id="Fill-5"></path>
                    <path d="M21.5,0.5 C21.7,0.5 21.9,0.6 22.1,0.8 C22.3,1 22.4,1.2 22.4,1.4 C22.4,1.6 22.3,1.8 22.2,2 L19.6,5.1 L19.6,8.2 C19.6,8.5 19.5,8.7 19.3,8.9 C19.1,9.1 18.9,9.1 18.6,9.1 C18.3,9.1 18.1,9 17.9,8.9 C17.7,8.8 17.6,8.5 17.6,8.2 L17.6,5.1 L15,1.9 C14.8,1.7 14.8,1.6 14.8,1.3 C14.8,1.1 14.9,0.9 15.1,0.7 C15.3,0.5 15.5,0.4 15.7,0.4 C15.9,0.4 16.1,0.5 16.3,0.7 L18.6,3.5 L20.9,0.7 C21,0.6 21.2,0.5 21.5,0.5" id="Fill-7"></path>
                    <path d="M23.4004,8.7998 C23.2004,8.5998 23.2004,8.3998 23.2004,8.1998 L23.2004,1.4998 C23.2004,1.1998 23.2994,0.9998 23.4004,0.8998 C23.5994,0.6998 23.7994,0.6998 24.0004,0.6998 L28.2004,0.6998 C28.7994,0.6998 29.0994,0.8998 29.0994,1.3998 C29.0994,1.8998 28.7994,2.0998 28.2004,2.0998 L25.0004,2.0998 L25.0004,4.0998 L28.0994,4.0998 C28.7004,4.0998 29.0004,4.2998 29.0004,4.7998 C29.0004,5.2998 28.7004,5.4998 28.0994,5.4998 L25.0004,5.4998 L25.0004,7.4998 L28.2994,7.4998 C28.9004,7.4998 29.2004,7.6998 29.2004,8.1998 C29.2004,8.6998 28.9004,8.8998 28.2994,8.8998 L24.0994,8.8998 C23.7994,8.9998 23.5994,8.8998 23.4004,8.7998" id="Fill-9"></path>
                    <path d="M6.2998,23.7998 C6.0998,23.5998 5.9998,23.4008 5.9998,23.0998 L5.9998,16.9998 L4.0998,16.9998 C3.4998,16.9998 3.1998,16.6998 3.1998,16.1998 C3.1998,15.6998 3.4998,15.4008 4.0998,15.4008 L9.8998,15.4008 C10.4998,15.4008 10.7998,15.6998 10.7998,16.1998 C10.7998,16.6998 10.4998,16.9998 9.8998,16.9998 L7.9998,16.9998 L7.9998,23.0998 C7.9998,23.4008 7.8998,23.5998 7.6998,23.7998 C7.4998,23.9998 7.2998,24.0998 6.9998,24.0998 C6.6998,24.0998 6.3998,23.9998 6.2998,23.7998" id="Fill-11"></path>
                    <path d="M12.7002,20.7002 L15.5002,20.7002 L14.1002,17.5992 L12.7002,20.7002 Z M18.4002,23.2002 C18.4002,23.4002 18.3002,23.5992 18.0992,23.8002 C17.9002,24.0002 17.7002,24.0002 17.5002,24.0002 C17.3002,24.0002 17.2002,24.0002 17.0992,23.9002 C17.0002,23.8002 16.9002,23.7002 16.8002,23.5002 L16.2002,22.0992 L12.1002,22.0992 L11.4002,23.5002 C11.3002,23.7002 11.2002,23.8002 11.1002,23.9002 C11.0002,24.0002 10.8002,24.0002 10.7002,24.0002 C10.5002,24.0002 10.3002,23.9002 10.1002,23.8002 C9.9002,23.5992 9.8002,23.5002 9.8002,23.2002 C9.8002,23.0992 9.8002,23.0002 9.9002,22.8002 L13.1002,16.0002 C13.2002,15.8002 13.3002,15.7002 13.5002,15.5992 C13.7002,15.5002 13.9002,15.4002 14.1002,15.4002 C14.3002,15.4002 14.5002,15.5002 14.7002,15.5992 C14.9002,15.7002 15.0002,15.8002 15.1002,16.0002 L18.3002,22.8002 C18.4002,23.0002 18.4002,23.0992 18.4002,23.2002 Z" id="Fill-13"></path>
                    <path d="M26.2002,23.2002 C26.2002,23.4002 26.0992,23.5992 25.9002,23.8002 C25.7002,24.0002 25.5002,24.0992 25.3002,24.0992 C25.0992,24.0992 24.9002,24.0002 24.7002,23.8002 L22.4002,21.0002 L20.0992,23.8002 C19.9002,24.0002 19.7002,24.0992 19.5002,24.0992 C19.3002,24.0992 19.0992,24.0002 18.9002,23.8002 C18.7002,23.5992 18.5992,23.4002 18.5992,23.2002 C18.5992,23.0002 18.7002,22.8002 18.8002,22.5992 L21.3002,19.7002 L19.0002,16.9002 C18.8002,16.7002 18.8002,16.5002 18.8002,16.3002 C18.8002,16.0992 18.9002,15.9002 19.0992,15.7002 C19.3002,15.5002 19.5002,15.4002 19.7002,15.4002 C19.9002,15.4002 20.0992,15.5002 20.3002,15.7002 L22.5002,18.4002 L24.7002,15.7002 C24.9002,15.5002 25.0992,15.4002 25.3002,15.4002 C25.5002,15.4002 25.7002,15.5002 25.9002,15.7002 C26.0992,15.9002 26.2002,16.0992 26.2002,16.3002 C26.2002,16.5002 26.0992,16.7002 26.0002,16.9002 L23.5992,19.7002 L26.0002,22.5992 C26.2002,22.8002 26.2002,23.0002 26.2002,23.2002" id="Fill-15"></path>
                </g>
            </g>
        </g>
    </g>
</svg>