<?xml version="1.0" encoding="UTF-8"?>
<svg width="91px" height="91px" viewBox="0 0 91 91" version="1.1" xmlns="http://www.w3.org/2000/svg" xmlns:xlink="http://www.w3.org/1999/xlink">
    <!-- Generator: Sketch 51.3 (57544) - http://www.bohemiancoding.com/sketch -->
    <title>Group 2</title>
    <desc>Created with Sketch.</desc>
    <defs></defs>
    <g id="Welcome" stroke="none" stroke-width="1" fill="none" fill-rule="evenodd">
        <g id="payroll" transform="translate(-100.000000, -2122.000000)">
            <g id="Group-2" transform="translate(101.000000, 2123.000000)">
                <circle id="Oval" stroke="#D1C2A1" stroke-width="2" cx="44.5" cy="44.5" r="44.5"></circle>
                <g id="Page-1" transform="translate(31.000000, 25.000000)" fill="#555555">
                    <path d="M0,0 L0,38 L29,38 L29,9.23716667 L19.9981384,0 L0,0 Z M1.23551939,1.26825 L19.1266422,1.26825 L19.1266422,10.134125 L27.7644806,10.134125 L27.7644806,36.73175 L1.23551939,36.73175 L1.23551939,1.26825 Z M20.3598479,2.16125 L26.8906707,8.865875 L20.3598479,8.865875 L20.3598479,2.16125 Z" id="Fill-1"></path>
                    <g id="Group-22" transform="translate(4.000000, 10.000000)">
                        <path d="M1.79876161,1.243775 L7.10328793,1.243775 C7.42897214,1.243775 7.69349845,0.964275 7.69349845,0.6218875 C7.69349845,0.278723611 7.42897214,0 7.10328793,0 L1.79876161,0 C1.47381424,0 1.20855108,0.278723611 1.20855108,0.6218875 C1.20855108,0.964275 1.47381424,1.243775 1.79876161,1.243775" id="Fill-2"></path>
                        <path d="M1.79876161,6.21111111 L4.74613003,6.21111111 C5.0710774,6.21111111 5.33634056,5.9323875 5.33634056,5.58922361 C5.33634056,5.24683611 5.0710774,4.96733611 4.74613003,4.96733611 L1.79876161,4.96733611 C1.47381424,4.96733611 1.20855108,5.24683611 1.20855108,5.58922361 C1.20855108,5.9323875 1.47381424,6.21111111 1.79876161,6.21111111" id="Fill-4"></path>
                        <path d="M10.6408669,6.21111111 L14.7686563,6.21111111 C15.0936037,6.21111111 15.3551827,5.9323875 15.3551827,5.58922361 C15.3551827,5.24683611 15.0936037,4.96733611 14.7686563,4.96733611 L10.6408669,4.96733611 C10.3159195,4.96733611 10.0506563,5.24683611 10.0506563,5.58922361 C10.0506563,5.9323875 10.3159195,6.21111111 10.6408669,6.21111111" id="Fill-6"></path>
                        <path d="M7.2765195,5.15607625 C7.16378266,5.26787625 7.10336161,5.42858875 7.10336161,5.58930125 C7.10336161,5.75001375 7.16378266,5.91383181 7.2765195,6.03261931 C7.38557214,6.14131375 7.54104582,6.21118875 7.69357214,6.21118875 C7.84609845,6.21118875 7.99862477,6.14752486 8.11062477,6.02640819 C8.21746687,5.91072625 8.28378266,5.75001375 8.28378266,5.58930125 C8.28378266,5.42858875 8.21746687,5.26477069 8.11062477,5.14986514 C7.88957214,4.91927764 7.49241424,4.91927764 7.2765195,5.15607625" id="Fill-8"></path>
                        <path d="M17.71573,6.21111111 C17.8682563,6.21111111 18.0207827,6.14123611 18.1327827,6.03254167 C18.2396248,5.91375417 18.3029932,5.74993611 18.3029932,5.58922361 C18.3029932,5.42851111 18.2396248,5.26469306 18.1327827,5.1497875 C17.9087827,4.9192 17.51973,4.9192 17.29573,5.1497875 C17.1888879,5.26469306 17.1255195,5.42851111 17.1255195,5.58922361 C17.1255195,5.74993611 17.1888879,5.91375417 17.29573,6.03254167 C17.40773,6.14123611 17.5602563,6.21111111 17.71573,6.21111111" id="Fill-10"></path>
                        <path d="M8.87399319,9.93839889 L4.74620372,9.93839889 C4.42125635,9.93839889 4.15599319,10.2140169 4.15599319,10.5602864 C4.15599319,10.9026739 4.42125635,11.1790683 4.74620372,11.1790683 L8.87399319,11.1790683 C9.19894056,11.1790683 9.4605195,10.9026739 9.4605195,10.5602864 C9.4605195,10.2140169 9.19894056,9.93839889 8.87399319,9.93839889" id="Fill-12"></path>
                        <path d="M1.79876161,11.1787578 C1.95128793,11.1787578 2.10381424,11.1119883 2.21581424,11.0001883 C2.32855108,10.8814008 2.38897214,10.7206883 2.38897214,10.5599758 C2.38897214,10.3961578 2.32855108,10.2354453 2.21581424,10.1174342 C1.99476161,9.88684667 1.60276161,9.88684667 1.38170898,10.1174342 C1.26897214,10.2354453 1.20855108,10.3899467 1.20855108,10.5599758 C1.20855108,10.7206883 1.27486687,10.8814008 1.38170898,11.0001883 C1.49076161,11.1119883 1.64623529,11.1787578 1.79876161,11.1787578" id="Fill-14"></path>
                        <path d="M3.65273003,15.6308822 C2.36325635,16.3373961 1.9285195,17.6929711 1.77009845,19.0974586 L1.03620372,18.4515031 C0.457782663,17.9421919 -0.380006811,18.8156294 0.204308978,19.3311517 C0.753993189,19.8163947 1.30662477,20.3047433 1.85630898,20.7899864 C2.24462477,21.1323739 2.84662477,20.9173142 2.86357214,20.3528794 C2.90704582,19.0066211 2.96746687,17.4080364 4.24809845,16.7046281 C4.92157214,16.3342906 4.32620372,15.2605447 3.65273003,15.6308822" id="Fill-16"></path>
                        <path d="M7.57258266,18.1086497 C6.75542477,18.3089581 5.8284774,19.4036664 5.25300372,18.1754192 C4.91553003,17.4564831 3.90016161,18.0876872 4.23395108,18.8004122 C4.53900372,19.4518025 5.11742477,19.9098719 5.80784582,20.0014858 C6.15637214,20.0465164 6.47321424,19.9952747 6.80405635,19.8617358 C7.04279319,19.7615817 7.94395108,19.0488567 8.13921424,19.4160886 C8.50763529,20.1132858 9.52668793,19.4882928 9.15826687,18.78799 C8.84216161,18.1901706 8.20037214,17.9541483 7.57258266,18.1086497" id="Fill-18"></path>
                        <path d="M19.2325932,14.0386639 C18.8184879,14.1931653 18.4839616,14.5270125 18.3174353,14.9548028 C18.1472248,15.3818167 18.1590142,15.8701653 18.3491195,16.2886389 C18.4522774,16.5161208 18.3314353,16.6799389 18.2739616,16.7404972 C18.2282774,16.7894097 18.1074353,16.8771417 17.9431195,16.8437569 L17.8134353,16.8018319 C17.758909,16.7769875 17.7043827,16.7622361 17.646909,16.7436028 C17.6063827,16.7319569 17.5658563,16.7133236 17.5260669,16.7016778 C17.4678563,16.6892556 17.4074353,16.68615 17.3470142,16.6768333 C17.30133,16.6713986 17.254909,16.6620819 17.2062774,16.6620819 C17.1488037,16.6589764 17.0942774,16.6682931 17.0368037,16.6745042 C16.9874353,16.6799389 16.9388037,16.6768333 16.8894353,16.6892556 C16.78333,16.7078889 16.6823827,16.7404972 16.5814353,16.7831986 C16.5556458,16.7956208 16.5328037,16.8134778 16.5070142,16.8259 C16.4348037,16.8623903 16.3603827,16.8988806 16.2940669,16.9470167 C16.2159616,17.0044694 16.1415406,17.0743444 16.0752248,17.147325 C16.0663827,17.1535361 16.0575406,17.1597472 16.0494353,17.1682875 C15.8998563,17.3352111 15.7841721,17.5324139 15.7097511,17.7505792 C15.6316458,17.9873778 15.4363827,18.0114458 15.35533,18.0114458 C15.2779616,18.0114458 15.0819616,17.9873778 15.0016458,17.7474736 C14.9264879,17.5293083 14.8115406,17.3321056 14.6619616,17.1682875 C14.6560669,17.1620764 14.6501721,17.1566417 14.6420669,17.1504306 C14.5728037,17.0743444 14.4976458,17.007575 14.41733,16.9470167 C14.3539616,16.9019861 14.2817511,16.8654958 14.2132248,16.8290056 C14.1837511,16.8165833 14.1579616,16.7956208 14.1292248,16.7831986 C14.1181721,16.7769875 14.1034353,16.7738819 14.0916458,16.7715528 C14.0054353,16.7350625 13.9192248,16.7078889 13.8300669,16.6892556 C13.7578563,16.6745042 13.6863827,16.6713986 13.6141721,16.6651875 C13.5883827,16.6651875 13.5625932,16.6589764 13.5368037,16.6589764 L13.530909,16.6589764 C13.3091195,16.6589764 13.0961721,16.7047833 12.914909,16.7987264 L12.77933,16.8406514 C12.6098563,16.8802472 12.4860669,16.7894097 12.4396458,16.7381681 C12.3821721,16.6768333 12.26133,16.5161208 12.3652248,16.2863097 C12.5523827,15.8678361 12.5634353,15.3818167 12.396909,14.9548028 C12.2296458,14.5270125 11.892909,14.1931653 11.4810142,14.0386639 C11.2540669,13.9540375 11.2312248,13.7475181 11.2312248,13.6659972 C11.2312248,13.5805944 11.2540669,13.3748514 11.4810142,13.2894486 C11.8958563,13.1349472 12.2296458,12.8011 12.396909,12.3740861 C12.5663827,11.9462958 12.5545932,11.4610528 12.3652248,11.0394736 C12.26133,10.8119917 12.3821721,10.6481736 12.4396458,10.5907208 C12.4971195,10.5293861 12.6496458,10.4020583 12.8684879,10.5115292 C13.2656458,10.7087319 13.7261721,10.7234833 14.1321721,10.5449139 C14.5381721,10.3686736 14.8550142,10.0138639 15.0016458,9.58063889 C15.0819616,9.34073472 15.2779616,9.31666667 15.35533,9.31666667 C15.4363827,9.31666667 15.6316458,9.34073472 15.7126985,9.58063889 C15.85933,10.0169694 16.1761721,10.3686736 16.5814353,10.5449139 C16.9874353,10.7234833 17.4479616,10.7118375 17.8480669,10.5115292 C18.0639616,10.4020583 18.2194353,10.5293861 18.2739616,10.5907208 C18.3314353,10.6512792 18.4522774,10.8119917 18.3491195,11.0425792 C18.1619616,11.4610528 18.1501721,11.9462958 18.3174353,12.3740861 C18.4839616,12.8011 18.8206985,13.1380528 19.2325932,13.2925542 C19.4602774,13.3748514 19.4831195,13.5805944 19.4831195,13.6659972 C19.4831195,13.7475181 19.4602774,13.9540375 19.2325932,14.0386639 Z M15.35533,20.8592403 L13.5883827,22.7249028 L13.5883827,17.9050806 C13.5942774,17.9050806 13.5994353,17.9050806 13.6023827,17.9081861 C13.63333,17.9143972 13.6605932,17.9206083 13.6804879,17.929925 C13.7092248,17.9415708 13.7497511,17.9664153 13.7895406,18.0029056 C13.8271195,18.0386194 13.8676458,18.0906375 13.8904879,18.1628417 C14.1152248,18.8274306 14.6906985,19.2552208 15.35533,19.2552208 C16.0236458,19.2552208 16.5991195,18.8274306 16.8231195,18.1628417 C16.8466985,18.0906375 16.8835406,18.0386194 16.9240669,18.0029056 C16.9645932,17.9664153 17.0051195,17.9415708 17.0338563,17.929925 C17.0508037,17.9237139 17.0795406,17.9143972 17.1082774,17.9081861 C17.1141721,17.9081861 17.1200669,17.9050806 17.1259616,17.9050806 L17.1259616,22.7249028 L15.35533,20.8592403 Z M19.6268037,12.1186542 C19.4890142,12.0674125 19.4285932,11.9579417 19.4050142,11.8973833 C19.3821721,11.836825 19.3504879,11.7157083 19.4138563,11.5759583 C19.6990142,10.9393194 19.5811195,10.2079611 19.1088037,9.71107222 C18.6364879,9.2165125 17.9401721,9.08918472 17.3418563,9.38964722 C17.2062774,9.45641667 17.09133,9.42303194 17.0338563,9.3981875 C16.9756458,9.37411944 16.8724879,9.31045556 16.8231195,9.16527083 C16.5991195,8.50068194 16.0236458,8.07289167 15.35533,8.07289167 C14.6906985,8.07289167 14.1152248,8.50068194 13.8904879,9.16527083 C13.8418563,9.31045556 13.7379616,9.37411944 13.6804879,9.3981875 C13.6230142,9.42303194 13.5051195,9.45641667 13.3724879,9.38964722 C12.7704879,9.08918472 12.0771195,9.21340694 11.6048037,9.71107222 C11.1332248,10.2079611 11.01533,10.9393194 11.2997511,11.5728528 C11.3631195,11.7157083 11.3314353,11.836825 11.3085932,11.8973833 C11.2828037,11.9579417 11.2223827,12.0674125 11.0868037,12.1186542 C10.4568037,12.3554528 10.0508037,12.9618125 10.0508037,13.6659972 C10.0508037,14.3663 10.4568037,14.9726597 11.0868037,15.2094583 C11.2223827,15.2607 11.2828037,15.3701708 11.3085932,15.4307292 C11.3314353,15.4912875 11.3631195,15.6155097 11.2997511,15.7552597 C11.01533,16.3887931 11.1332248,17.1201514 11.6048037,17.6170403 C11.8324879,17.8569444 12.1146985,18.0083403 12.4079616,18.0688986 L12.4079616,25.7240931 L15.35533,22.6185375 L18.3026985,25.7240931 L18.3026985,18.0688986 C18.5996458,18.0083403 18.8811195,17.8569444 19.1088037,17.6170403 C19.5811195,17.1201514 19.6990142,16.3887931 19.4138563,15.7552597 C19.3504879,15.6155097 19.3821721,15.4912875 19.4050142,15.4307292 C19.4285932,15.3701708 19.4890142,15.2607 19.6268037,15.2094583 C20.2575406,14.9726597 20.6628037,14.3663 20.6628037,13.6659972 C20.6628037,12.9618125 20.2575406,12.3554528 19.6268037,12.1186542 Z" id="Fill-20"></path>
                    </g>
                </g>
            </g>
        </g>
    </g>
</svg>