<?xml version="1.0" encoding="UTF-8"?>
<svg width="91px" height="91px" viewBox="0 0 91 91" version="1.1" xmlns="http://www.w3.org/2000/svg" xmlns:xlink="http://www.w3.org/1999/xlink">
    <!-- Generator: Sketch 51.3 (57544) - http://www.bohemiancoding.com/sketch -->
    <title>Group 9</title>
    <desc>Created with Sketch.</desc>
    <defs>
        <polygon id="path-1" points="0.00554347826 44.1025946 34 44.1025946 34 0 0.00554347826 0"></polygon>
    </defs>
    <g id="Welcome" stroke="none" stroke-width="1" fill="none" fill-rule="evenodd">
        <g id="Stocktaking" transform="translate(-1135.000000, -2079.000000)">
            <g id="Group-9" transform="translate(1136.000000, 2080.000000)">
                <circle id="Oval-Copy-3" stroke="#D1C2A1" stroke-width="2" cx="44.5" cy="44.5" r="44.5"></circle>
                <g id="result" transform="translate(28.000000, 23.000000)">
                    <g id="Group-3">
                        <mask id="mask-2" fill="white">
                            <use xlink:href="#path-1"></use>
                        </mask>
                        <g id="Clip-2"></g>
                        <path d="M32.5217391,4.41081081 L32.5217391,42.6378378 L1.47826087,42.6378378 L1.47826087,4.41081081 L10.3478261,4.41081081 L10.3478261,6.61621621 C10.3477337,7.0221027 10.6784946,7.35125946 11.086587,7.35135135 C11.0866793,7.35135135 11.0868641,7.35135135 11.0869565,7.35135135 L22.9130435,7.35135135 C23.3211359,7.35144324 23.6520815,7.02247027 23.6521739,6.61658378 C23.6521739,6.61649189 23.6521739,6.61630811 23.6521739,6.61621621 L23.6521739,4.41081081 L32.5217391,4.41081081 Z M11.826087,5.88108108 L22.173913,5.88108108 L22.173913,1.47027027 L11.826087,1.47027027 L11.826087,5.88108108 Z M22.9130435,-1.69821542e-09 L11.0869565,-1.69821542e-09 C10.6788641,-9.18935901e-05 10.3479185,0.328881079 10.3478261,0.734767566 C10.3478261,0.734859458 10.3478261,0.735043242 10.3478261,0.735135133 L10.3478261,2.94054054 L0.739130433,2.94054054 C0.331038042,2.94044865 9.23897107e-05,3.26942162 -1.59361219e-09,3.67530811 C-1.59361219e-09,3.6754 -1.59361219e-09,3.67558378 -1.59361219e-09,3.67567567 L-1.59361219e-09,43.372973 C-9.2392898e-05,43.7788595 0.330668477,44.1080162 0.738760868,44.1081081 C0.738853259,44.1081081 0.739038042,44.1081081 0.739130433,44.1081081 L33.2608696,44.1081081 C33.668962,44.1082 33.9999076,43.779227 34,43.3733405 C34,43.3732486 34,43.3730649 34,43.372973 L34,3.67567567 C34.0000924,3.26978919 33.6693315,2.94063243 33.2612391,2.94054054 C33.2611467,2.94054054 33.260962,2.94054054 33.2608696,2.94054054 L23.6521739,2.94054054 L23.6521739,0.735135133 C23.6522663,0.329248647 23.3215054,9.18901937e-05 22.913413,-1.69821542e-09 C22.9133207,-1.69821542e-09 22.9131359,-1.69821542e-09 22.9130435,-1.69821542e-09 Z" id="Fill-1" fill="#555555" mask="url(#mask-2)"></path>
                    </g>
                    <polygon id="Fill-4" fill="#555555" points="2.75675676 35.8378378 19.2972973 35.8378378 19.2972973 34 2.75675676 34"></polygon>
                    <polygon id="Fill-5" fill="#555555" points="21.1351351 35.8378378 31.2432432 35.8378378 31.2432432 34 21.1351351 34"></polygon>
                    <polygon id="Fill-6" fill="#555555" points="2.75675676 38.5945946 31.2432432 38.5945946 31.2432432 36.7567568 2.75675676 36.7567568"></polygon>
                    <polygon id="Fill-7" fill="#555555" points="2.75675676 41.3513514 14.7027027 41.3513514 14.7027027 39.5135135 2.75675676 39.5135135"></polygon>
                    <polygon id="Fill-8" fill="#555555" points="16.5405405 41.3513514 31.2432432 41.3513514 31.2432432 39.5135135 16.5405405 39.5135135"></polygon>
                    <path d="M4.13513514,30.6918919 L6.89189188,30.6918919 L6.89189188,22.6054054 L4.13513514,22.6054054 L4.13513514,30.6918919 Z M3.44594596,32.1621621 L7.58108107,32.1621621 C7.96159965,32.162254 8.2701841,31.8332811 8.27027025,31.4273946 C8.27027025,31.4273027 8.27027025,31.4271189 8.27027025,31.427027 L8.27027025,21.8702703 C8.2703564,21.4643838 7.96194424,21.135227 7.58142566,21.1351352 C7.58133951,21.1351352 7.58116722,21.1351352 7.58108107,21.1351352 L3.44594596,21.1351352 C3.06542738,21.1350433 2.75684292,21.4640162 2.75675677,21.8699027 C2.75675677,21.8699946 2.75675677,21.8701784 2.75675677,21.8702703 L2.75675677,31.427027 C2.75667063,31.8329135 3.06508279,32.1620703 3.44560136,32.1621621 C3.44568751,32.1621621 3.44585981,32.1621621 3.44594596,32.1621621 Z" id="Fill-9" fill="#555555"></path>
                    <path d="M11.4864865,30.7112375 L14.2432432,30.7112375 L14.2432432,19.829303 L11.4864865,19.829303 L11.4864865,30.7112375 Z M14.9324324,32.1621621 C15.312951,32.1622528 15.6215355,31.8376084 15.6216216,31.4370626 C15.6216216,31.4369719 15.6216216,31.4367905 15.6216216,31.4366998 L15.6216216,19.1038407 C15.6217078,18.7032948 15.3132956,18.3784691 14.932777,18.3783784 C14.9326909,18.3783784 14.9325186,18.3783784 14.9324324,18.3783784 L10.7972973,18.3783784 C10.4167787,18.3782877 10.1081943,18.7029321 10.1081081,19.103478 C10.1081081,19.1035687 10.1081081,19.10375 10.1081081,19.1038407 L10.1081081,31.4366998 C10.108022,31.8372457 10.4164341,32.1620715 10.7969527,32.1621621 C10.7970389,32.1621621 10.7972112,32.1621621 10.7972973,32.1621621 L14.9324324,32.1621621 Z" id="Fill-10" fill="#555555"></path>
                    <path d="M18.8378378,30.7238543 L21.5945946,30.7238543 L21.5945946,17.0599295 L18.8378378,17.0599295 L18.8378378,30.7238543 Z M22.2837838,32.1621621 C22.6643023,32.162252 22.9728868,31.8404307 22.972973,31.4433678 C22.972973,31.4432779 22.972973,31.4430981 22.972973,31.4430082 L22.972973,16.3407756 C22.9730591,15.9437127 22.6646469,15.6217115 22.2841284,15.6216216 C22.2840422,15.6216216 22.2838699,15.6216216 22.2837838,15.6216216 L18.1486487,15.6216216 C17.7681301,15.6215317 17.4595456,15.9433531 17.4594595,16.340416 C17.4594595,16.3405059 17.4594595,16.3406857 17.4594595,16.3407756 L17.4594595,31.4430082 C17.4593733,31.8400711 17.7677855,32.1620722 18.1483041,32.1621621 C18.1483902,32.1621621 18.1485625,32.1621621 18.1486487,32.1621621 L22.2837838,32.1621621 Z" id="Fill-11" fill="#555555"></path>
                    <path d="M26.1891892,31.5835836 L28.9459459,31.5835836 L28.9459459,14.3623624 L26.1891892,14.3623624 L26.1891892,31.5835836 Z M25.5,12.8648649 C25.1194814,12.8647713 24.810897,13.1998364 24.8108108,13.6132393 C24.8108108,13.6133329 24.8108108,13.61352 24.8108108,13.6136136 L24.8108108,32.3323323 C24.8107247,32.7457352 25.1191368,33.0809875 25.4996554,33.0810811 C25.4997416,33.0810811 25.4999139,33.0810811 25.5,33.0810811 L29.6351351,33.0810811 C30.0156537,33.0811747 30.3242382,32.7461096 30.3243243,32.3327067 C30.3243243,32.3326131 30.3243243,32.3324259 30.3243243,32.3323323 L30.3243243,13.6136136 C30.3244105,13.2002107 30.0159983,12.8649585 29.6354797,12.8648649 C29.6353936,12.8648649 29.6352213,12.8648649 29.6351351,12.8648649 L25.5,12.8648649 Z" id="Fill-12" fill="#555555"></path>
                    <path d="M23.1732405,8.94909669 L16.6067459,13.2860996 L10.0783457,13.2860996 C9.93769676,13.2860996 9.79986268,13.3253275 9.68070047,13.3994142 L3.67567568,17.1176952 L4.47096615,18.3783784 L10.2934945,14.773412 L16.8339986,14.773412 C16.9821538,14.7733191 17.127025,14.7299081 17.2504095,14.6484778 L23.8824903,10.267878 L31.2432432,8.80966115 L30.9486217,7.35135135 L23.4423407,8.83866374 C23.3462603,8.85771993 23.2548714,8.89527457 23.1732405,8.94909669" id="Fill-13" fill="#555555"></path>
                </g>
            </g>
        </g>
    </g>
</svg>