<?xml version="1.0" encoding="UTF-8"?>
<svg width="91px" height="91px" viewBox="0 0 91 91" version="1.1" xmlns="http://www.w3.org/2000/svg" xmlns:xlink="http://www.w3.org/1999/xlink">
    <!-- Generator: Sketch 51.3 (57544) - http://www.bohemiancoding.com/sketch -->
    <title>Group 10</title>
    <desc>Created with Sketch.</desc>
    <defs>
        <polygon id="path-1" points="0.436307143 0.0279545455 17.6983071 0.0279545455 17.6983071 14.5272273 0.436307143 14.5272273"></polygon>
        <polygon id="path-3" points="0.138790668 13 17.4669624 13 17.4669624 0.404071326 0.138790668 0.404071326"></polygon>
        <polygon id="path-5" points="0 0.404329895 0 12.999935 17.978564 12.999935 17.978564 0.404329895"></polygon>
    </defs>
    <g id="Welcome" stroke="none" stroke-width="1" fill="none" fill-rule="evenodd">
        <g id="Stocktaking" transform="translate(-1074.000000, -2210.000000)">
            <g id="Group-10" transform="translate(1075.000000, 2211.000000)">
                <circle id="Oval-Copy-5" stroke="#D1C2A1" stroke-width="2" cx="44.5" cy="44.5" r="44.5"></circle>
                <g id="Page-1" transform="translate(29.000000, 27.000000)">
                    <path d="M15.4705155,26 C15.3733299,26 15.2756103,25.9707134 15.1917744,25.9100483 C14.9824515,25.7589085 14.9375966,25.4707492 15.0913848,25.2657429 L15.1490554,25.1878197 C15.3039116,24.9828134 15.5981383,24.9388835 15.8079951,25.0895003 C16.0173179,25.2401172 16.0627068,25.5287994 15.9083846,25.7338057 L15.8496461,25.8127749 C15.7572664,25.9351511 15.6152259,26 15.4705155,26" id="Fill-1" fill="#000000"></path>
                    <path d="M16.3855059,31 C16.1680531,31 15.9582668,30.8981587 15.8467525,30.7179305 L14.0764629,27.8676089 C13.9607668,27.6818257 13.977494,27.4540715 14.1189778,27.2831016 L15.8279344,25.2228215 C16.0286602,24.9796368 16.4133845,24.9277903 16.6872915,25.1055497 C16.9605016,25.283309 17.0197435,25.6246316 16.8190178,25.8671991 L15.3428472,27.6466441 L16.9235624,30.1926763 C17.0873491,30.4568465 16.9793196,30.7876763 16.6817158,30.932723 C16.5876256,30.9783973 16.4858688,31 16.3855059,31" id="Fill-3" fill="#000000"></path>
                    <path d="M18.6168845,31 C18.5665266,31 18.5147699,30.9938014 18.4630131,30.9826441 C18.1909405,30.9206585 18,30.7030894 18,30.452668 C18,30.3609294 18.0258784,30.2698107 18.0769357,30.1892295 L19.6520196,27.6496833 L18.178351,25.8706992 C18.0692421,25.7392899 18.0321731,25.571929 18.0769357,25.413866 C18.1349872,25.2086939 18.3217312,25.0506309 18.5560354,25.0103403 C18.791039,24.9694299 19.0309386,25.0518706 19.1729199,25.2229506 L20.8801934,27.2839688 C21.0221747,27.4556686 21.0396601,27.6843952 20.9235571,27.8709715 L19.1575328,30.7167262 C19.0470251,30.8940048 18.8378999,31 18.6168845,31" id="Fill-5" fill="#000000"></path>
                    <path d="M13.1073446,20.3453232 L16.4996861,22.7214553 L19.8926554,20.3453232 L19.8926554,19.7813949 C18.1738858,21.3613155 16.4783427,21.2566893 16.1456372,21.2178658 L16.1393597,21.2178658 C15.1487759,21.2178658 13.9334589,20.4460012 13.1073446,19.8169283 L13.1073446,20.3453232 Z M16.5003139,24 C16.3929692,24 16.2862524,23.9677567 16.1946014,23.9032702 L16.1839297,23.8960319 L16.1820465,23.8947158 L12.2561205,21.1448249 C12.2391714,21.1329804 12.2234777,21.121794 12.2071563,21.1079754 C12.0765851,20.9980851 12,20.8316045 12,20.6559115 L12,18.6640666 C12,18.4495501 12.1129944,18.2521423 12.2937853,18.1521223 C12.4745763,18.0514443 12.6942875,18.0632888 12.863779,18.1837075 C13.039548,18.3074165 13.2159448,18.4423118 13.3873195,18.5837874 C14.5109856,19.5089721 15.5731325,20.0729004 16.1613308,20.0571078 C16.1952291,20.0564497 16.2291274,20.0584238 16.262398,20.063688 C16.3176397,20.0722424 17.7338355,20.2630699 19.2241055,18.850946 C19.4978029,18.5923417 19.8028876,18.3403178 20.1318267,18.1027703 C20.301946,17.9797195 20.522285,17.9665589 20.7043315,18.0665789 C20.8863779,18.1665989 21,18.3646647 21,18.5798392 L21,20.6559115 C21,20.8342366 20.9215317,21.0033493 20.787194,21.1132396 C20.7721281,21.1257421 20.7570621,21.1362705 20.7413685,21.147457 L16.824231,23.8907677 C16.8223478,23.8920837 16.8198368,23.8940578 16.8179535,23.8953739 C16.8160703,23.8960319 16.8141871,23.8973479 16.8116761,23.898664 C16.7959824,23.9105085 16.779661,23.9216949 16.7620841,23.9309073 C16.6798493,23.9769691 16.5900816,24 16.5003139,24 Z" id="Fill-7" fill="#000000"></path>
                    <path d="M15.6976148,26 C15.5536168,26 15.4096189,25.9628773 15.2854008,25.8866432 C14.9744601,25.6957264 14.9072083,25.3291397 15.1350733,25.0692807 L16.7388309,23.2383358 C16.9049824,23.0494077 17.191396,22.9619042 17.463568,23.0155995 C17.7365312,23.0706207 17.9446162,23.2562342 17.9897144,23.4882512 C17.9968352,23.5207335 18,23.5532159 18,23.5843724 C18,23.7176164 17.9469898,23.8409169 17.8567932,23.9403527 L16.2609475,25.761354 C16.1232791,25.9171368 15.9120294,26 15.6976148,26" id="Fill-9" fill="#000000"></path>
                    <g id="Group-13" transform="translate(8.000000, 0.000000)">
                        <mask id="mask-2" fill="white">
                            <use xlink:href="#path-1"></use>
                        </mask>
                        <g id="Clip-12"></g>
                        <path d="M10.4616643,4.75268182 C10.7721643,4.75268182 11.08395,4.80790909 11.3815929,4.91836364 L14.0211643,5.90154545 C14.0237357,5.90290909 14.0263071,5.90290909 14.0288786,5.90427273 C16.1110929,6.71563636 16.3450929,8.77609091 16.3540929,8.86404545 C16.3566643,8.88586364 16.3573071,8.907 16.3573071,8.92881818 L16.3573071,10.5529091 C16.49295,10.3156364 16.5643071,10.0497273 16.5643071,9.78040909 L16.5643071,5.51495455 C16.5263786,5.27768182 16.23195,3.80904545 14.78745,3.44018182 C14.6222357,3.39859091 14.4833786,3.27927273 14.40945,3.11631818 C14.3355214,2.95336364 14.3342357,2.76381818 14.4075214,2.60018182 C14.4075214,2.60018182 14.6087357,2.10245455 14.43195,1.74177273 C14.28795,1.44654545 13.9073786,1.30131818 13.59495,1.23109091 L6.04137857,1.23109091 C3.57602143,1.23109091 1.57095,3.35768182 1.57095,5.97245455 L1.57095,9.14018182 C1.57095,9.47631818 1.63587857,9.80631818 1.75995,10.1090455 L1.75995,8.87154545 C1.75995,8.82790909 1.76445,8.78359091 1.77280714,8.74063636 C2.34237857,6.03518182 4.60459286,5.69359091 4.69973571,5.67995455 C4.72416429,5.67654545 4.74859286,5.67586364 4.77237857,5.67586364 L7.28080714,5.67586364 C7.45245,5.67586364 7.62087857,5.64790909 7.78095,5.59336364 C8.13259286,5.47404545 8.71887857,5.24972727 9.47552143,4.94427273 C9.79245,4.81677273 10.1267357,4.75268182 10.4616643,4.75268182 M15.79095,14.5272273 C15.7768071,14.5272273 15.7626643,14.5265455 15.7485214,14.5251818 C15.4521643,14.502 15.2233071,14.2408636 15.2233071,13.9258636 L15.2233071,8.97040909 C15.1943786,8.77677273 14.9590929,7.55086364 13.6412357,7.03472727 L11.0061643,6.05359091 C10.6403786,5.91722727 10.2398786,5.92268182 9.87859286,6.06859091 C9.33795,6.28677273 8.59545,6.57995455 8.12680714,6.73881818 C7.85487857,6.83154545 7.57009286,6.87790909 7.28080714,6.87790909 L4.81930714,6.87790909 C4.59302143,6.92290909 3.27837857,7.25154545 2.89395,8.94040909 L2.89395,13.0695 C2.89395,13.3954091 2.64966429,13.6613182 2.34237857,13.6708636 C2.03445,13.6804091 1.77795,13.4288182 1.76059286,13.1035909 C1.71559286,12.2710909 1.42180714,11.7208636 1.18330714,11.4058636 C0.701807143,10.7697273 0.436307143,9.96518182 0.436307143,9.14018182 L0.436307143,5.97245455 C0.436307143,2.69427273 2.95052143,0.0276818182 6.04137857,0.0276818182 L13.6521643,0.0276818182 C13.6888071,0.0276818182 13.7248071,0.0317727273 13.7608071,0.0392727273 C14.5913786,0.210409091 15.1583786,0.601090909 15.4457357,1.20177273 C15.6591643,1.64768182 15.66495,2.10654545 15.6128786,2.4645 C17.4167357,3.26563636 17.6822357,5.2995 17.6938071,5.39359091 C17.6970214,5.41881818 17.6983071,5.44404545 17.6983071,5.46995455 L17.6983071,9.78040909 C17.6983071,10.2808636 17.56395,10.7738182 17.3100214,11.2060909 C16.5803786,12.4476818 16.35345,13.9995 16.3515214,14.0145 C16.3097357,14.3110909 16.0693071,14.5272273 15.79095,14.5272273" id="Fill-11" fill="#000000" mask="url(#mask-2)"></path>
                    </g>
                    <path d="M17.2427005,19.8444825 C17.3153653,19.8548634 18.8003699,20.0365281 20.3626635,18.6493881 C20.6500198,18.3944086 20.9723874,18.1459172 21.3185361,17.9116995 L21.350905,17.8883426 C21.3727045,17.8740689 21.3945039,17.8584977 21.4163033,17.844224 C22.0385784,17.4335319 23.5176377,16.111921 23.8347206,12.7031119 L23.8347206,8.0135665 C23.8056546,7.82930655 23.5632184,6.66275942 22.209671,6.17161583 L19.5012551,5.23798884 C19.1260404,5.10822831 18.7144933,5.11341873 18.3425816,5.2522625 C17.787026,5.45987934 17.0240454,5.73886447 16.5424759,5.89003548 C16.2637072,5.97827264 15.9704056,6.02239122 15.6731404,6.02239122 L13.142423,6.02239122 C12.9211256,6.06261698 11.561633,6.37144704 11.1652794,7.98501919 L11.1652794,12.8302772 C11.1705641,12.9762578 11.3198573,16.4616256 13.6114414,17.9512764 C13.6272955,17.9616573 13.6418285,17.9713893 13.6557009,17.9811213 L13.6702338,17.9915022 C13.8545382,18.1134771 14.0401638,18.2464816 14.2211653,18.3859742 C15.4029594,19.2975419 16.5200159,19.8542146 17.1403092,19.8379945 C17.1739992,19.8373457 17.2083498,19.8392921 17.2427005,19.8444825 M17.4712644,21 C17.3100806,21 17.1905139,20.9909168 17.1231338,20.9831311 L17.1171885,20.9831311 C15.8871714,20.9831311 14.3281807,19.9242852 13.501123,19.2865122 C13.3425816,19.1632397 13.1800766,19.0471041 13.0175717,18.9394028 C13.0050205,18.9316172 12.9924693,18.922534 12.9812393,18.9140995 L12.9660457,18.9043675 C10.1274937,17.058524 10.0039635,13.0223228 10,12.8516877 L10,12.8387117 L10,7.91949012 C10,7.87731795 10.0046241,7.83514578 10.0138724,7.79492001 C10.5984939,5.21982236 12.9231074,4.89542105 13.0208746,4.882445 C13.045977,4.87984979 13.07174,4.87855218 13.0961818,4.87855218 L15.6731404,4.87855218 C15.8501784,4.87855218 16.0225922,4.85195127 16.1870789,4.80069586 C16.5484212,4.6865066 17.1508786,4.47305053 17.9283921,4.18238695 C18.5566125,3.9481692 19.2528736,3.93908597 19.8876998,4.15773245 L22.5994187,5.09330585 C22.602061,5.09460346 22.6047034,5.09525226 22.6073458,5.09654986 C24.7469943,5.86797619 24.9881094,7.82865775 24.9966971,7.91235329 C24.9993394,7.93311498 25,7.95387666 25,7.97398954 L25,12.729064 C25,12.7465817 24.9993394,12.7634506 24.9980182,12.7803194 C24.6538512,16.5576484 23.0129475,18.1692741 22.0663232,18.794071 C22.0517902,18.8038031 22.0379178,18.8135351 22.0233849,18.823916 L21.979786,18.8537609 C21.6752543,19.0594313 21.3938433,19.2767802 21.1441406,19.4986707 C19.6545118,20.8209305 18.1675254,21 17.4712644,21" id="Fill-14" fill="#555555"></path>
                    <path d="M15.6817945,26 C15.5409689,26 15.4001434,25.96317 15.2778882,25.8888638 C14.9745716,25.7021292 14.9095752,25.3461057 15.1324201,25.0928186 L16.7666156,23.2332261 C16.9074412,23.0729832 17.1387975,22.9857542 17.3747964,23.0019077 C17.611569,23.0193535 17.8212599,23.1375972 17.9272659,23.3152859 C17.9752395,23.3947612 18,23.4819902 18,23.5705114 C18,23.692632 17.953574,23.8173371 17.8661383,23.9149044 L16.2319427,25.7680355 C16.0980811,25.9192324 15.8914853,26 15.6817945,26" id="Fill-16" fill="#555555"></path>
                    <path d="M17.4518087,34 C17.4314617,34 17.4111148,33.9984692 17.3902591,33.9959179 C17.2508824,33.9765277 17.1288006,33.8923334 17.0601296,33.7693588 L17.0570775,33.7637458 C16.9553427,33.5815801 16.9924759,33.3529799 17.1455868,33.2121459 L17.2488477,33.1177462 C17.4284097,32.9529296 17.7071631,32.9621144 17.8755342,33.1391775 C18.0444141,33.3157303 18.0408533,33.5953573 17.8684128,33.7683382 L17.7692214,33.8678405 C17.6842728,33.9530553 17.5698211,34 17.4518087,34" id="Fill-18" fill="#555555"></path>
                    <path d="M17.5483582,34 C17.4303503,34 17.315903,33.9530468 17.2309576,33.8683268 L17.13177,33.768296 C16.9588274,33.5952835 16.9557754,33.3156055 17.1246488,33.1390205 C17.2930135,32.9624355 17.5717563,32.9527386 17.7513114,33.1175853 L17.8540597,33.2120022 C18.0066561,33.3518412 18.0442965,33.5789519 17.9446002,33.7606406 L17.9410396,33.7662545 C17.8738972,33.8902723 17.7513114,33.9755027 17.6114314,33.9954067 C17.5905765,33.9984689 17.569213,34 17.5483582,34" id="Fill-20" fill="#555555"></path>
                    <path d="M17.4997191,34 C17.3735543,34 17.2479502,33.9522862 17.1515042,33.8557359 L17.1458969,33.8506839 C17.0500116,33.7552563 16.9973027,33.6244644 17.0001064,33.4891818 C17.0029101,33.3538991 17.061787,33.2253525 17.1610366,33.1338543 L17.1627188,33.1327317 C17.2658936,33.0361814 17.4083197,32.9867836 17.5541102,33.0030624 C17.6628923,33.0148505 17.7615812,33.062003 17.8384016,33.133293 L17.8384016,33.1338543 C17.9382119,33.2247912 17.9965281,33.3533378 17.9998925,33.4886204 C18.0026962,33.6233417 17.9505481,33.754695 17.8546628,33.8495612 L17.8496162,33.8551746 C17.7531702,33.9517249 17.6270054,34 17.4997191,34" id="Fill-22" fill="#555555"></path>
                    <path d="M17.5001558,24 C17.3705247,24 17.2425917,23.9501299 17.146359,23.8532234 C16.9742722,23.680945 16.9510631,23.4100599 17.0920158,23.2111464 C17.2182505,23.0343344 17.4446805,22.9572625 17.6518639,23.023567 C17.8590473,23.0898715 18,23.2808512 18,23.4984659 L18,23.4995994 C18,23.6622437 17.9207495,23.8152541 17.788288,23.9087605 C17.7011124,23.9699646 17.6003511,24 17.5001558,24" id="Fill-24" fill="#555555"></path>
                    <path d="M17.4987693,24 C17.418086,24 17.337967,23.9808441 17.2646185,23.9414055 C17.103252,23.855204 17,23.6878716 17,23.5053271 L17,23.4963126 C17,23.2827807 17.1376693,23.0923485 17.3424807,23.0253029 C17.5461636,22.9576939 17.7701584,23.0286834 17.8982361,23.2010864 L17.9021856,23.2072839 C17.9834331,23.3165852 18.0161578,23.4546204 17.9924606,23.589275 C17.9681992,23.7233663 17.890337,23.8416821 17.7769291,23.9171789 C17.6934247,23.9718296 17.5963791,24 17.4987693,24" id="Fill-26" fill="#555555"></path>
                    <path d="M18.4963389,23.4737429 L20.7530662,26.3512896 L23.4933279,21.6868212 L22.100105,21.2197848 L18.4963389,23.4737429 Z M20.8272408,28 C20.6320077,28 20.4465711,27.912881 20.3304109,27.7641892 L17.1199102,23.671562 C17.0625299,23.5981986 17.024043,23.5136998 17.0086483,23.4246157 C16.9946531,23.3466671 16.9974521,23.2660984 17.018445,23.1888049 C17.0555323,23.0492835 17.1479006,22.9267929 17.2766565,22.8475343 L17.628636,23.321776 L17.2843539,22.842294 C17.2857534,22.841639 17.2864532,22.840984 17.2878527,22.8396739 L21.6725514,20.0977185 C21.8174018,20.0066693 21.9965404,19.977848 22.1651827,20.0171498 C22.184776,20.021735 22.205069,20.0269753 22.2239626,20.0335256 L24.591252,20.8280769 C24.7612938,20.8850645 24.8963475,21.0088652 24.9600257,21.1673824 C25.0237039,21.3258997 25.0111082,21.5021027 24.9236382,21.6501395 L21.3681556,27.7006513 C21.2666903,27.8735792 21.077755,27.9862444 20.8678269,27.9986899 C20.8545315,27.999345 20.841236,28 20.8272408,28 Z" id="Fill-28" fill="#555555"></path>
                    <path d="M11.5070223,21.6869616 L14.2471294,26.3506712 L15.3855753,24.8985021 C15.3869748,24.8965371 15.3890739,24.894572 15.3904734,24.893262 L16.5037294,23.4744987 L12.8994669,21.2199357 L11.5070223,21.6869616 Z M14.1722593,28 C14.1589646,28 14.1456699,27.999345 14.1316755,27.99869 C13.9217592,27.9855897 13.7335343,27.872927 13.631375,27.700658 L10.0767928,21.6502808 C9.98932764,21.5022473 9.97603294,21.3253932 10.0397075,21.1668794 C10.1040819,21.0090207 10.2384283,20.8845678 10.4091602,20.8275815 L12.7749166,20.0343578 C12.8001066,20.0258426 12.8245968,20.0186374 12.8497867,20.0133973 C13.0142212,19.9799915 13.1870522,20.0094672 13.3276961,20.0972393 L17.7268415,22.848959 C17.866086,22.936731 17.9619477,23.0742843 17.9906363,23.2288679 C18.0200246,23.3847615 17.9794408,23.5439303 17.8800804,23.6703483 L16.3896749,25.5718579 C16.3882754,25.573823 16.386876,25.575788 16.3854765,25.576443 L14.6697608,27.7635394 C14.5529074,27.912883 14.3681811,28 14.1722593,28 Z" id="Fill-30" fill="#555555"></path>
                    <g id="Group-34" transform="translate(17.000000, 21.000000)">
                        <mask id="mask-4" fill="white">
                            <use xlink:href="#path-3"></use>
                        </mask>
                        <g id="Clip-33"></g>
                        <path d="M2.14534286,11.853595 L15.3946286,11.853595 C15.6710571,11.853595 15.9314143,11.731395 16.1107714,11.518195 C16.2888429,11.304995 16.3653429,11.025495 16.3203429,10.749895 L15.5887714,6.283745 C15.4254857,5.284695 14.7389143,4.450095 13.7971286,4.105595 L8.0532,2.004795 L9.30034286,4.532645 C9.38777143,4.709445 9.37877143,4.918095 9.27784286,5.087095 C9.17627143,5.255445 8.99627143,5.359445 8.80148571,5.362045 L7.37177143,5.384795 L7.74205714,6.098495 C7.86162857,6.329245 7.81212857,6.611995 7.62248571,6.787495 L2.14534286,11.853595 Z M15.3946286,13.000195 L0.710485714,13.000195 C0.502842857,13.000195 0.311914286,12.885795 0.212914286,12.701845 L0.208414286,12.693395 C0.0875571429,12.470445 0.126771429,12.192895 0.304842857,12.012845 L0.430842857,11.886095 C0.436628571,11.880245 0.443057143,11.873745 0.448842857,11.867895 L6.53477143,6.239545 L5.93948571,5.091645 C5.84884286,4.914845 5.85462857,4.703595 5.95491429,4.531995 C6.0552,4.361695 6.23648571,4.255745 6.43384286,4.252495 L7.88348571,4.229745 L6.40555714,1.233895 C6.3027,1.023945 6.33612857,0.771095 6.48977143,0.596895 C6.64405714,0.421395 6.8877,0.358345 7.10627143,0.438295 L14.1828429,3.027245 C15.5097,3.512795 16.4772,4.688645 16.7073429,6.096545 L17.4389143,10.562695 C17.5385571,11.170445 17.3701286,11.789245 16.9747714,12.259845 C16.5807,12.730445 16.0053429,13.000195 15.3946286,13.000195 Z" id="Fill-32" fill="#555555" mask="url(#mask-4)"></path>
                    </g>
                    <path d="M17.5055384,34 L17.4948857,34 C17.2952869,34 17.1153115,33.8793366 17.037939,33.6938308 C16.9611271,33.508325 17.0031774,33.2946268 17.1439057,33.1519734 L17.1489518,33.1463349 C17.3350945,32.9580098 17.6356141,32.9506798 17.8318489,33.1288556 L17.8374556,33.1339302 C17.9888367,33.2720729 18.0404184,33.489718 17.9669705,33.68199 C17.8935227,33.8731343 17.7101833,34 17.5055384,34" id="Fill-35" fill="#555555"></path>
                    <path d="M17.4987835,34 C17.3692087,34 17.2390705,33.9488565 17.1416077,33.8482554 L17.1399176,33.8471314 C16.9883714,33.6903287 16.9562594,33.4542816 17.0616093,33.2637579 L17.0644262,33.2575757 C17.1376641,33.1243777 17.2678023,33.032207 17.417095,33.0069162 C17.5669511,32.9816255 17.7201874,33.0265868 17.8328612,33.1271878 C17.9990549,33.2766843 18.0486314,33.5211616 17.9483518,33.7206776 C17.9213101,33.7757553 17.8841277,33.8246507 17.8390582,33.865678 L17.8339879,33.8707361 C17.7387786,33.9567247 17.618781,34 17.4987835,34" id="Fill-37" fill="#555555"></path>
                    <g id="Group-41" transform="translate(0.000000, 21.000000)">
                        <mask id="mask-6" fill="white">
                            <use xlink:href="#path-5"></use>
                        </mask>
                        <g id="Clip-40"></g>
                        <path d="M9.76253333,2.004535 L3.80586667,4.105335 C2.82986667,4.450485 2.1172,5.284435 1.94786667,6.283485 L1.18986667,10.749635 C1.14253333,11.025235 1.22186667,11.305385 1.4072,11.518585 C1.59253333,11.731135 1.86253333,11.853335 2.1492,11.853335 L15.8892,11.853335 L10.2098667,6.787235 C10.0125333,6.611735 9.96186667,6.328985 10.0852,6.098235 L10.4698667,5.383885 L8.98653333,5.361785 C8.78453333,5.359185 8.59853333,5.255185 8.4932,5.086835 C8.38786667,4.917835 8.3792,4.709185 8.46986667,4.533035 L9.76253333,2.004535 Z M17.3898667,12.999935 L2.1492,12.999935 C1.5172,12.999935 0.9192,12.730185 0.509866667,12.259585 C0.1012,11.789635 -0.0741333333,11.171485 0.0285333333,10.562435 L0.787866667,6.096285 C1.02653333,4.688385 2.02986667,3.512535 3.40586667,3.026985 L10.7452,0.438685 C10.9712,0.358735 11.2238667,0.421135 11.3838667,0.596635 C11.5438667,0.771485 11.5785333,1.023685 11.4712,1.233635 L9.9392,4.229485 L11.4425333,4.252235 C11.6465333,4.255485 11.8338667,4.361435 11.9392,4.532385 C12.0432,4.703335 12.0492,4.915235 11.9545333,5.091385 L11.3372,6.239935 L17.6485333,11.868285 C17.6552,11.874135 17.6612,11.879985 17.6672,11.885835 L17.7978667,12.012585 C17.7992,12.014535 17.8012,12.015835 17.8025333,12.017785 L17.8045333,12.019735 C17.9738667,12.183535 18.0252,12.430535 17.9338667,12.645035 C17.8432,12.859535 17.6285333,12.999935 17.3898667,12.999935 Z" id="Fill-39" fill="#000000" mask="url(#mask-6)"></path>
                    </g>
                    <path d="M16.2495805,30.7929159 L16.9970283,32.1747809 L17.7537364,30.7747511 L17.1187366,26.7045059 C17.0949241,26.5524604 17.1299813,26.3977238 17.2159709,26.2719162 L17.6988354,25.5661828 L16.9983512,24.5953789 L16.3011742,25.5581096 L16.7899918,26.2719162 C16.8759814,26.3977238 16.9110387,26.5524604 16.8872262,26.7045059 L16.2495805,30.7929159 Z M16.9963668,34 C16.7840387,34 16.5882471,33.8815929 16.4850596,33.6925451 L15.1310547,31.1871578 C15.0682162,31.0714417 15.0457266,30.9382337 15.0655703,30.8077168 L15.6979244,26.7542907 L15.1045964,25.887093 C14.9822266,25.7088096 14.9663516,25.4773774 15.0616016,25.2829475 C15.0768151,25.2520002 15.094013,25.2230712 15.1138568,25.1954877 L16.5082106,23.2713718 C16.5789867,23.1603651 16.6854814,23.0729053 16.8144658,23.0298482 C17.0545751,22.9504616 17.317174,23.0325392 17.4666636,23.239079 L18.8868143,25.2055793 C18.9900018,25.348206 19.0243976,25.5298533 18.9827257,25.7014091 C18.9648664,25.7707042 18.9357622,25.8373082 18.8954133,25.8965118 L18.3080384,26.7542907 L18.9370851,30.7888793 C18.9423768,30.8198266 18.9443612,30.8507739 18.9443612,30.882394 C18.9443612,30.9819636 18.9198872,31.0808605 18.8729237,31.1689931 L17.507674,33.6925451 C17.405148,33.8815929 17.2093563,34 16.9963668,34 Z" id="Fill-42" fill="#555555"></path>
                </g>
            </g>
        </g>
    </g>
</svg>