<?xml version="1.0" encoding="UTF-8"?>
<svg width="91px" height="91px" viewBox="0 0 91 91" version="1.1" xmlns="http://www.w3.org/2000/svg" xmlns:xlink="http://www.w3.org/1999/xlink">
    <!-- Generator: Sketch 51.3 (57544) - http://www.bohemiancoding.com/sketch -->
    <title>Group 8</title>
    <desc>Created with Sketch.</desc>
    <defs>
        <polygon id="path-1" points="0 0 37 0 37 33 0 33"></polygon>
    </defs>
    <g id="Welcome" stroke="none" stroke-width="1" fill="none" fill-rule="evenodd">
        <g id="Stocktaking" transform="translate(-783.000000, -2079.000000)">
            <g id="Group-8" transform="translate(784.000000, 2080.000000)">
                <circle id="Oval-Copy-2" stroke="#D1C2A1" stroke-width="2" cx="44.5" cy="44.5" r="44.5"></circle>
                <g id="Group-3" transform="translate(27.000000, 29.000000)">
                    <mask id="mask-2" fill="white">
                        <use xlink:href="#path-1"></use>
                    </mask>
                    <g id="Clip-2"></g>
                    <path d="M33.9159578,16.5102361 L33.9159578,13.5851184 C34.6511215,13.3322264 35.2744918,13.0516367 35.7641959,12.7445535 L35.7641959,15.274678 C35.7641959,15.6178886 35.1153076,16.0658687 33.9159578,16.5102361 Z M33.9074518,24.4919899 C33.8406187,24.9050469 32.8928044,25.4529796 31.2086111,25.9696019 C29.0298532,26.6379593 25.614076,27.2497172 21.288154,27.4411926 C21.064567,27.4496223 20.8458406,27.458052 20.6198233,27.4640733 C20.4363362,27.4712988 20.2492036,27.47732 20.062071,27.4833412 C19.5504943,27.491771 19.0316267,27.5002007 18.4993924,27.5002007 C17.9671582,27.5002007 17.4458603,27.491771 16.9367138,27.4797285 C16.7507964,27.47732 16.5660941,27.4712988 16.382607,27.4640733 C16.1578049,27.4544393 15.9342179,27.4472138 15.711846,27.4387841 C11.3847089,27.2497172 7.9701468,26.6379593 5.79017373,25.9696019 C4.1582318,25.4722476 3.21527801,24.9399701 3.09862393,24.5317301 C3.28211107,24.5931467 3.47167395,24.6569719 3.66731256,24.71598 C3.68797005,24.7220012 3.70741239,24.7280225 3.72806989,24.7340437 C3.89332983,24.7846221 4.06466551,24.832792 4.23964662,24.8809619 C4.30526454,24.8990257 4.37209761,24.9194979 4.43893067,24.9351531 C4.53735755,24.9616465 4.63699957,24.98814 4.73907189,25.0122249 C6.98466288,25.5818341 9.85240895,25.9888698 12.9473874,26.169507 L12.9510329,26.169507 C13.9085684,26.2236981 14.883116,26.2586213 15.8710302,26.271868 C16.1335019,26.276685 16.3959736,26.276685 16.6511544,26.276685 C16.98775,26.276685 17.3377122,26.2742765 17.6888896,26.2682553 C18.5905284,26.2526001 19.4788006,26.2200854 20.3464153,26.169507 L20.3512759,26.169507 L20.3573516,26.169507 C21.4145292,26.1032734 22.4376827,26.014159 23.4231666,25.9033682 L23.4353181,25.9033682 C23.4474695,25.9033682 23.459621,25.897347 23.4705573,25.897347 C24.5666196,25.7721052 25.6067851,25.6179615 26.5703964,25.4397329 C26.7684653,25.4024012 26.9641039,25.367478 27.1560971,25.3277378 C27.2022727,25.3193081 27.2435876,25.3096741 27.2861178,25.3012444 C29.1076226,24.9315403 30.6824526,24.4510455 31.7663634,23.8573514 C31.8234753,23.8236324 31.8805872,23.7911178 31.9352688,23.7586031 C32.0057473,23.7200671 32.0701501,23.6779185 32.1345529,23.6357698 C32.194095,23.5972339 32.2609281,23.5611064 32.3156097,23.5225705 C33.5344018,23.952487 33.8685671,24.3378462 33.9074518,24.4919899 Z M32.0677198,29.956866 L32.0677198,27.0329526 C32.7992381,26.7788563 33.4226083,26.4970624 33.9159578,26.1911834 L33.9159578,28.7176951 C33.9159578,29.0645185 33.2658544,29.5112944 32.0677198,29.956866 Z M3.08282702,28.7213079 L3.08282702,26.1911834 C3.5773917,26.4970624 4.19954678,26.7788563 4.93106506,27.0329526 L4.93106506,29.956866 C3.73414562,29.5112944 3.08282702,29.0645185 3.08282702,28.7213079 Z M1.23458898,21.9979929 L1.23458898,19.4678685 C1.72429308,19.7749516 2.34766331,20.0555414 3.08282702,20.3084334 L3.08282702,23.2215086 L2.7304345,23.0866329 L2.72435876,23.0926541 C1.75467175,22.6964566 1.23458898,22.3050761 1.23458898,21.9979929 Z M4.22141942,16.4006496 C4.22992545,16.4090793 4.24329206,16.417509 4.25422838,16.427143 C5.09754015,17.2713207 6.84370587,17.9360654 9.02124865,18.4322155 C9.0722848,18.4418494 9.12332096,18.4526877 9.17435712,18.4647301 C9.33475648,18.5008576 9.49637098,18.536985 9.66284607,18.5694997 C11.659332,18.9897821 14.0470951,19.2944568 16.6450787,19.446192 L16.6487241,19.446192 L16.6511544,19.446192 C17.4883904,19.4955662 18.3402082,19.5268766 19.2138987,19.5425318 C19.5991001,19.5509616 19.9782259,19.5569828 20.3476305,19.5569828 C20.7765772,19.5569828 21.2128149,19.5509616 21.6563434,19.5389191 C22.4632008,19.5244681 23.2579067,19.4919534 24.0404611,19.446192 L24.0489671,19.446192 C24.0550429,19.446192 24.0586883,19.4437835 24.064764,19.4437835 C26.6724687,19.2920483 29.1161286,18.9849651 31.1855233,18.541802 C30.7371342,18.7718133 30.12227,19.0138671 29.3603731,19.2462869 C27.0576702,19.9531803 23.3782062,20.5962486 18.7047522,20.7443711 C18.5662255,20.7479838 18.4276988,20.754005 18.2867418,20.7564135 C18.1348484,20.7600263 17.98174,20.7624348 17.8286315,20.7660475 C17.4397846,20.7708645 17.0521528,20.7768857 16.6511544,20.7768857 C16.1152747,20.7768857 15.5964071,20.7708645 15.0884758,20.7600263 C14.8989129,20.754005 14.7154258,20.7479838 14.5282932,20.7419626 C14.3022759,20.7359413 14.0835495,20.7263073 13.8623929,20.7178776 C9.53647082,20.5264022 6.12069362,19.9146444 3.93829026,19.2462869 C2.24316069,18.7272561 1.29534632,18.1757107 1.23944957,17.7602452 C1.30992808,17.5302339 1.9332983,16.9546035 4.22141942,16.4006496 Z M1.23458898,7.9432179 L1.23458898,5.41309346 C1.72429308,5.72017662 2.34766331,5.99956209 3.08282702,6.25124986 L3.08282702,9.17877605 C1.88469244,8.73440864 1.23458898,8.28642849 1.23458898,7.9432179 Z M16.6511544,1.22351567 C26.8195015,1.22351567 31.9632172,2.80830566 32.0592138,3.71751268 C31.9826595,4.13177389 31.0348452,4.67850235 29.3603731,5.19151188 C27.1779697,5.85986936 23.7634077,6.47283144 19.4387008,6.65948984 C19.2163289,6.66912382 18.9976025,6.67755355 18.7715853,6.68718753 C18.5832375,6.69320877 18.3997504,6.69923001 18.213833,6.70163851 C17.7022562,6.71368098 17.1833886,6.72331497 16.6511544,6.72331497 C16.1152747,6.72331497 15.5964071,6.71368098 15.0884758,6.70163851 C14.8989129,6.69923001 14.7154258,6.69320877 14.5282932,6.68718753 C14.3022759,6.67755355 14.0835495,6.66912382 13.8623929,6.65948984 C9.53647082,6.47283144 6.12069362,5.85986936 3.93829026,5.19151188 C2.26503333,4.67850235 1.31600381,4.13177389 1.24309501,3.71751268 C1.3390916,2.80830566 6.48280732,1.22351567 16.6511544,1.22351567 Z M35.7605504,11.040543 C35.7022234,11.4548042 34.7531939,12.0075539 33.0617097,12.5265847 C30.8780912,13.1925337 27.4635292,13.8030873 23.1376071,13.9945626 C22.9164505,14.0029924 22.6940786,14.0126264 22.4717068,14.0210561 C22.2845742,14.0270773 22.1010871,14.0306901 21.9115242,14.0367113 C21.4023777,14.0487538 20.8847253,14.0535708 20.3476305,14.0535708 C19.8153962,14.0535708 19.2977438,14.0487538 18.786167,14.0367113 C18.5990345,14.0306901 18.4155473,14.0246688 18.2284147,14.0186476 C18.0023975,14.0126264 17.7836711,14.0029924 17.5600841,13.9945626 C13.2365923,13.8030873 9.82203028,13.1925337 7.63841177,12.5241762 C5.95907912,12.0111667 5.01369503,11.4620297 4.94078623,11.0489727 C4.94443167,11.0381345 4.94443167,11.0285005 4.9529377,11.0140496 C4.99546783,11.0224793 5.04042826,11.030909 5.08295839,11.0429515 C5.32355742,11.0995511 5.57266248,11.1537423 5.82298269,11.2079334 C7.04906565,11.4680509 8.40638445,11.682407 9.85240895,11.8461847 C9.85848468,11.8461847 9.86091497,11.8497975 9.86699071,11.8497975 L9.87063615,11.8497975 C10.8549049,11.959384 11.8780584,12.0460898 12.9267299,12.1087107 C12.935236,12.1087107 12.9413117,12.114732 12.9510329,12.114732 C12.9534632,12.114732 12.9571086,12.1111192 12.9619692,12.1111192 C13.7177904,12.1532679 14.4833328,12.1857826 15.2573812,12.2050505 C15.7300732,12.2158888 16.1966895,12.22191 16.6511544,12.22191 C16.9731682,12.22191 17.3049033,12.2195015 17.6414989,12.2134803 C22.1217446,12.1448382 26.2739006,11.6161734 29.1623042,10.7984892 C29.2971855,10.7599533 29.4272061,10.7214174 29.5535814,10.6816772 C29.6313508,10.6587965 29.7127656,10.6383243 29.7893198,10.6142393 C30.0116917,10.5419845 30.2255575,10.4673211 30.4321324,10.3926577 C30.4685868,10.3818195 30.5013958,10.3661643 30.5378502,10.3541218 C30.7128313,10.2878882 30.8805215,10.2192461 31.042136,10.1518082 C31.0858813,10.1301317 31.1344872,10.1096595 31.1794476,10.0915958 C31.3519984,10.0133197 31.5160432,9.93624786 31.6703668,9.85556326 C31.7359848,9.81943583 31.7967421,9.78210415 31.8635752,9.74597672 C31.9352688,9.70382805 32.0106079,9.65927088 32.0798713,9.61712221 C32.118756,9.59303726 32.1649315,9.5689523 32.2001708,9.54486735 C34.9609839,10.1373572 35.6900719,10.7864467 35.7605504,11.040543 Z M32.4140366,16.9871182 C32.1066045,17.0714155 31.7809452,17.1521001 31.4504253,17.229172 C31.2973168,17.2652994 31.1405629,17.2978141 30.9801636,17.3339415 C30.9327728,17.3423713 30.8805215,17.355618 30.8331308,17.3628435 L30.8331308,14.3823304 C31.4905251,14.2534759 32.1066045,14.1149874 32.6837991,13.9584352 L32.6837991,16.9136591 C32.5938783,16.9365398 32.5039574,16.9606247 32.4140366,16.9871182 Z M25.3674012,18.133562 C25.1353082,18.1516257 24.8983546,18.1636682 24.6662616,18.1817319 L24.6662616,15.1373937 C25.2920621,15.0964493 25.9105718,15.0482794 26.5144997,14.988067 L26.5144997,18.0203627 C26.1572465,18.0588987 25.8024237,18.0938218 25.431804,18.1275408 C25.4099314,18.1275408 25.3892739,18.1299493 25.3674012,18.133562 Z M29.5402148,17.6121228 C29.2704522,17.6554757 28.9994745,17.7036456 28.7199908,17.74459 C28.5571612,17.7698792 28.3919012,17.7927599 28.2278564,17.8168449 C28.0723176,17.8385213 27.909488,17.856585 27.7503038,17.8770573 L27.7503038,14.856804 C28.3846103,14.7821406 29.00312,14.6954348 29.6009721,14.6002992 L29.6009721,17.598876 C29.5815298,17.6024888 29.5633026,17.60851 29.5402148,17.6121228 Z M21.5737134,15.265044 C22.1946534,15.2542057 22.8143781,15.236142 23.4316726,15.2060358 L23.4316726,18.255191 C22.622385,18.2949312 21.7997307,18.3166077 20.9661401,18.3238332 L20.9661401,15.274678 C21.1374758,15.2722695 21.3063812,15.2722695 21.4740714,15.2686567 L21.5737134,15.265044 Z M6.78416368,13.5851184 L6.78416368,16.4897639 C5.81447667,16.1200598 5.187461,15.7395176 4.98574666,15.4035325 L4.94443167,15.3336861 C4.94078623,15.3132139 4.9347105,15.2951502 4.93106506,15.274678 L4.93106506,12.7445535 C5.42562974,13.0516367 6.04899997,13.3322264 6.78416368,13.5851184 Z M9.86699071,14.3823304 L9.86699071,17.3616392 C9.18286315,17.214721 8.5667838,17.0593731 8.01510723,16.9016166 L8.01510723,13.9584352 C8.59351703,14.1149874 9.21081152,14.2534759 9.86699071,14.3823304 Z M11.8063647,17.7180966 C11.5621203,17.6807649 11.3336727,17.6386162 11.0979343,17.5964675 L11.0979343,14.6002992 C11.6982167,14.6954348 12.3155112,14.7821406 12.9510329,14.856804 L12.9510329,17.8794658 C12.5719071,17.8325001 12.2037177,17.7783089 11.8476797,17.7241178 C11.8343131,17.7217093 11.8209465,17.7180966 11.8063647,17.7180966 Z M15.8807514,18.1757107 C15.7956912,18.1660767 15.7142763,18.1600555 15.6304312,18.1552385 C15.2355086,18.1251323 14.8515222,18.0914133 14.4736116,18.0528774 C14.3934119,18.0468562 14.310782,18.0384264 14.2330126,18.0299967 C14.2147854,18.0299967 14.2002036,18.026384 14.1819764,18.0227712 L14.1819764,14.988067 C14.7907649,15.0482794 15.4080594,15.0964493 16.0338599,15.1373937 L16.0338599,18.1841404 C15.9828237,18.1817319 15.9317876,18.1781192 15.8807514,18.1757107 Z M9.24969621,7.52293545 L9.24969621,10.5419845 C9.1269664,10.5275335 9.00059115,10.515491 8.87907649,10.4974273 C8.8013071,10.4877933 8.72596801,10.4769551 8.64819863,10.4637084 C8.29216066,10.4143342 7.94341358,10.3601431 7.60317252,10.3035434 C7.53390916,10.2915009 7.46707609,10.2794585 7.40145818,10.267416 L7.40145818,7.26643068 C7.99688003,7.36156625 8.61417452,7.44827209 9.24969621,7.52293545 Z M10.4842852,10.6889027 L10.4842852,7.65540269 C11.0894282,7.71320658 11.7079379,7.76378499 12.3325232,7.80593366 L12.3325232,10.8466591 C11.7079379,10.802102 11.0869979,10.7503193 10.4842852,10.6889027 Z M22.8180236,7.65540269 L22.8180236,10.6889027 C22.2213866,10.7479108 21.6040921,10.8057147 20.9661401,10.8490676 L20.9661401,7.80593366 C21.5919406,7.76378499 22.2092351,7.71320658 22.8180236,7.65540269 Z M27.1317941,10.0253622 L27.1317941,7.04846185 C27.7891885,6.91960734 28.406483,6.77871036 28.9848928,6.62697515 L28.9848928,9.57256505 C28.4307859,9.7303215 27.8074157,9.88205671 27.1317941,10.0253622 Z M24.0489671,10.5419845 L24.0489671,7.52293545 C24.6844888,7.44827209 25.3017833,7.36156625 25.9008506,7.26643068 L25.9008506,10.262599 C25.3139348,10.3625515 24.7002857,10.4588914 24.0489671,10.5419845 Z M31.9255476,8.23825858 L31.9085356,8.23464584 L31.6825183,8.40805751 C31.3580742,8.65854104 30.8562186,8.9126373 30.2158363,9.16071233 L30.2158363,6.25124986 C30.951,5.99956209 31.5731551,5.72017662 32.0677198,5.41309346 L32.0677198,7.9408094 C32.0677198,8.03233223 32.0166836,8.13348903 31.9255476,8.23825858 Z M17.8735919,7.93117542 C18.4933167,7.91913294 19.1142566,7.90106923 19.7351966,7.87457578 L19.7351966,10.9213225 C19.6294788,10.9273437 19.5261913,10.933365 19.4204736,10.9393862 C19.415613,10.9393862 19.407107,10.9393862 19.3973858,10.9417947 C18.9818056,10.9598584 18.5601498,10.9719009 18.1324181,10.9803306 C18.0668002,10.9839434 17.9999672,10.9839434 17.9343492,10.9875561 C17.7144077,10.9899646 17.4883904,10.9923731 17.2648034,10.9923731 L17.2648034,7.9408094 C17.4361391,7.9408094 17.6062596,7.93719666 17.7739499,7.93358391 L17.8735919,7.93117542 Z M15.5247135,7.93358391 C15.6936188,7.93719666 15.8625242,7.9408094 16.0338599,7.9408094 L16.0338599,10.9923731 C15.2026996,10.9839434 14.377615,10.9634712 13.5683274,10.923731 L13.5683274,7.87457578 C14.1844067,7.90106923 14.8053466,7.92274568 15.4262866,7.93358391 L15.5247135,7.93358391 Z M4.31863115,9.57858629 L4.31863115,6.62697515 C4.89339551,6.77871036 5.5131203,6.91960734 6.16686919,7.04846185 L6.16686919,10.0325877 C6.0915301,10.0133197 6.01376071,9.99886874 5.93720648,9.98441776 C5.60911688,9.9121629 5.28953332,9.83749954 4.98331637,9.75681495 C4.75122336,9.7002153 4.52885152,9.63759442 4.31863115,9.57858629 Z M18.7011068,18.3129949 C18.2381359,18.3009525 17.7836711,18.2828887 17.3377122,18.2624165 C17.3134093,18.2588038 17.2891064,18.2588038 17.2648034,18.2588038 L17.2648034,15.2060358 C17.8857434,15.236142 18.5054682,15.2542057 19.1264081,15.265044 C19.1592171,15.265044 19.192026,15.265044 19.2224047,15.2686567 C19.3937404,15.2722695 19.5626457,15.2722695 19.7315511,15.274678 L19.7315511,18.3274459 C19.4338402,18.3238332 19.1288384,18.3214247 18.8372032,18.3166077 C18.7922428,18.3129949 18.7472823,18.3129949 18.7011068,18.3129949 Z M27.1317941,21.1020326 C27.7891885,20.9767909 28.406483,20.8334854 28.9848928,20.6817502 L28.9848928,23.6333613 C28.4332162,23.7911178 27.8159217,23.9440572 27.1317941,24.0873627 L27.1317941,21.1020326 Z M24.0489671,24.6027807 L24.0489671,21.580119 C24.6844888,21.5054556 25.3017833,21.4187498 25.9008506,21.3200015 L25.9008506,24.322191 C25.3200105,24.4245521 24.702716,24.5196876 24.0489671,24.6027807 Z M21.3780748,24.8773492 C21.2431935,24.8869832 21.1046668,24.8990257 20.9661401,24.9074554 L20.9661401,21.8607087 C21.5919406,21.81856 22.2092351,21.7715944 22.8180236,21.711382 L22.8180236,24.7460862 C22.4352524,24.7846221 22.0464055,24.823158 21.6466222,24.856877 C21.5567014,24.8628982 21.4655654,24.871328 21.3780748,24.8773492 Z M9.24969621,21.580119 L9.24969621,24.6027807 C8.59959276,24.5160749 7.98229827,24.4245521 7.40145818,24.322191 L7.40145818,21.3200015 C7.99688003,21.4187498 8.61417452,21.5054556 9.24969621,21.580119 Z M10.8038688,24.7786009 C10.7406811,24.7737839 10.6774935,24.7665584 10.6167362,24.7617414 C10.5717758,24.7557202 10.5256002,24.7521074 10.4842852,24.7460862 L10.4842852,21.711382 C11.0894282,21.7715944 11.7079379,21.81856 12.3325232,21.8607087 L12.3325232,24.9074554 C11.8148708,24.8689195 11.303294,24.8267708 10.8038688,24.7786009 Z M12.3325232,28.4346969 C12.9413117,28.4912966 13.5586062,28.541875 14.1819764,28.5840236 L14.1819764,31.6295661 C13.5428093,31.5862132 12.9267299,31.532022 12.3325232,31.4681969 L12.3325232,28.4346969 Z M9.24969621,28.0445207 C9.84511807,28.1420647 10.4636277,28.2287706 11.0979343,28.3034339 L11.0979343,31.3260957 C10.4490459,31.2405941 9.83053631,31.1466628 9.24969621,31.0467102 L9.24969621,28.0445207 Z M8.01510723,27.8265518 L8.01510723,30.8106777 C7.33462511,30.6661679 6.71490033,30.5132285 6.16686919,30.3566763 L6.16686919,27.4050651 C6.74163355,27.5568004 7.36135834,27.7001058 8.01510723,27.8265518 Z M28.9848928,27.8265518 C29.6374265,27.6976973 30.2583664,27.5568004 30.8331308,27.4050651 L30.8331308,30.3566763 C30.2850997,30.5132285 29.6641597,30.6661679 28.9848928,30.8106777 L28.9848928,27.8265518 Z M25.9008506,28.3034339 C26.5363723,28.2251578 27.1536668,28.1396562 27.7503038,28.0445207 L27.7503038,31.0467102 C27.1682485,31.1466628 26.5509541,31.2405941 25.9008506,31.3260957 L25.9008506,28.3034339 Z M24.6662616,28.4346969 L24.6662616,31.4681969 C24.0732701,31.532022 23.4559756,31.5862132 22.8180236,31.6295661 L22.8180236,28.5804109 C23.4401787,28.541875 24.0586883,28.4912966 24.6662616,28.4346969 Z M19.7218299,28.7116739 C20.3464153,28.7008357 20.9661401,28.6791592 21.5834346,28.6526658 L21.5834346,31.7030252 C20.791159,31.7415611 19.9685047,31.7668503 19.1166869,31.7740758 L19.1166869,28.7176951 C19.2855923,28.7176951 19.4544977,28.7152866 19.6258334,28.7116739 L19.7218299,28.7116739 Z M17.3741666,28.7116739 C17.5455023,28.7152866 17.7144077,28.7176951 17.8820979,28.7213079 L17.8820979,31.7740758 C17.0302801,31.7668503 16.2076259,31.7439696 15.4165654,31.7054337 L15.4165654,28.6526658 C16.0338599,28.682772 16.6535847,28.7008357 17.2769549,28.7116739 L17.3741666,28.7116739 Z M4.3745279,23.651425 C4.3563007,23.6454038 4.33564321,23.6381783 4.31863115,23.6333613 L4.31863115,20.6817502 C4.89339551,20.8370981 5.5131203,20.9767909 6.16686919,21.1056454 L6.16686919,24.0873627 C5.60061086,23.9669379 5.07931295,23.8416962 4.60419061,23.7140459 C4.52885152,23.6935737 4.44986699,23.6718972 4.3745279,23.651425 Z M15.5162074,25.0447396 C15.2330783,25.0387184 14.9499491,25.0326971 14.6728957,25.0242674 L14.5671779,25.0206547 C14.2330126,25.0086122 13.8988473,24.9965697 13.5683274,24.978506 L13.5683274,21.9293508 C14.1844067,21.959457 14.8053466,21.9775207 15.4262866,21.9883589 L15.5247135,21.9883589 C15.6936188,21.9919717 15.8625242,21.9955844 16.0338599,21.9979929 L16.0338599,25.0507609 C15.9135604,25.0507609 15.7920457,25.0507609 15.6753916,25.0471481 C15.6219252,25.0471481 15.5660284,25.0447396 15.5162074,25.0447396 Z M18.2077572,25.0351056 C18.1178364,25.0387184 18.0267004,25.0387184 17.9367795,25.0411269 C17.716838,25.0471481 17.4908207,25.0471481 17.2684489,25.0507609 L17.2684489,21.9979929 C17.4361391,21.9955844 17.6062596,21.9919717 17.7763802,21.9883589 L17.8735919,21.9859504 C18.4933167,21.9775207 19.1166869,21.9558443 19.7351966,21.9293508 L19.7351966,24.978506 C19.6027456,24.98814 19.4690794,24.9941612 19.3366285,25.0001825 C18.9635784,25.0146334 18.5905284,25.0266759 18.2077572,25.0351056 Z M31.9984564,22.197898 L31.7906664,22.3797394 C31.4650071,22.6627377 30.9266971,22.9469401 30.2158363,23.2215086 L30.2158363,20.3084334 C30.951,20.0555414 31.5731551,19.7749516 32.0677198,19.4678685 L32.0677198,21.9979929 C32.0677198,22.0606138 32.0434169,22.1268474 31.9984564,22.197898 Z M36.9939243,10.9983943 C36.9295215,9.95431157 35.6779205,9.13662738 33.1662124,8.51282706 C33.2512726,8.33098566 33.2986633,8.13951027 33.2986633,7.9432179 L33.2986633,3.66693428 L33.2901573,3.66693428 C33.0677855,0.103565303 18.3402082,0 16.6511544,0 C14.9584551,0 0.232093008,0.103565303 0.00972117311,3.66693428 L0,3.66693428 L0,7.9432179 C0.00243029328,9.10411269 1.51407271,10.0133197 3.76452429,10.6913112 C3.73414562,10.792468 3.71470327,10.894829 3.70984269,10.9983943 L3.70012151,10.9983943 L3.70012151,15.2686567 C1.27590397,15.8900485 0.0668330651,16.694486 0.00607573319,17.7217093 L0,17.7217093 L0,22.0016057 C0.00243029328,22.8096559 0.73759401,23.4924643 1.94301948,24.0656862 C1.8968439,24.1885195 1.86646524,24.3161698 1.85795921,24.4450243 L1.84823804,24.4450243 L1.84823804,28.7237164 C1.85431377,30.7564865 6.47308614,32.0173339 11.6046504,32.6074152 C11.6411048,32.615845 11.6763441,32.630296 11.7152287,32.630296 C11.7285954,32.630296 11.7371014,32.6242747 11.7492528,32.620662 C12.7395974,32.7314528 13.7457388,32.8181586 14.7385136,32.8807795 C14.7591711,32.883188 14.7773983,32.892822 14.7992709,32.892822 C14.8114224,32.892822 14.8211436,32.8868007 14.8320799,32.8868007 C16.0934021,32.9614641 17.3377122,33 18.4993924,33 C19.6622878,33 20.9053828,32.9614641 22.1679201,32.8868007 C22.1788564,32.8868007 22.1885776,32.892822 22.2007291,32.892822 C22.2213866,32.892822 22.2396138,32.8807795 22.2602713,32.8807795 C23.2542612,32.8181586 24.2604026,32.7314528 25.2507472,32.620662 C25.2616835,32.620662 25.2714046,32.6266832 25.2835561,32.6266832 C25.3236559,32.6266832 25.3588952,32.6122322 25.3953496,32.6074152 C30.5269139,32.0149254 35.1456862,30.754078 35.151762,28.7213079 L35.151762,24.4450243 L35.1396105,24.4450243 C35.0970804,23.6959822 34.4518375,23.0685691 33.179579,22.5471299 C33.2573484,22.3713097 33.2986633,22.1894683 33.2986633,21.9979929 L33.2986633,18.002299 C35.5114454,17.3279203 36.9963546,16.427143 37,15.274678 L37,10.9983943 L36.9939243,10.9983943 Z" id="Fill-1" fill="#555555" mask="url(#mask-2)"></path>
                </g>
            </g>
        </g>
    </g>
</svg>