<?xml version="1.0" encoding="UTF-8"?>
<svg width="91px" height="91px" viewBox="0 0 91 91" version="1.1" xmlns="http://www.w3.org/2000/svg" xmlns:xlink="http://www.w3.org/1999/xlink">
    <!-- Generator: Sketch 51.3 (57544) - http://www.bohemiancoding.com/sketch -->
    <title>Group 12</title>
    <desc>Created with Sketch.</desc>
    <defs>
        <polygon id="path-1" points="0 0.031827551 0 36.2735163 35.3995125 36.2735163 35.3995125 0.031827551"></polygon>
    </defs>
    <g id="Welcome" stroke="none" stroke-width="1" fill="none" fill-rule="evenodd">
        <g id="Stocktaking" transform="translate(-563.000000, -2210.000000)">
            <g id="Group-12" transform="translate(564.000000, 2211.000000)">
                <g id="Group-11" stroke="#D1C2A1" stroke-width="2">
                    <g id="Group-5">
                        <circle id="Oval-Copy-4" cx="44.5" cy="44.5" r="44.5"></circle>
                    </g>
                </g>
                <g id="Page-1" transform="translate(26.000000, 26.000000)">
                    <g id="Group-59" transform="translate(2.000000, 4.000000)" fill="#555555">
                        <path d="M9.00325263,8.01816842 C8.77262105,8.25395789 8.77851579,8.62532632 9.00914737,8.85595789 C9.1182,8.96795789 9.27367368,9.02543158 9.42030526,9.02543158 C9.57283158,9.02543158 9.72535789,8.96795789 9.83809474,8.85006316 C10.0679895,8.61943158 10.0679895,8.2488 9.83809474,8.01816842 C9.60156842,7.78827368 9.2302,7.78827368 9.00325263,8.01816842" id="Fill-1"></path>
                        <path d="M7.32273684,23.0571895 C7.09210526,23.2878211 7.09210526,23.6621368 7.32273684,23.8920316 C7.43473684,24.0040316 7.58726316,24.0644526 7.73389474,24.0644526 C7.88642105,24.0644526 8.03894737,24.0040316 8.15094737,23.8920316 C8.38157895,23.6621368 8.38157895,23.2878211 8.15094737,23.0571895 C7.924,22.8272947 7.55263158,22.8272947 7.32273684,23.0571895" id="Fill-3"></path>
                        <path d="M7.34535789,9.69330526 C7.11472632,9.92393684 7.11472632,10.3012 7.34535789,10.5310947 C7.46325263,10.6408842 7.60988421,10.7013053 7.75651579,10.7013053 C7.90904211,10.7013053 8.06451579,10.6408842 8.18241053,10.5222526 C8.4042,10.2953053 8.4042,9.91804211 8.17725263,9.69330526 C7.94662105,9.46341053 7.56935789,9.46341053 7.34535789,9.69330526" id="Fill-5"></path>
                        <path d="M8.98888421,24.7237053 C8.76193684,24.9536 8.76193684,25.3308632 8.98888421,25.5622316 C9.10162105,25.6734947 9.25635789,25.7309684 9.40372632,25.7309684 C9.55625263,25.7309684 9.70877895,25.6734947 9.82077895,25.5622316 C10.0514105,25.3308632 10.0514105,24.9536 9.82077895,24.7237053 C9.59088421,24.4938105 9.21951579,24.4938105 8.98888421,24.7237053" id="Fill-7"></path>
                        <path d="M12.3014316,26.4276526 C12.0774316,26.6641789 12.0825895,27.0355474 12.3132211,27.2595474 C12.4311158,27.3686 12.5777474,27.4290211 12.7273263,27.4290211 C12.8798526,27.4290211 13.0331158,27.3686 13.1510105,27.2448105 C13.3750105,27.0178632 13.3750105,26.6435474 13.1392211,26.4158632 C12.9034316,26.1918632 12.5320632,26.1918632 12.3014316,26.4276526" id="Fill-9"></path>
                        <path d="M10.6643895,6.34332632 C10.4337579,6.57911579 10.4337579,6.95048421 10.6695474,7.18037895 C10.7822842,7.29311579 10.9289158,7.35353684 11.0814421,7.35353684 C11.2339684,7.35353684 11.3835474,7.29311579 11.5014421,7.17522105 C11.7320737,6.94458947 11.7320737,6.57322105 11.4962842,6.34332632 C11.2656526,6.11269474 10.8942842,6.11269474 10.6643895,6.34332632" id="Fill-11"></path>
                        <path d="M10.6582737,26.3939053 C10.4276421,26.6238 10.4276421,26.9944316 10.6582737,27.2309579 C10.7702737,27.3407474 10.9228,27.4011684 11.0694316,27.4011684 C11.2219579,27.4011684 11.3722737,27.3407474 11.4901684,27.2309579 C11.7171158,26.9944316 11.7171158,26.6238 11.4901684,26.3939053 C11.2595368,26.1632737 10.8830105,26.1632737 10.6582737,26.3939053" id="Fill-13"></path>
                        <path d="M5.68171579,11.3655684 C5.45108421,11.5962 5.45108421,11.9727263 5.68761053,12.2033579 C5.79961053,12.3153579 5.94624211,12.3728316 6.10171579,12.3728316 C6.25424211,12.3728316 6.40161053,12.3153579 6.51950526,12.1974632 C6.7494,11.9668316 6.7494,11.5962 6.51361053,11.3655684 C6.28297895,11.1356737 5.91161053,11.1356737 5.68171579,11.3655684" id="Fill-15"></path>
                        <path d="M2.31736842,18.0576421 C2.08673684,18.2882737 2.08673684,18.6589053 2.31736842,18.8895368 C2.43526316,19.0044842 2.58189474,19.0649053 2.73442105,19.0649053 C2.88989474,19.0649053 3.03652632,19.0044842 3.15442105,18.8895368 C3.38505263,18.6589053 3.38505263,18.2882737 3.15442105,18.0576421 C2.92452632,17.8277474 2.54726316,17.8277474 2.31736842,18.0576421" id="Fill-17"></path>
                        <path d="M2.36305263,14.7159158 C2.13315789,14.9487579 2.13315789,15.3201263 2.36305263,15.5514947 C2.48094737,15.6627579 2.62757895,15.7231789 2.78305263,15.7231789 C2.93042105,15.7231789 3.08294737,15.6627579 3.19494737,15.5448632 C3.42484211,15.3142316 3.42484211,14.9436 3.19494737,14.7159158 C2.96431579,14.4860211 2.58778947,14.4860211 2.36305263,14.7159158" id="Fill-19"></path>
                        <path d="M0.702284211,16.3881789 C0.472389474,16.6247053 0.472389474,16.9960737 0.702284211,17.2259684 C0.820178947,17.3379684 0.966810526,17.3961789 1.12007368,17.3961789 C1.26670526,17.3961789 1.42217895,17.3379684 1.54007368,17.2200737 C1.76702105,16.9894421 1.76186316,16.6180737 1.53123158,16.3881789 C1.30428421,16.1582842 0.932915789,16.1582842 0.702284211,16.3881789" id="Fill-21"></path>
                        <path d="M12.3252316,4.67069474 C12.0946,4.90648421 12.0946,5.27785263 12.3252316,5.50848421 C12.4431263,5.61753684 12.5927053,5.67795789 12.7393368,5.67795789 C12.8918632,5.67795789 13.0443895,5.61753684 13.1622842,5.50258947 C13.3870211,5.27195789 13.3870211,4.89837895 13.1563895,4.67069474 C12.9264947,4.4408 12.5492316,4.4408 12.3252316,4.67069474" id="Fill-23"></path>
                        <path d="M3.98351579,19.7241579 C3.75656842,19.9540526 3.75656842,20.3254211 3.98351579,20.5567895 C4.10141053,20.6739474 4.25172632,20.7255263 4.40425263,20.7255263 C4.55088421,20.7255263 4.70341053,20.6739474 4.82130526,20.5567895 C5.0512,20.3254211 5.0512,19.9540526 4.82130526,19.7241579 C4.58551579,19.4964737 4.21341053,19.4964737 3.98351579,19.7241579" id="Fill-25"></path>
                        <path d="M5.65297895,21.3935474 C5.42234737,21.6234421 5.42234737,21.9948105 5.65297895,22.2254421 C5.77087368,22.3433368 5.91750526,22.3949158 6.07003158,22.3949158 C6.21961053,22.3949158 6.37213684,22.3433368 6.48487368,22.2254421 C6.71476842,21.9948105 6.71476842,21.6234421 6.48487368,21.3935474 C6.25424211,21.1636526 5.88287368,21.1636526 5.65297895,21.3935474" id="Fill-27"></path>
                        <path d="M4.02094737,13.0407789 C3.79105263,13.2773053 3.79621053,13.6486737 4.02684211,13.8785684 C4.13884211,13.9913053 4.29136842,14.0487789 4.438,14.0487789 C4.59052632,14.0487789 4.746,13.9913053 4.85873684,13.8726737 C5.08568421,13.6420421 5.08568421,13.2714105 4.85284211,13.0407789 C4.62221053,12.8108842 4.25157895,12.8108842 4.02094737,13.0407789" id="Fill-29"></path>
                        <path d="M15.5974737,23.0485684 C15.3668421,23.2784632 15.3727368,23.6564632 15.6092632,23.8804632 C15.7212632,23.9932 15.8678947,24.0469895 16.0145263,24.0469895 C16.17,24.0469895 16.3225263,23.9865684 16.4404211,23.8694105 C16.6651579,23.6387789 16.6651579,23.2622526 16.4293684,23.0367789 C16.1987368,22.8098316 15.8222105,22.8127789 15.5974737,23.0485684" id="Fill-31"></path>
                        <path d="M23.8207053,14.6044316 C23.5908105,14.8343263 23.5959684,15.2108526 23.8324947,15.4333789 C23.9444947,15.5446421 24.0911263,15.6050632 24.2436526,15.6050632 C24.3991263,15.6050632 24.5516526,15.5446421 24.6643895,15.4274842 C24.8942842,15.1939053 24.8883895,14.8144316 24.6526,14.5919053 C24.4219684,14.3620105 24.0506,14.3679053 23.8207053,14.6044316" id="Fill-33"></path>
                        <path d="M20.5308526,17.9806421 C20.3009579,18.2156947 20.3061158,18.5870632 20.5426421,18.8118 C20.6546421,18.9238 20.8012737,18.9812737 20.9508526,18.9812737 C21.1033789,18.9812737 21.2559053,18.9238 21.3745368,18.8066421 C21.6044316,18.5701158 21.5978,18.1935895 21.3627474,17.9681158 C21.1321158,17.7382211 20.7555895,17.7441158 20.5308526,17.9806421" id="Fill-35"></path>
                        <path d="M22.1772526,16.2939368 C21.9473579,16.5238316 21.9525158,16.8944632 22.1890421,17.1250947 C22.3010421,17.2370947 22.4476737,17.2916211 22.5943053,17.2916211 C22.7527263,17.2916211 22.9082,17.2312 23.0179895,17.1133053 C23.2478842,16.8775158 23.2419895,16.5068842 23.0062,16.2814105 C22.7755684,16.0544632 22.4019895,16.0574105 22.1772526,16.2939368" id="Fill-37"></path>
                        <path d="M25.4642316,12.9116105 C25.2343368,13.1474 25.2424421,13.5187684 25.4760211,13.7486632 C25.5880211,13.8621368 25.7376,13.9129789 25.8901263,13.9129789 C26.0426526,13.9129789 26.1951789,13.8555053 26.3079158,13.7383474 C26.5378105,13.5010842 26.5319158,13.1304526 26.2961263,12.8998211 C26.0654947,12.6750842 25.6889684,12.6809789 25.4642316,12.9116105" id="Fill-39"></path>
                        <path d="M27.8532211,6.80923158 C27.8532211,7.13491579 27.5886947,7.39944211 27.2630105,7.39944211 C26.9380632,7.39944211 26.6728,7.13491579 26.6728,6.80923158 C26.6728,6.48428421 26.9380632,6.21975789 27.2630105,6.21975789 C27.5886947,6.21975789 27.8532211,6.48428421 27.8532211,6.80923158" id="Fill-41"></path>
                        <path d="M13.9543158,24.7360105 C13.7236842,24.9710632 13.7295789,25.3431684 13.9653684,25.5730632 C14.0773684,25.6858 14.2247368,25.7366421 14.3713684,25.7366421 C14.5238947,25.7366421 14.6793684,25.6791684 14.7943158,25.5620105 C15.0190526,25.3254842 15.0190526,24.9541158 14.7825263,24.7301158 C14.5467368,24.4994842 14.1753684,24.5053789 13.9543158,24.7360105" id="Fill-43"></path>
                        <path d="M27.8532211,11.5271579 C27.8532211,11.8521053 27.5886947,12.1144211 27.2630105,12.1144211 C26.9380632,12.1144211 26.6728,11.8521053 26.6728,11.5271579 C26.6728,11.2014737 26.9380632,10.9369474 27.2630105,10.9369474 C27.5886947,10.9369474 27.8532211,11.2014737 27.8532211,11.5271579" id="Fill-45"></path>
                        <path d="M27.8532211,9.16697895 C27.8532211,9.49487368 27.5886947,9.75645263 27.2630105,9.75645263 C26.9380632,9.75645263 26.6728,9.49487368 26.6728,9.16697895 C26.6728,8.84129474 26.9380632,8.57971579 27.2630105,8.57971579 C27.5886947,8.57971579 27.8532211,8.84129474 27.8532211,9.16697895" id="Fill-47"></path>
                        <path d="M17.2438,21.3597263 C17.0139053,21.5947789 17.0190632,21.9668842 17.2555895,22.1967789 C17.3675895,22.3065684 17.5142211,22.3603579 17.6608526,22.3603579 C17.8133789,22.3603579 17.9688526,22.2999368 18.0845368,22.1827789 C18.3144316,21.9492 18.3085368,21.5748842 18.0727474,21.3472 C17.8369579,21.1232 17.4655895,21.1290947 17.2438,21.3597263" id="Fill-49"></path>
                        <path d="M21.0259368,0.914494737 C21.0259368,0.592494737 20.7614105,0.325021053 20.4357263,0.325021053 C20.1078316,0.325021053 19.8484632,0.592494737 19.8484632,0.914494737 C19.8484632,1.24017895 20.1078316,1.50470526 20.4357263,1.50470526 C20.7614105,1.50470526 21.0259368,1.24017895 21.0259368,0.914494737" id="Fill-51"></path>
                        <path d="M13.9831263,2.99592632 C13.7524947,3.22582105 13.7583895,3.60308421 13.9882842,3.83297895 C14.1010211,3.94571579 14.2535474,4.00318947 14.4001789,4.00318947 C14.5556526,4.00318947 14.7081789,3.94571579 14.8201789,3.82782105 C15.0508105,3.59718947 15.0508105,3.22582105 14.8201789,2.99592632 C14.5843895,2.76529474 14.2130211,2.76529474 13.9831263,2.99592632" id="Fill-53"></path>
                        <path d="M15.6460316,1.32034737 C15.4161368,1.55687368 15.4161368,1.92750526 15.6519263,2.15813684 C15.7646632,2.27013684 15.9171895,2.33055789 16.0638211,2.33055789 C16.2163474,2.33055789 16.3629789,2.27013684 16.4808737,2.15224211 C16.7115053,1.92234737 16.7115053,1.55097895 16.4749789,1.32034737 C16.2450842,1.0934 15.8737158,1.0934 15.6460316,1.32034737" id="Fill-55"></path>
                        <path d="M18.0785684,0.324873684 C17.7506737,0.324873684 17.4883579,0.592347368 17.4883579,0.914347368 C17.4883579,1.24003158 17.7506737,1.50455789 18.0785684,1.50455789 C18.4035158,1.50455789 18.6687789,1.24003158 18.6687789,0.914347368 C18.6687789,0.592347368 18.4035158,0.324873684 18.0785684,0.324873684" id="Fill-57"></path>
                    </g>
                    <g id="Group-65">
                        <path d="M21.4746,24.6904776 C21.2406,24.9260694 21.24585,25.3134367 21.4866,25.5429878 C21.6006,25.6547429 21.74985,25.7113755 21.8991,25.7113755 C22.05735,25.7113755 22.2126,25.6494571 22.33335,25.5278857 C22.56135,25.2922939 22.56135,24.9094571 22.32135,24.6783959 C22.0866,24.4428041 21.70335,24.4488449 21.4746,24.6904776" id="Fill-60" fill="#555555"></path>
                        <g id="Group-64">
                            <mask id="mask-2" fill="white">
                                <use xlink:href="#path-1"></use>
                            </mask>
                            <g id="Clip-63"></g>
                            <path d="M28.2012,9.09286327 C28.2012,10.0926184 27.3927,10.9043531 26.3997,10.9043531 C25.40895,10.9043531 24.60045,10.0926184 24.60045,9.09286327 C24.60045,8.09310816 25.40895,7.28212857 26.3997,7.28212857 C26.67795,7.28212857 26.93595,7.35008776 27.17295,7.46184286 L25.97745,8.66547551 C25.74345,8.90106735 25.74345,9.28465918 25.97745,9.52100612 C26.09445,9.63880204 26.24745,9.6977 26.3997,9.6977 C26.55495,9.6977 26.7072,9.63880204 26.8242,9.52100612 L28.0197,8.31737347 C28.1307,8.55296531 28.2012,8.81272041 28.2012,9.09286327 Z M31.80195,17.4729857 L15.0462,34.798802 C14.6892,35.1597408 14.1072,35.1597408 13.7487,34.798802 L1.46745,22.4340061 C1.29495,22.2603327 1.2012,22.0300265 1.2012,21.7823531 C1.2012,21.5377 1.29495,21.3043735 1.47045,21.1276796 L18.68295,3.65688367 L30.9522,3.65688367 L28.05195,6.57686327 C27.5772,6.2582102 27.0117,6.0724551 26.3997,6.0724551 C24.74745,6.0724551 23.3997,7.42635306 23.3997,9.09286327 C23.3997,10.7593735 24.74745,12.1132714 26.3997,12.1132714 C28.05495,12.1132714 29.3997,10.7593735 29.3997,9.09286327 C29.3997,8.47972041 29.2152,7.90735306 28.9017,7.42937347 L31.80195,4.50939388 L31.80195,17.4729857 Z M35.22345,0.209087755 C34.98945,-0.0272591837 34.61145,-0.0272591837 34.3767,0.209087755 L32.1507,2.4472102 L18.18195,2.4472102 L0.62145,20.2751694 C0.21945,20.679149 -0.0003,21.2130061 -0.0003,21.7823531 C-0.0003,22.3517 0.21945,22.8893327 0.62145,23.2895367 L12.8997,35.6513122 C13.3122,36.0673735 13.85145,36.2735163 14.39295,36.2735163 C14.9382,36.2735163 15.48345,36.0673735 15.8997,35.6452714 L32.9997,17.9653122 L32.9997,3.30274082 L35.22345,1.06386327 C35.4582,0.828271429 35.4582,0.444679592 35.22345,0.209087755 Z" id="Fill-62" fill="#231F20" mask="url(#mask-2)"></path>
                        </g>
                    </g>
                </g>
            </g>
        </g>
    </g>
</svg>