<?xml version="1.0" encoding="UTF-8"?>
<svg width="91px" height="91px" viewBox="0 0 91 91" version="1.1" xmlns="http://www.w3.org/2000/svg" xmlns:xlink="http://www.w3.org/1999/xlink">
    <!-- Generator: Sketch 51.3 (57544) - http://www.bohemiancoding.com/sketch -->
    <title>Group 5</title>
    <desc>Created with Sketch.</desc>
    <defs>
        <polygon id="path-1" points="31.8368397 34.8280098 0 34.8280098 0 0 31.8368397 0"></polygon>
    </defs>
    <g id="Welcome" stroke="none" stroke-width="1" fill="none" fill-rule="evenodd">
        <g id="accounts-copy-2" transform="translate(-42.000000, -921.000000)">
            <g id="Group-2" transform="translate(43.000000, 922.000000)">
                <g id="Group-5">
                    <g id="Page-1" transform="translate(29.000000, 25.000000)">
                        <g id="Group-3">
                            <mask id="mask-2" fill="white">
                                <use xlink:href="#path-1"></use>
                            </mask>
                            <g id="Clip-2"></g>
                            <path d="M29.6393557,32.6707427 L2.19676435,32.6707427 L2.19676435,7.8514953 L15.918317,2.24721424 L29.6393557,7.8514953 L29.6393557,32.6707427 Z M31.1598604,6.1353325 L16.3403368,0.0828300929 C16.0699563,-0.0277109817 15.7666778,-0.0277109817 15.4968113,0.0828300929 L0.676773667,6.1353325 C0.266576655,6.30291075 -0.000205612537,6.69560918 -0.000205612537,7.13121168 L-0.000205612537,33.7488968 C-0.000205612537,34.3450109 0.491722383,34.8280603 1.0987934,34.8280603 L30.7383547,34.8280603 C31.3449117,34.8280603 31.8368397,34.3450109 31.8368397,33.7488968 L31.8368397,7.13121168 C31.8368397,6.69560918 31.5695434,6.30291075 31.1598604,6.1353325 Z" id="Fill-1" fill="#555555" mask="url(#mask-2)"></path>
                        </g>
                        <path d="M10.913814,15.9478275 L6.3177609,20.9752617 C5.8940797,21.4387092 5.8940797,22.1902157 6.3177609,22.6525531 C6.52985521,22.8839994 6.80740445,23 7.0849537,23 C7.36250294,23 7.64005219,22.8839994 7.85163909,22.6525531 L12.4476922,17.625674 C13.2255405,16.7753727 14.4539623,16.7065493 15.3063987,17.4669363 C17.0249715,18.9993657 19.5021112,18.861164 21.0694779,17.1477958 L24.8313611,13.0322709 L24.8313611,14.372661 C24.8313611,15.0270377 25.3169454,15.5581985 25.9156806,15.5581985 C26.5149231,15.5581985 27,15.0270377 27,14.372661 L27,10.1866476 C27,9.5311608 26.5149231,9 25.9156806,9 L22.0888498,9 C21.4901147,9 21.0045304,9.5311608 21.0045304,10.1866476 C21.0045304,10.8410244 21.4901147,11.3721852 22.0888498,11.3721852 L23.2817534,11.3721852 L19.5361071,15.4693942 C18.7587663,16.3202506 17.5293297,16.3885189 16.6768932,15.628687 C14.9593353,14.0962575 12.4811808,14.2333492 10.913814,15.9478275" id="Fill-4" fill="#555555"></path>
                        <path d="M4,23 C4,23.5521759 4.48382204,24 5.08088979,24 L26.9191102,24 C27.516178,24 28,23.5521759 28,23 C28,22.4478241 27.516178,22 26.9191102,22 L5.08088979,22 C4.48382204,22 4,22.4478241 4,23" id="Fill-6" fill="#555555"></path>
                        <path d="M26.9200986,25 L5.08091256,25 C4.48383223,25 4,25.4478241 4,26 C4,26.5521759 4.48383223,27 5.08091256,27 L26.919593,27 C27.5161678,27 28,26.5521759 28,26 C28,25.4478241 27.5161678,25 26.9200986,25" id="Fill-8" fill="#555555"></path>
                        <path d="M26.9200986,29 L5.08091256,29 C4.48383223,29 4,29.4481871 4,30.0002339 C4,30.5527485 4.48383223,31 5.08091256,31 L26.919593,31 C27.5161678,31 28,30.5527485 28,30.0002339 C28,29.4481871 27.5161678,29 26.9200986,29" id="Fill-10" fill="#555555"></path>
                    </g>
                    <circle id="Oval" stroke="#D1C2A1" stroke-width="2" cx="44.5" cy="44.5" r="44.5"></circle>
                </g>
            </g>
        </g>
    </g>
</svg>