<?xml version="1.0" encoding="UTF-8"?>
<svg width="91px" height="91px" viewBox="0 0 91 91" version="1.1" xmlns="http://www.w3.org/2000/svg" xmlns:xlink="http://www.w3.org/1999/xlink">
    <!-- Generator: Sketch 51.3 (57544) - http://www.bohemiancoding.com/sketch -->
    <title>Group 13</title>
    <desc>Created with Sketch.</desc>
    <defs>
        <polygon id="path-1" points="0 0 37 0 37 28 0 28"></polygon>
    </defs>
    <g id="Welcome" stroke="none" stroke-width="1" fill="none" fill-rule="evenodd">
        <g id="technology" transform="translate(-1074.000000, -2102.000000)">
            <g id="Group-12" transform="translate(1075.000000, 2103.000000)">
                <g id="Group-13">
                    <g id="Group-7" stroke="#D1C2A1" stroke-width="2">
                        <circle id="Oval-Copy-2" cx="44.5" cy="44.5" r="44.5"></circle>
                    </g>
                    <g id="Group-3" transform="translate(27.000000, 30.000000)">
                        <mask id="mask-2" fill="white">
                            <use xlink:href="#path-1"></use>
                        </mask>
                        <g id="Clip-2"></g>
                        <path d="M3.25192652,23.6926667 L33.7480735,23.6926667 C34.3460371,23.6926667 34.8322056,24.1756667 34.8322056,24.7697333 C34.8322056,25.3633333 34.3460371,25.8463333 33.7480735,25.8463333 L3.25192652,25.8463333 C2.65443258,25.8463333 2.16779444,25.3633333 2.16779444,24.7697333 C2.16779444,24.1756667 2.65443258,23.6926667 3.25192652,23.6926667 M8.74398558,8.19513333 L8.74398558,11.8463333 C8.74398558,12.4413333 9.22968427,12.9234 9.82811766,12.9234 C10.4270208,12.9234 10.9122497,12.4413333 10.9122497,11.8463333 L10.9122497,6.50626667 C11.5952342,6.07273333 12.3195546,5.6952 13.0800442,5.38066667 L13.0800442,14 C13.0800442,14.595 13.5657429,15.0770667 14.1641763,15.0770667 C14.7626097,15.0770667 15.2483083,14.595 15.2483083,14 L15.2483083,3.87193333 C15.2483083,3.86913333 15.2483083,3.86633333 15.2483083,3.86353333 L15.2483083,3.23073333 C15.2483083,2.63713333 15.7344768,2.15413333 16.3319707,2.15413333 L20.6680293,2.15413333 C21.265993,2.15413333 21.7521614,2.63713333 21.7521614,3.23073333 L21.7521614,3.86306667 L21.7521614,3.8724 L21.7521614,14 C21.7521614,14.595 22.2373903,15.0770667 22.8358237,15.0770667 C23.4347269,15.0770667 23.9199558,14.595 23.9199558,14 L23.9199558,5.38066667 C24.6804454,5.6952 25.4052356,6.07273333 26.08822,6.50626667 L26.08822,11.8463333 C26.08822,12.4413333 26.5734489,12.9234 27.1718823,12.9234 C27.7707855,12.9234 28.2560144,12.4413333 28.2560144,11.8463333 L28.2560144,8.19513333 C30.9945283,10.7893333 32.6644111,14.4246667 32.6644111,18.3078 L32.6644111,21.539 L4.3360586,21.539 L4.3360586,18.3078 C4.3360586,14.4246667 6.00594142,10.7893333 8.74398558,8.19513333 M3.25192652,28 L33.7480735,28 C35.5414948,28 37,26.551 37,24.7697333 C37,23.3655333 36.0938948,22.1680667 34.8322056,21.7238 L34.8322056,18.3078 C34.8322056,14.7620667 33.6813721,11.3918 31.5041831,8.56146667 C29.5717224,6.04893333 26.8994401,4.12206667 23.916198,3.073 C23.8330562,1.36453333 22.4079016,0 20.6680293,0 L16.3319707,0 C14.5920984,0 13.1674136,1.36453333 13.0842717,3.073 C10.1010296,4.12206667 7.42874735,6.04893333 5.49628661,8.56146667 C3.31909761,11.3918 2.16779444,14.7620667 2.16779444,18.3078 L2.16779444,21.7238 C0.906105194,22.1680667 0,23.3655333 0,24.7697333 C0,26.551 1.45897498,28 3.25192652,28" id="Fill-1" fill="#555555" mask="url(#mask-2)"></path>
                    </g>
                </g>
            </g>
        </g>
    </g>
</svg>