<?xml version="1.0" encoding="UTF-8"?>
<svg width="91px" height="91px" viewBox="0 0 91 91" version="1.1" xmlns="http://www.w3.org/2000/svg" xmlns:xlink="http://www.w3.org/1999/xlink">
    <!-- Generator: Sketch 51.3 (57544) - http://www.bohemiancoding.com/sketch -->
    <title>Group 10</title>
    <desc>Created with Sketch.</desc>
    <defs></defs>
    <g id="Welcome" stroke="none" stroke-width="1" fill="none" fill-rule="evenodd">
        <g id="technology" transform="translate(-100.000000, -2102.000000)">
            <g id="Group-10" transform="translate(101.000000, 2103.000000)">
                <g id="Group-2" stroke="#D1C2A1" stroke-width="2">
                    <circle id="Oval" cx="44.5" cy="44.5" r="44.5"></circle>
                </g>
                <g id="Group-4" transform="translate(30.000000, 22.000000)" fill="#555555">
                    <path d="M1.41089235,35.529699 L29.5935112,35.529699 L29.5935112,18.1278599 L1.41089235,18.1278599 L1.41089235,35.529699 Z M1.41089235,39.8812918 L29.5935112,39.8812918 L29.5935112,36.9817406 L1.41089235,36.9817406 L1.41089235,39.8812918 Z M23.9543453,16.6758183 L23.9543453,8.41223338 C23.9543453,3.77422043 20.0052558,0 15.1472769,0 C10.2937015,0 6.34020853,3.77422043 6.34020853,8.41223338 L6.34020853,10.7452889 C6.34020853,11.1495402 6.65726299,11.4713097 7.04565471,11.4713097 C7.43404642,11.4713097 7.75110088,11.1495402 7.75110088,10.7452889 L7.75110088,8.41223338 C7.75110088,4.57456544 11.0669621,1.45204158 15.1472769,1.45204158 C19.2275917,1.45204158 22.5478565,4.57456544 22.5478565,8.41223338 L22.5478565,16.6758183 L0,16.6758183 L0,41.3333333 L31,41.3333333 L31,16.6758183 L23.9543453,16.6758183 Z" id="Fill-1"></path>
                    <path d="M17.3776875,29.927066 C17.3776875,30.7418114 16.744774,31.4015429 15.9718976,31.4015429 C15.1946199,31.4015429 14.5617064,30.7418114 14.5617064,29.927066 L14.5617064,25.4971764 C14.5617064,24.6824311 15.1946199,24.0199314 15.9718976,24.0199314 C16.744774,24.0199314 17.3776875,24.6824311 17.3776875,25.4971764 L17.3776875,29.927066 Z M15.9718976,22.5454545 C14.4173422,22.5454545 13.1515152,23.8686084 13.1515152,25.4971764 L13.1515152,29.927066 C13.1515152,31.5565567 14.4173422,32.8787879 15.9718976,32.8787879 C17.5220517,32.8787879 18.7878788,31.5565567 18.7878788,29.927066 L18.7878788,25.4971764 C18.7878788,23.8686084 17.5220517,22.5454545 15.9718976,22.5454545 Z" id="Fill-3"></path>
                </g>
            </g>
        </g>
    </g>
</svg>