<?xml version="1.0" encoding="UTF-8"?>
<svg width="91px" height="91px" viewBox="0 0 91 91" version="1.1" xmlns="http://www.w3.org/2000/svg" xmlns:xlink="http://www.w3.org/1999/xlink">
    <!-- Generator: Sketch 51.3 (57544) - http://www.bohemiancoding.com/sketch -->
    <title>Group 8</title>
    <desc>Created with Sketch.</desc>
    <defs>
        <polygon id="path-1" points="35.7392195 32.9099882 35.7392195 0.00942236842 0 0.00942236842 1.18997799e-20 32.9099882"></polygon>
        <polygon id="path-3" points="0 33 35.7545854 33 35.7545854 0 0 0"></polygon>
    </defs>
    <g id="Welcome" stroke="none" stroke-width="1" fill="none" fill-rule="evenodd">
        <g id="payroll" transform="translate(-100.000000, -2255.000000)">
            <g id="Group-6" transform="translate(101.000000, 2256.000000)">
                <g id="Group-8">
                    <circle id="Oval-Copy-3" stroke="#D1C2A1" stroke-width="2" cx="44.5" cy="44.5" r="44.5"></circle>
                    <g id="Page-1" transform="translate(27.000000, 30.000000)">
                        <g id="Group-3">
                            <mask id="mask-2" fill="white">
                                <use xlink:href="#path-1"></use>
                            </mask>
                            <g id="Clip-2"></g>
                            <path d="M34.6134732,26.1211066 C34.6134732,26.2370408 34.5146927,26.3347382 34.3974732,26.3347382 L1.35737561,26.3347382 C1.23971707,26.3347382 1.14093659,26.2370408 1.14093659,26.1211066 L1.14093659,1.35200132 C1.14093659,1.23563289 1.23971707,1.13793553 1.35737561,1.13793553 L34.3974732,1.13793553 C34.5146927,1.13793553 34.6134732,1.23563289 34.6134732,1.35200132 L34.6134732,26.1211066 Z M14.9596683,31.7810408 L20.7951805,31.7810408 L20.7951805,27.4636855 L14.9596683,27.4636855 L14.9596683,31.7810408 Z M34.3974732,0.00942236842 L1.35737561,0.00942236842 C0.608839024,0.00942236842 -8.7804878e-05,0.611672368 -8.7804878e-05,1.35200132 L-8.7804878e-05,26.1211066 C-8.7804878e-05,26.8614355 0.608839024,27.4636855 1.35737561,27.4636855 L13.8186439,27.4636855 L13.8186439,31.781475 L8.43708293,31.781475 C8.12230244,31.781475 7.86679024,32.0337513 7.86679024,32.3455145 C7.86679024,32.6572776 8.12230244,32.9099882 8.43708293,32.9099882 L27.3173268,32.9099882 C27.6325463,32.9099882 27.8880585,32.6572776 27.8880585,32.3455145 C27.8880585,32.0337513 27.6325463,31.781475 27.3173268,31.781475 L21.9362049,31.781475 L21.9362049,27.4636855 L34.3974732,27.4636855 C35.1455707,27.4636855 35.7544976,26.8614355 35.7544976,26.1211066 L35.7544976,1.35200132 C35.7544976,0.611672368 35.1455707,0.00942236842 34.3974732,0.00942236842 Z" id="Fill-1" fill="#555555" mask="url(#mask-2)"></path>
                        </g>
                        <g id="Group-11">
                            <path d="M32.8241415,21.7433961 C33.138922,21.7433961 33.3948732,21.9961066 33.3948732,22.3074355 C33.3948732,22.6191987 33.138922,22.8719092 32.8241415,22.8719092 L2.93097073,22.8719092 C2.6153122,22.8719092 2.36023902,22.6191987 2.36023902,22.3074355 C2.36023902,21.9961066 2.6153122,21.7433961 2.93097073,21.7433961 L32.8241415,21.7433961 Z" id="Fill-4" fill="#555555"></path>
                            <mask id="mask-4" fill="white">
                                <use xlink:href="#path-3"></use>
                            </mask>
                            <g id="Clip-7"></g>
                            <path d="M8.93853659,18.7340132 L10.8403902,18.7340132 L10.8403902,11.6759211 L8.93853659,11.6759211 L8.93853659,18.7340132 Z M8.3682439,19.8625263 L11.411122,19.8625263 C11.7259024,19.8625263 11.9818537,19.6098158 11.9818537,19.2980526 L11.9818537,11.1114474 C11.9818537,10.8001184 11.7259024,10.5474079 11.411122,10.5474079 L8.3682439,10.5474079 C8.05302439,10.5474079 7.7975122,10.8001184 7.7975122,11.1114474 L7.7975122,19.2980526 C7.7975122,19.6098158 8.05302439,19.8625263 8.3682439,19.8625263 Z" id="Fill-6" fill="#555555" mask="url(#mask-4)"></path>
                            <path d="M14.2639024,18.7335789 L16.1657561,18.7335789 L16.1657561,9.00596053 L14.2639024,9.00596053 L14.2639024,18.7335789 Z M13.6931707,19.8625263 L16.7360488,19.8625263 C17.0512683,19.8625263 17.3067805,19.6098158 17.3067805,19.2980526 L17.3067805,8.44148684 C17.3067805,8.13015789 17.0512683,7.87744737 16.7360488,7.87744737 L13.6931707,7.87744737 C13.3783902,7.87744737 13.122878,8.13015789 13.122878,8.44148684 L13.122878,19.2980526 C13.122878,19.6098158 13.3783902,19.8625263 13.6931707,19.8625263 Z" id="Fill-8" fill="#555555" mask="url(#mask-4)"></path>
                            <path d="M19.5888293,18.7340132 L21.4906829,18.7340132 L21.4906829,6.48189474 L19.5888293,6.48189474 L19.5888293,18.7340132 Z M19.0185366,19.8625263 L22.0614146,19.8625263 C22.3761951,19.8625263 22.6317073,19.6098158 22.6317073,19.2980526 L22.6317073,5.91742105 C22.6317073,5.60609211 22.3761951,5.35294737 22.0614146,5.35294737 L19.0185366,5.35294737 C18.7033171,5.35294737 18.4478049,5.60609211 18.4478049,5.91742105 L18.4478049,19.2980526 C18.4478049,19.6098158 18.7033171,19.8625263 19.0185366,19.8625263 Z" id="Fill-9" fill="#555555" mask="url(#mask-4)"></path>
                            <path d="M24.9141951,18.7340132 L26.8160488,18.7340132 L26.8160488,14.2729342 L24.9141951,14.2729342 L24.9141951,18.7340132 Z M24.3434634,19.8625263 L27.3863415,19.8625263 C27.701561,19.8625263 27.9570732,19.6098158 27.9570732,19.2980526 L27.9570732,13.7084605 C27.9570732,13.3971316 27.701561,13.1439868 27.3863415,13.1439868 L24.3434634,13.1439868 C24.0286829,13.1439868 23.7727317,13.3971316 23.7727317,13.7084605 L23.7727317,19.2980526 C23.7727317,19.6098158 24.0286829,19.8625263 24.3434634,19.8625263 Z" id="Fill-10" fill="#555555" mask="url(#mask-4)"></path>
                        </g>
                    </g>
                </g>
            </g>
        </g>
    </g>
</svg>