<?xml version="1.0" encoding="UTF-8"?>
<svg width="91px" height="91px" viewBox="0 0 91 91" version="1.1" xmlns="http://www.w3.org/2000/svg" xmlns:xlink="http://www.w3.org/1999/xlink">
    <!-- Generator: Sketch 51.3 (57544) - http://www.bohemiancoding.com/sketch -->
    <title>Group 7</title>
    <desc>Created with Sketch.</desc>
    <defs></defs>
    <g id="Welcome" stroke="none" stroke-width="1" fill="none" fill-rule="evenodd">
        <g id="payroll" transform="translate(-1074.000000, -2122.000000)">
            <g id="Group-7" transform="translate(1075.000000, 2123.000000)">
                <circle id="Oval-Copy-2" stroke="#D1C2A1" stroke-width="2" cx="44.5" cy="44.5" r="44.5"></circle>
                <g id="Page-1" transform="translate(31.000000, 27.000000)" fill="#231F20">
                    <g id="Group-3">
                        <path d="M26.9474513,33.220116 C26.9474513,34.170876 26.1760154,34.944516 25.2283231,34.944516 L2.7719641,34.944516 C1.82391282,34.944516 1.05247692,34.170876 1.05247692,33.220116 L1.05247692,2.817756 C1.05247692,1.866636 1.82391282,1.093356 2.7719641,1.093356 L25.2283231,1.093356 C26.1760154,1.093356 26.9474513,1.866636 26.9474513,2.817756 L26.9474513,33.220116 Z M25.2283231,0.037476 L2.7719641,0.037476 C1.24345128,0.037476 -3.58974359e-05,1.284876 -3.58974359e-05,2.817756 L-3.58974359e-05,33.220116 C-3.58974359e-05,34.752996 1.24345128,36.000036 2.7719641,36.000036 L25.2283231,36.000036 C26.7564769,36.000036 27.9999641,34.752996 27.9999641,33.220116 L27.9999641,2.817756 C27.9999641,1.284876 26.7564769,0.037476 25.2283231,0.037476 Z" id="Fill-1"></path>
                    </g>
                    <path d="M3.07450106,32.9259238 L3.07450106,28.8456794 L11.1699064,28.8456794 L11.1699064,28.8812011 C11.1699064,29.8087958 11.9252088,30.5639083 12.8534868,30.5639083 C13.2961871,30.5639083 13.6989418,30.3917925 13.9998168,30.1120126 C14.3006917,30.3917925 14.7030799,30.5639083 15.1457802,30.5639083 C16.0744247,30.5639083 16.8293607,29.8087958 16.8293607,28.8812011 L16.8293607,28.8456794 L20.3398128,28.8456794 L20.3398128,28.8812011 C20.3398128,29.8087958 21.0951152,30.5639083 22.0233932,30.5639083 C22.9520377,30.5639083 23.7069737,29.8087958 23.7069737,28.8812011 L23.7069737,28.8456794 L24.9251325,28.8456794 L24.9251325,32.9259238 L3.07450106,32.9259238 Z M24.9251325,3.07334379 L24.9251325,7.15395443 L23.7069737,7.15395443 L23.7069737,7.11806644 C23.7069737,6.19047183 22.9520377,5.43609169 22.0233932,5.43609169 C21.5810594,5.43609169 21.1779383,5.60747514 20.8770633,5.88762116 C20.5761884,5.60747514 20.1738002,5.43609169 19.7310999,5.43609169 C18.8028218,5.43609169 18.0475194,6.19047183 18.0475194,7.11806644 L18.0475194,7.15395443 L14.5370673,7.15395443 L14.5370673,7.11806644 C14.5370673,6.19047183 13.7817649,5.43609169 12.8534868,5.43609169 C12.411153,5.43609169 12.0080319,5.60747514 11.7071569,5.88762116 C11.406282,5.60747514 11.0035273,5.43609169 10.560827,5.43609169 C10.1184932,5.43609169 9.71537205,5.60747514 9.41449709,5.88762116 C9.11362214,5.60747514 8.71086747,5.43609169 8.26853365,5.43609169 C7.82583335,5.43609169 7.42307868,5.60747514 7.12220373,5.88762116 C6.82132877,5.60747514 6.41820764,5.43609169 5.97587381,5.43609169 C5.04722931,5.43609169 4.29229336,6.19047183 4.29229336,7.11806644 L4.29229336,7.15395443 L3.07450106,7.15395443 L3.07450106,3.07334379 L24.9251325,3.07334379 Z M15.7548596,15.136102 C15.7548596,15.4715448 15.4814702,15.744733 15.1457802,15.744733 C14.8100902,15.744733 14.5370673,15.4715448 14.5370673,15.136102 L14.5370673,13.9909822 C14.5370673,13.6555394 14.8100902,13.3823513 15.1457802,13.3823513 C15.4814702,13.3823513 15.7548596,13.6555394 15.7548596,13.9909822 L15.7548596,15.136102 Z M13.4625662,15.136102 C13.4625662,15.4715448 13.1895433,15.744733 12.8534868,15.744733 C12.5177969,15.744733 12.2444075,15.4715448 12.2444075,15.136102 L12.2444075,13.9909822 C12.2444075,13.6555394 12.5177969,13.3823513 12.8534868,13.3823513 C13.1895433,13.3823513 13.4625662,13.6555394 13.4625662,13.9909822 L13.4625662,15.136102 Z M11.1699064,15.136102 C11.1699064,15.4715448 10.896517,15.744733 10.560827,15.744733 C10.225137,15.744733 9.95174762,15.4715448 9.95174762,15.136102 L9.95174762,13.9909822 C9.95174762,13.6555394 10.225137,13.3823513 10.560827,13.3823513 C10.896517,13.3823513 11.1699064,13.6555394 11.1699064,13.9909822 L11.1699064,15.136102 Z M8.87688009,15.136102 C8.87688009,15.4715448 8.60385714,15.744733 8.26853365,15.744733 C7.93284368,15.744733 7.65945426,15.4715448 7.65945426,15.136102 L7.65945426,13.9909822 C7.65945426,13.6555394 7.93284368,13.3823513 8.26853365,13.3823513 C8.60385714,13.3823513 8.87688009,13.6555394 8.87688009,13.9909822 L8.87688009,15.136102 Z M6.5849532,15.136102 C6.5849532,15.4715448 6.31156377,15.744733 5.97587381,15.744733 C5.63981737,15.744733 5.36679442,15.4715448 5.36679442,15.136102 L5.36679442,13.9909822 C5.36679442,13.6555394 5.63981737,13.3823513 5.97587381,13.3823513 C6.31156377,13.3823513 6.5849532,13.6555394 6.5849532,13.9909822 L6.5849532,15.136102 Z M5.36679442,20.8631656 C5.36679442,20.528089 5.63981737,20.2549008 5.97587381,20.2549008 C6.31156377,20.2549008 6.5849532,20.528089 6.5849532,20.8631656 L6.5849532,22.0086516 C6.5849532,22.3440944 6.31156377,22.6172825 5.97587381,22.6172825 C5.63981737,22.6172825 5.36679442,22.3440944 5.36679442,22.0086516 L5.36679442,20.8631656 Z M16.8293607,20.8631656 C16.8293607,20.528089 17.1027501,20.2549008 17.43844,20.2549008 C17.77413,20.2549008 18.0475194,20.528089 18.0475194,20.8631656 L18.0475194,22.0086516 C18.0475194,22.3440944 17.77413,22.6172825 17.43844,22.6172825 C17.1027501,22.6172825 16.8293607,22.3440944 16.8293607,22.0086516 L16.8293607,20.8631656 Z M19.122387,20.8631656 C19.122387,20.528089 19.3954099,20.2549008 19.7310999,20.2549008 C20.0667898,20.2549008 20.3398128,20.528089 20.3398128,20.8631656 L20.3398128,22.0086516 C20.3398128,22.3440944 20.0667898,22.6172825 19.7310999,22.6172825 C19.3954099,22.6172825 19.122387,22.3440944 19.122387,22.0086516 L19.122387,20.8631656 Z M22.0233932,19.1811908 C21.5810594,19.1811908 21.1779383,19.3529405 20.8770633,19.6327203 C20.5761884,19.3529405 20.1738002,19.1811908 19.7310999,19.1811908 C19.2887661,19.1811908 18.8856449,19.3529405 18.58477,19.6327203 C18.283895,19.3529405 17.8807739,19.1811908 17.43844,19.1811908 C16.510162,19.1811908 15.7548596,19.935571 15.7548596,20.8631656 L15.7548596,20.8990536 L7.65945426,20.8990536 L7.65945426,20.8631656 C7.65945426,19.935571 6.90415184,19.1811908 5.97587381,19.1811908 C5.04722931,19.1811908 4.29229336,19.935571 4.29229336,20.8631656 L4.29229336,20.8990536 L3.07450106,20.8990536 L3.07450106,15.100214 L4.29229336,15.100214 L4.29229336,15.136102 C4.29229336,16.0636966 5.04722931,16.8184429 5.97587381,16.8184429 C6.41820764,16.8184429 6.82132877,16.6470595 7.12220373,16.3669135 C7.42307868,16.6470595 7.82583335,16.8184429 8.26853365,16.8184429 C8.71086747,16.8184429 9.11362214,16.6470595 9.41449709,16.3669135 C9.71537205,16.6470595 10.1184932,16.8184429 10.560827,16.8184429 C11.0035273,16.8184429 11.406282,16.6470595 11.7071569,16.3669135 C12.0080319,16.6470595 12.411153,16.8184429 12.8534868,16.8184429 C13.2961871,16.8184429 13.6989418,16.6470595 13.9998168,16.3669135 C14.3006917,16.6470595 14.7030799,16.8184429 15.1457802,16.8184429 C16.0744247,16.8184429 16.8293607,16.0636966 16.8293607,15.136102 L16.8293607,15.100214 L24.9251325,15.100214 L24.9251325,20.8990536 L23.7069737,20.8990536 L23.7069737,20.8631656 C23.7069737,19.935571 22.9520377,19.1811908 22.0233932,19.1811908 Z M21.4143139,20.8631656 C21.4143139,20.528089 21.6877033,20.2549008 22.0233932,20.2549008 C22.3594497,20.2549008 22.6324726,20.528089 22.6324726,20.8631656 L22.6324726,22.0086516 C22.6324726,22.3440944 22.3594497,22.6172825 22.0233932,22.6172825 C21.6877033,22.6172825 21.4143139,22.3440944 21.4143139,22.0086516 L21.4143139,20.8631656 Z M22.6324726,8.26391861 C22.6324726,8.59899523 22.3594497,8.87181717 22.0233932,8.87181717 C21.6877033,8.87181717 21.4143139,8.59899523 21.4143139,8.26391861 L21.4143139,7.11806644 C21.4143139,6.78262362 21.6877033,6.50980168 22.0233932,6.50980168 C22.3594497,6.50980168 22.6324726,6.78262362 22.6324726,7.11806644 L22.6324726,8.26391861 Z M20.3398128,8.26391861 C20.3398128,8.59899523 20.0667898,8.87181717 19.7310999,8.87181717 C19.3954099,8.87181717 19.122387,8.59899523 19.122387,8.26391861 L19.122387,7.11806644 C19.122387,6.78262362 19.3954099,6.50980168 19.7310999,6.50980168 C20.0667898,6.50980168 20.3398128,6.78262362 20.3398128,7.11806644 L20.3398128,8.26391861 Z M13.4625662,8.26391861 C13.4625662,8.59899523 13.1895433,8.87181717 12.8534868,8.87181717 C12.5177969,8.87181717 12.2444075,8.59899523 12.2444075,8.26391861 L12.2444075,7.11806644 C12.2444075,6.78262362 12.5177969,6.50980168 12.8534868,6.50980168 C13.1895433,6.50980168 13.4625662,6.78262362 13.4625662,7.11806644 L13.4625662,8.26391861 Z M11.1699064,8.26391861 C11.1699064,8.59899523 10.896517,8.87181717 10.560827,8.87181717 C10.225137,8.87181717 9.95174762,8.59899523 9.95174762,8.26391861 L9.95174762,7.11806644 C9.95174762,6.78262362 10.225137,6.50980168 10.560827,6.50980168 C10.896517,6.50980168 11.1699064,6.78262362 11.1699064,7.11806644 L11.1699064,8.26391861 Z M8.87688009,8.26391861 C8.87688009,8.59899523 8.60385714,8.87181717 8.26853365,8.87181717 C7.93284368,8.87181717 7.65945426,8.59899523 7.65945426,8.26391861 L7.65945426,7.11806644 C7.65945426,6.78262362 7.93284368,6.50980168 8.26853365,6.50980168 C8.60385714,6.50980168 8.87688009,6.78262362 8.87688009,7.11806644 L8.87688009,8.26391861 Z M5.97587381,9.94589337 C6.41820764,9.94589337 6.82132877,9.77414371 7.12220373,9.49436389 C7.42307868,9.77414371 7.82583335,9.94589337 8.26853365,9.94589337 C8.71086747,9.94589337 9.11362214,9.77414371 9.41449709,9.49436389 C9.71537205,9.77414371 10.1184932,9.94589337 10.560827,9.94589337 C11.0035273,9.94589337 11.406282,9.77414371 11.7071569,9.49436389 C12.0080319,9.77414371 12.411153,9.94589337 12.8534868,9.94589337 C13.7817649,9.94589337 14.5370673,9.19114702 14.5370673,8.26391861 L14.5370673,8.22803062 L18.0475194,8.22803062 L18.0475194,8.26391861 C18.0475194,9.19114702 18.8028218,9.94589337 19.7310999,9.94589337 C20.1738002,9.94589337 20.5761884,9.77414371 20.8770633,9.49436389 C21.1779383,9.77414371 21.5810594,9.94589337 22.0233932,9.94589337 C22.9520377,9.94589337 23.7069737,9.19114702 23.7069737,8.26391861 L23.7069737,8.22803062 L24.9251325,8.22803062 L24.9251325,14.0268702 L16.8293607,14.0268702 L16.8293607,13.9909822 C16.8293607,13.0633876 16.0744247,12.3086413 15.1457802,12.3086413 C14.7030799,12.3086413 14.3006917,12.4803909 13.9998168,12.7601707 C13.6989418,12.4803909 13.2961871,12.3086413 12.8534868,12.3086413 C12.411153,12.3086413 12.0080319,12.4803909 11.7071569,12.7601707 C11.406282,12.4803909 11.0035273,12.3086413 10.560827,12.3086413 C10.1184932,12.3086413 9.71537205,12.4803909 9.41449709,12.7601707 C9.11362214,12.4803909 8.71086747,12.3086413 8.26853365,12.3086413 C7.82583335,12.3086413 7.42307868,12.4803909 7.12220373,12.7601707 C6.82132877,12.4803909 6.41820764,12.3086413 5.97587381,12.3086413 C5.04722931,12.3086413 4.29229336,13.0633876 4.29229336,13.9909822 L4.29229336,14.0268702 L3.07450106,14.0268702 L3.07450106,8.22803062 L4.29229336,8.22803062 L4.29229336,8.26391861 C4.29229336,9.19114702 5.04722931,9.94589337 5.97587381,9.94589337 Z M6.5849532,8.26391861 C6.5849532,8.59899523 6.31156377,8.87181717 5.97587381,8.87181717 C5.63981737,8.87181717 5.36679442,8.59899523 5.36679442,8.26391861 L5.36679442,7.11806644 C5.36679442,6.78262362 5.63981737,6.50980168 5.97587381,6.50980168 C6.31156377,6.50980168 6.5849532,6.78262362 6.5849532,7.11806644 L6.5849532,8.26391861 Z M12.2444075,27.7357152 C12.2444075,27.4002724 12.5177969,27.1270842 12.8534868,27.1270842 C13.1895433,27.1270842 13.4625662,27.4002724 13.4625662,27.7357152 L13.4625662,28.8812011 C13.4625662,29.2170102 13.1895433,29.4898321 12.8534868,29.4898321 C12.5177969,29.4898321 12.2444075,29.2170102 12.2444075,28.8812011 L12.2444075,27.7357152 Z M14.5370673,27.7357152 C14.5370673,27.4002724 14.8100902,27.1270842 15.1457802,27.1270842 C15.4814702,27.1270842 15.7548596,27.4002724 15.7548596,27.7357152 L15.7548596,28.8812011 C15.7548596,29.2170102 15.4814702,29.4898321 15.1457802,29.4898321 C14.8100902,29.4898321 14.5370673,29.2170102 14.5370673,28.8812011 L14.5370673,27.7357152 Z M22.0233932,26.0533742 C21.0951152,26.0533742 20.3398128,26.8081206 20.3398128,27.7357152 L20.3398128,27.7719694 L16.8293607,27.7719694 L16.8293607,27.7357152 C16.8293607,26.8081206 16.0744247,26.0533742 15.1457802,26.0533742 C14.7030799,26.0533742 14.3006917,26.2254901 13.9998168,26.5052699 C13.6989418,26.2254901 13.2961871,26.0533742 12.8534868,26.0533742 C11.9252088,26.0533742 11.1699064,26.8081206 11.1699064,27.7357152 L11.1699064,27.7719694 L3.07450106,27.7719694 L3.07450106,21.9731298 L4.29229336,21.9731298 L4.29229336,22.0086516 C4.29229336,22.9366124 5.04722931,23.6909925 5.97587381,23.6909925 C6.90415184,23.6909925 7.65945426,22.9366124 7.65945426,22.0086516 L7.65945426,21.9731298 L15.7548596,21.9731298 L15.7548596,22.0086516 C15.7548596,22.9366124 16.510162,23.6909925 17.43844,23.6909925 C17.8807739,23.6909925 18.283895,23.5192429 18.58477,23.2394631 C18.8856449,23.5192429 19.2887661,23.6909925 19.7310999,23.6909925 C20.1738002,23.6909925 20.5761884,23.5192429 20.8770633,23.2394631 C21.1779383,23.5192429 21.5810594,23.6909925 22.0233932,23.6909925 C22.9520377,23.6909925 23.7069737,22.9366124 23.7069737,22.0086516 L23.7069737,21.9731298 L24.9251325,21.9731298 L24.9251325,27.7719694 L23.7069737,27.7719694 L23.7069737,27.7357152 C23.7069737,26.8081206 22.9520377,26.0533742 22.0233932,26.0533742 Z M21.4143139,27.7357152 C21.4143139,27.4002724 21.6877033,27.1270842 22.0233932,27.1270842 C22.3594497,27.1270842 22.6324726,27.4002724 22.6324726,27.7357152 L22.6324726,28.8812011 C22.6324726,29.2170102 22.3594497,29.4898321 22.0233932,29.4898321 C21.6877033,29.4898321 21.4143139,29.2170102 21.4143139,28.8812011 L21.4143139,27.7357152 Z M25.462383,2 L2.53725053,2 C2.24004031,2 2,2.23986359 2,2.53685499 L2,33.463145 C2,33.759404 2.24004031,34 2.53725053,34 L25.462383,34 C25.7592267,34 26,33.759404 26,33.463145 L26,2.53685499 C26,2.23986359 25.7592267,2 25.462383,2 Z" id="Fill-4"></path>
                </g>
            </g>
        </g>
    </g>
</svg>