<?xml version="1.0" encoding="UTF-8"?>
<svg width="91px" height="91px" viewBox="0 0 91 91" version="1.1" xmlns="http://www.w3.org/2000/svg" xmlns:xlink="http://www.w3.org/1999/xlink">
    <!-- Generator: Sketch 51.3 (57544) - http://www.bohemiancoding.com/sketch -->
    <title>Group 9</title>
    <desc>Created with Sketch.</desc>
    <defs></defs>
    <g id="Welcome" stroke="none" stroke-width="1" fill="none" fill-rule="evenodd">
        <g id="payroll" transform="translate(-563.000000, -2122.000000)">
            <g id="Group-9" transform="translate(564.000000, 2123.000000)">
                <circle id="Oval-Copy" stroke="#D1C2A1" stroke-width="2" cx="44.5" cy="44.5" r="44.5"></circle>
                <g id="Page-1" transform="translate(28.000000, 26.000000)" fill="#555555">
                    <path d="M1.13475,32.86525 L32.86525,32.86525 L32.86525,11.3333333 L1.13475,11.3333333 L1.13475,32.86525 Z M5.66666667,7.36525 L32.86525,7.36525 L32.86525,10.1985833 L1.13475,10.1985833 L1.13475,7.36525 L5.66666667,7.36525 Z M14.1695,2.69520833 C14.1666667,2.739125 14.1666667,2.78658333 14.1666667,2.83333333 C14.1666667,4.396625 15.4367083,5.66666667 17,5.66666667 C18.5632917,5.66666667 19.8333333,4.396625 19.8333333,2.83333333 C19.8333333,2.78658333 19.8333333,2.739125 19.8305,2.69520833 C21.8669583,3.90433333 24.38225,5.29833333 26.095,6.23404167 L7.905,6.23404167 C9.61775,5.29833333 12.1330417,3.90433333 14.1695,2.69520833 Z M18.2587083,1.70141667 C18.2615417,1.70425 18.2615417,1.70708333 18.264375,1.70991667 C18.4025,1.86504167 18.5547917,2.10020833 18.6376667,2.40195833 C18.6433333,2.42675 18.6546667,2.44870833 18.6603333,2.47633333 C18.685125,2.58683333 18.6985833,2.70583333 18.6985833,2.83333333 C18.6985833,3.77116667 17.9378333,4.53191667 17,4.53191667 C16.0621667,4.53191667 15.3014167,3.77116667 15.3014167,2.83333333 C15.3014167,2.70583333 15.314875,2.58683333 15.3396667,2.47633333 C15.3453333,2.45154167 15.3566667,2.42675 15.3623333,2.40195833 C15.4452083,2.10020833 15.5975,1.867875 15.735625,1.70991667 C15.7384583,1.70708333 15.7384583,1.70425 15.7412917,1.70141667 C16.0508333,1.35575 16.4992083,1.13475 17,1.13475 C17.5007917,1.13475 17.9491667,1.35575 18.2587083,1.70141667 Z M28.4742917,6.23404167 C27.588875,5.75804167 22.083,2.794375 19.0555833,0.893916667 C18.5385,0.345666667 17.8110417,0 17,0 C16.1889583,0 15.4615,0.345666667 14.9444167,0.893916667 C11.917,2.79154167 6.411125,5.75804167 5.52570833,6.23404167 L0,6.23404167 L0,34 L34,34 L34,6.23404167 L28.4742917,6.23404167 Z" id="Fill-1"></path>
                    <path d="M13.4210526,15.6564941 C13.4210526,15.9063705 13.22216,16.1052632 12.9722836,16.1052632 C12.7252085,16.1052632 12.5263158,15.9063705 12.5263158,15.6564941 C12.5263158,15.409419 12.7252085,15.2105263 12.9722836,15.2105263 C13.22216,15.2105263 13.4210526,15.409419 13.4210526,15.6564941" id="Fill-3"></path>
                    <path d="M17,15.6564941 C17,15.9063705 16.7989355,16.1052632 16.5526316,16.1052632 C16.3063276,16.1052632 16.1052632,15.9063705 16.1052632,15.6564941 C16.1052632,15.409419 16.3063276,15.2105263 16.5526316,15.2105263 C16.7989355,15.2105263 17,15.409419 17,15.6564941" id="Fill-4"></path>
                    <path d="M21.4736842,15.6564941 C21.4736842,15.9063705 21.274916,16.1052632 21.0274356,16.1052632 C20.7782755,16.1052632 20.5789474,15.9063705 20.5789474,15.6564941 C20.5789474,15.409419 20.7782755,15.2105263 21.0274356,15.2105263 C21.274916,15.2105263 21.4736842,15.409419 21.4736842,15.6564941" id="Fill-5"></path>
                    <path d="M25.0526316,15.6564941 C25.0526316,15.9063705 24.8521256,16.1052632 24.6052632,16.1052632 C24.3589592,16.1052632 24.1578947,15.9063705 24.1578947,15.6564941 C24.1578947,15.409419 24.3589592,15.2105263 24.6052632,15.2105263 C24.8521256,15.2105263 25.0526316,15.409419 25.0526316,15.6564941" id="Fill-6"></path>
                    <path d="M29.5263158,15.6564941 C29.5263158,15.9063705 29.3258098,16.1052632 29.0789474,16.1052632 C28.8326434,16.1052632 28.6315789,15.9063705 28.6315789,15.6564941 C28.6315789,15.409419 28.8326434,15.2105263 29.0789474,15.2105263 C29.3258098,15.2105263 29.5263158,15.409419 29.5263158,15.6564941" id="Fill-7"></path>
                    <path d="M5.36842105,20.1315789 C5.36842105,20.3778829 5.16791511,20.5789474 4.92105263,20.5789474 C4.67474867,20.5789474 4.47368421,20.3778829 4.47368421,20.1315789 C4.47368421,19.885275 4.67474867,19.6842105 4.92105263,19.6842105 C5.16791511,19.6842105 5.36842105,19.885275 5.36842105,20.1315789" id="Fill-8"></path>
                    <path d="M9.84210526,20.1315789 C9.84210526,20.3778829 9.6410408,20.5789474 9.39473684,20.5789474 C9.14787437,20.5789474 8.94736842,20.3778829 8.94736842,20.1315789 C8.94736842,19.885275 9.14787437,19.6842105 9.39473684,19.6842105 C9.6410408,19.6842105 9.84210526,19.885275 9.84210526,20.1315789" id="Fill-9"></path>
                    <path d="M13.4210526,20.1315789 C13.4210526,20.3778829 13.22216,20.5789474 12.9722836,20.5789474 C12.7252085,20.5789474 12.5263158,20.3778829 12.5263158,20.1315789 C12.5263158,19.885275 12.7252085,19.6842105 12.9722836,19.6842105 C13.22216,19.6842105 13.4210526,19.885275 13.4210526,20.1315789" id="Fill-10"></path>
                    <path d="M17,20.1315789 C17,20.3778829 16.7989355,20.5789474 16.5526316,20.5789474 C16.3063276,20.5789474 16.1052632,20.3778829 16.1052632,20.1315789 C16.1052632,19.885275 16.3063276,19.6842105 16.5526316,19.6842105 C16.7989355,19.6842105 17,19.885275 17,20.1315789" id="Fill-11"></path>
                    <path d="M21.4736842,20.1315789 C21.4736842,20.3778829 21.274916,20.5789474 21.0274356,20.5789474 C20.7782755,20.5789474 20.5789474,20.3778829 20.5789474,20.1315789 C20.5789474,19.885275 20.7782755,19.6842105 21.0274356,19.6842105 C21.274916,19.6842105 21.4736842,19.885275 21.4736842,20.1315789" id="Fill-12"></path>
                    <path d="M25.0526316,20.1315789 C25.0526316,20.3778829 24.8521256,20.5789474 24.6052632,20.5789474 C24.3589592,20.5789474 24.1578947,20.3778829 24.1578947,20.1315789 C24.1578947,19.885275 24.3589592,19.6842105 24.6052632,19.6842105 C24.8521256,19.6842105 25.0526316,19.885275 25.0526316,20.1315789" id="Fill-13"></path>
                    <path d="M29.5263158,20.1315789 C29.5263158,20.3778829 29.3258098,20.5789474 29.0789474,20.5789474 C28.8326434,20.5789474 28.6315789,20.3778829 28.6315789,20.1315789 C28.6315789,19.885275 28.8326434,19.6842105 29.0789474,19.6842105 C29.3258098,19.6842105 29.5263158,19.885275 29.5263158,20.1315789" id="Fill-14"></path>
                    <path d="M5.36842105,24.6041433 C5.36842105,24.8533035 5.16791511,25.0526316 4.92105263,25.0526316 C4.67474867,25.0526316 4.47368421,24.8533035 4.47368421,24.6041433 C4.47368421,24.3572228 4.67474867,24.1578947 4.92105263,24.1578947 C5.16791511,24.1578947 5.36842105,24.3572228 5.36842105,24.6041433" id="Fill-15"></path>
                    <path d="M9.84210526,24.6041433 C9.84210526,24.8533035 9.6410408,25.0526316 9.39473684,25.0526316 C9.14787437,25.0526316 8.94736842,24.8533035 8.94736842,24.6041433 C8.94736842,24.3572228 9.14787437,24.1578947 9.39473684,24.1578947 C9.6410408,24.1578947 9.84210526,24.3572228 9.84210526,24.6041433" id="Fill-16"></path>
                    <path d="M13.4210526,24.6041433 C13.4210526,24.8533035 13.22216,25.0526316 12.9722836,25.0526316 C12.7252085,25.0526316 12.5263158,24.8533035 12.5263158,24.6041433 C12.5263158,24.3572228 12.7252085,24.1578947 12.9722836,24.1578947 C13.22216,24.1578947 13.4210526,24.3572228 13.4210526,24.6041433" id="Fill-17"></path>
                    <path d="M17,24.6041433 C17,24.8533035 16.7989355,25.0526316 16.5526316,25.0526316 C16.3063276,25.0526316 16.1052632,24.8533035 16.1052632,24.6041433 C16.1052632,24.3572228 16.3063276,24.1578947 16.5526316,24.1578947 C16.7989355,24.1578947 17,24.3572228 17,24.6041433" id="Fill-18"></path>
                    <path d="M21.4736842,24.6041433 C21.4736842,24.8533035 21.274916,25.0526316 21.0274356,25.0526316 C20.7782755,25.0526316 20.5789474,24.8533035 20.5789474,24.6041433 C20.5789474,24.3572228 20.7782755,24.1578947 21.0274356,24.1578947 C21.274916,24.1578947 21.4736842,24.3572228 21.4736842,24.6041433" id="Fill-19"></path>
                    <path d="M25.0526316,24.6041433 C25.0526316,24.8533035 24.8521256,25.0526316 24.6052632,25.0526316 C24.3589592,25.0526316 24.1578947,24.8533035 24.1578947,24.6041433 C24.1578947,24.3572228 24.3589592,24.1578947 24.6052632,24.1578947 C24.8521256,24.1578947 25.0526316,24.3572228 25.0526316,24.6041433" id="Fill-20"></path>
                    <path d="M29.5263158,24.6041433 C29.5263158,24.8533035 29.3258098,25.0526316 29.0789474,25.0526316 C28.8326434,25.0526316 28.6315789,24.8533035 28.6315789,24.6041433 C28.6315789,24.3572228 28.8326434,24.1578947 29.0789474,24.1578947 C29.3258098,24.1578947 29.5263158,24.3572228 29.5263158,24.6041433" id="Fill-21"></path>
                    <path d="M5.36842105,29.0789474 C5.36842105,29.3252513 5.16791511,29.5263158 4.92105263,29.5263158 C4.67474867,29.5263158 4.47368421,29.3252513 4.47368421,29.0789474 C4.47368421,28.8326434 4.67474867,28.6315789 4.92105263,28.6315789 C5.16791511,28.6315789 5.36842105,28.8326434 5.36842105,29.0789474" id="Fill-22"></path>
                    <path d="M9.84210526,29.0789474 C9.84210526,29.3252513 9.6410408,29.5263158 9.39473684,29.5263158 C9.14787437,29.5263158 8.94736842,29.3252513 8.94736842,29.0789474 C8.94736842,28.8326434 9.14787437,28.6315789 9.39473684,28.6315789 C9.6410408,28.6315789 9.84210526,28.8326434 9.84210526,29.0789474" id="Fill-23"></path>
                    <path d="M13.4210526,29.0789474 C13.4210526,29.3252513 13.22216,29.5263158 12.9722836,29.5263158 C12.7252085,29.5263158 12.5263158,29.3252513 12.5263158,29.0789474 C12.5263158,28.8326434 12.7252085,28.6315789 12.9722836,28.6315789 C13.22216,28.6315789 13.4210526,28.8326434 13.4210526,29.0789474" id="Fill-24"></path>
                    <path d="M17,29.0789474 C17,29.3252513 16.7989355,29.5263158 16.5526316,29.5263158 C16.3063276,29.5263158 16.1052632,29.3252513 16.1052632,29.0789474 C16.1052632,28.8326434 16.3063276,28.6315789 16.5526316,28.6315789 C16.7989355,28.6315789 17,28.8326434 17,29.0789474" id="Fill-25"></path>
                    <path d="M21.4736842,29.0789474 C21.4736842,29.3252513 21.274916,29.5263158 21.0274356,29.5263158 C20.7782755,29.5263158 20.5789474,29.3252513 20.5789474,29.0789474 C20.5789474,28.8326434 20.7782755,28.6315789 21.0274356,28.6315789 C21.274916,28.6315789 21.4736842,28.8326434 21.4736842,29.0789474" id="Fill-26"></path>
                </g>
            </g>
        </g>
    </g>
</svg>