<?xml version="1.0" encoding="UTF-8"?>
<svg width="18px" height="30px" viewBox="0 0 18 30" version="1.1" xmlns="http://www.w3.org/2000/svg" xmlns:xlink="http://www.w3.org/1999/xlink">
    <!-- Generator: Sketch 46.2 (44496) - http://www.bohemiancoding.com/sketch -->
    <title>Page 1</title>
    <desc>Created with Sketch.</desc>
    <defs></defs>
    <g id="Welcome" stroke="none" stroke-width="1" fill="none" fill-rule="evenodd">
        <g id="home-copy-2" transform="translate(-548.000000, -816.000000)" fill="#CEBD98">
            <g id="Group-4" transform="translate(0.000000, 767.000000)">
                <g id="Group" transform="translate(541.000000, 49.000000)">
                    <path d="M8.41,26.25 L23.0167857,26.25 L23.0167857,3.21428571 L8.41,3.21428571 L8.41,26.25 Z M15.7139286,28.9875 C15.1525,28.9875 14.7014286,28.5353571 14.7014286,27.9739286 C14.7014286,27.4135714 15.1525,26.9614286 15.7139286,26.9614286 C16.2742857,26.9614286 16.7264286,27.4135714 16.7264286,27.9739286 C16.7264286,28.5353571 16.2742857,28.9875 15.7139286,28.9875 L15.7139286,28.9875 Z M13.5753571,1.46035714 L17.8525,1.46035714 C17.9907143,1.46035714 18.0989286,1.56964286 18.0989286,1.70785714 C18.0989286,1.84178571 17.9907143,1.95 17.8525,1.95 L13.5753571,1.95 C13.4371429,1.95 13.3278571,1.84178571 13.3278571,1.70785714 C13.3278571,1.56964286 13.4371429,1.46035714 13.5753571,1.46035714 L13.5753571,1.46035714 Z M22.4017857,0 L9.02607143,0 C7.91285714,0 7,0.912857143 7,2.02607143 L7,27.9739286 C7,29.0871429 7.91285714,30 9.02607143,30 L22.4017857,30 C23.515,30 24.4278571,29.0871429 24.4278571,27.9739286 L24.4278571,2.02607143 C24.4278571,0.912857143 23.515,0 22.4017857,0 L22.4017857,0 Z" id="Page-1"></path>
                </g>
            </g>
        </g>
    </g>
</svg>