<?xml version="1.0" encoding="UTF-8"?>
<svg width="91px" height="91px" viewBox="0 0 91 91" version="1.1" xmlns="http://www.w3.org/2000/svg" xmlns:xlink="http://www.w3.org/1999/xlink">
    <!-- Generator: Sketch 51.3 (57544) - http://www.bohemiancoding.com/sketch -->
    <title>Group 2</title>
    <desc>Created with Sketch.</desc>
    <defs></defs>
    <g id="Welcome" stroke="none" stroke-width="1" fill="none" fill-rule="evenodd">
        <g id="Stocktaking" transform="translate(-42.000000, -2079.000000)">
            <g id="Group-2" transform="translate(43.000000, 2080.000000)">
                <circle id="Oval" stroke="#D1C2A1" stroke-width="2" cx="44.5" cy="44.5" r="44.5"></circle>
                <path d="M48.2261171,27.2059138 C48.2261171,27.6682398 48.6709114,28.043049 49.2190576,28.043049 L51.9285425,28.043049 L30.0941716,46.4621456 C29.8951027,46.6298272 29.7975477,46.8519416 29.8034858,47.0717939 L29.8034858,55.2191941 C29.8034858,55.6815201 30.2481388,56.0563294 30.7964264,56.0563294 C31.3444312,56.0563294 31.7888014,55.6815201 31.7888014,55.2191941 L31.7888014,47.4005119 L53.3323453,29.2271409 L53.3323453,31.5133218 C53.3323453,31.9756478 53.7765741,32.3504571 54.3247203,32.3504571 C54.8728664,32.3504571 55.3169539,31.9756478 55.3169539,31.5133218 L55.3169539,27.2059138 C55.3169539,26.934739 55.1641177,26.6929722 54.9265924,26.5404188 C54.8739975,26.5059211 54.8173025,26.4767959 54.7587695,26.4527606 C54.6277064,26.3987519 54.4802428,26.3687785 54.3247203,26.3687785 L49.2184921,26.3687785 C48.6709114,26.3687785 48.2261171,26.7434464 48.2261171,27.2059138 M29,59.7960802 C29,59.2879458 29.4094484,58.8755284 29.9150379,58.8755284 L35.7146138,58.8755284 L35.7146138,49.5129318 C35.7146138,49.0049387 36.1242035,48.5930868 36.6296517,48.5930868 C37.1350998,48.5930868 37.5446896,49.0049387 37.5446896,49.5129318 L37.5446896,58.8755284 L43.710733,58.8755284 L43.710733,43.0774102 C43.710733,42.5691344 44.1208883,42.1574239 44.6263364,42.1574239 C45.1317846,42.1574239 45.541233,42.5691344 45.541233,43.0774102 L45.541233,58.8755284 L51.7068523,58.8755284 L51.7068523,35.0333618 C51.7068523,34.5250859 52.1165834,34.113234 52.6224557,34.113234 C53.1279039,34.113234 53.5374936,34.5250859 53.5374936,35.0333618 L53.5374936,58.8755284 L57.0851035,58.8755284 C57.5904103,58.8755284 58,59.2879458 58,59.7960802 C58,60.3043561 57.5904103,60.7160666 57.0851035,60.7160666 L52.6392804,60.7160666 L52.6050655,60.7160666 L44.6431612,60.7160666 L44.6090876,60.7160666 L36.6470419,60.7160666 L36.6296517,60.7160666 L36.6126856,60.7160666 L29.9150379,60.7160666 C29.4094484,60.7160666 29,60.3043561 29,59.7960802" id="Page-1" fill="#555555"></path>
            </g>
        </g>
    </g>
</svg>