<?xml version="1.0" encoding="UTF-8"?>
<svg width="91px" height="91px" viewBox="0 0 91 91" version="1.1" xmlns="http://www.w3.org/2000/svg" xmlns:xlink="http://www.w3.org/1999/xlink">
    <!-- Generator: Sketch 51.3 (57544) - http://www.bohemiancoding.com/sketch -->
    <title>Group 6</title>
    <desc>Created with Sketch.</desc>
    <defs>
        <polygon id="path-1" points="0 0 33 0 33 33 0 33"></polygon>
    </defs>
    <g id="Welcome" stroke="none" stroke-width="1" fill="none" fill-rule="evenodd">
        <g id="Stocktaking" transform="translate(-100.000000, -2212.000000)">
            <g id="Group-6" transform="translate(101.000000, 2213.000000)">
                <circle id="Oval-Copy-3" stroke="#D1C2A1" stroke-width="2" cx="44.5" cy="44.5" r="44.5"></circle>
                <g id="Group-3" transform="translate(29.000000, 27.000000)">
                    <mask id="mask-2" fill="white">
                        <use xlink:href="#path-1"></use>
                    </mask>
                    <g id="Clip-2"></g>
                    <path d="M16.43565,24.4921875 C15.723675,24.4921875 15.1465875,25.0688625 15.1465875,25.78125 C15.1465875,26.4936375 15.723675,27.0703125 16.43565,27.0703125 C17.147625,27.0703125 17.7247125,26.4936375 17.7247125,25.78125 C17.7247125,25.0688625 17.147625,24.4921875 16.43565,24.4921875 Z M17.7247125,12.954975 C17.7247125,12.243 17.147625,11.6659125 16.43565,11.6659125 C15.723675,11.6659125 15.1465875,12.243 15.1465875,12.954975 L15.1465875,21.2697375 C15.1465875,21.9817125 15.723675,22.5588 16.43565,22.5588 C17.147625,22.5588 17.7247125,21.9817125 17.7247125,21.2697375 L17.7247125,12.954975 Z M30.421875,21.3984375 L30.421875,7.734375 C30.421875,6.3129 29.2656375,5.15625 27.84375,5.15625 L26.168175,5.15625 L26.168175,6.4453125 C26.168175,7.1577 25.5910875,7.734375 24.8791125,7.734375 C24.1671375,7.734375 23.59005,7.1577 23.59005,6.4453125 L23.59005,5.15625 L17.7247125,5.15625 L17.7247125,6.4453125 C17.7247125,7.1577 17.147625,7.734375 16.43565,7.734375 C15.723675,7.734375 15.1465875,7.1577 15.1465875,6.4453125 L15.1465875,5.15625 L9.3460125,5.15625 L9.3460125,6.4453125 C9.3460125,7.1577 8.768925,7.734375 8.05695,7.734375 C7.3445625,7.734375 6.7678875,7.1577 6.7678875,6.4453125 L6.7678875,5.15625 L5.15625,5.15625 C3.734775,5.15625 2.578125,6.3129 2.578125,7.734375 L2.578125,27.84375 C2.578125,29.265225 3.734775,30.421875 5.15625,30.421875 L27.84375,30.421875 C29.2656375,30.421875 30.421875,29.265225 30.421875,27.84375 C30.421875,27.1313625 30.9989625,26.5546875 31.7109375,26.5546875 C32.4229125,26.5546875 33,27.1313625 33,27.84375 C33,30.6871125 30.6871125,33 27.84375,33 L5.15625,33 C2.3133,33 0,30.6871125 0,27.84375 L0,7.734375 C0,4.8910125 2.3133,2.578125 5.15625,2.578125 L6.7678875,2.578125 L6.7678875,1.2890625 C6.7678875,0.576675 7.3445625,0 8.05695,0 C8.768925,0 9.3460125,0.576675 9.3460125,1.2890625 L9.3460125,2.578125 L15.1465875,2.578125 L15.1465875,1.2890625 C15.1465875,0.576675 15.723675,0 16.43565,0 C17.147625,0 17.7247125,0.576675 17.7247125,1.2890625 L17.7247125,2.578125 L23.59005,2.578125 L23.59005,1.2890625 C23.59005,0.576675 24.1671375,0 24.8791125,0 C25.5910875,0 26.168175,0.576675 26.168175,1.2890625 L26.168175,2.578125 L27.84375,2.578125 C30.6871125,2.578125 33,4.8910125 33,7.734375 L33,21.3984375 C33,22.110825 32.4229125,22.6875 31.7109375,22.6875 C30.9989625,22.6875 30.421875,22.110825 30.421875,21.3984375 Z" id="Fill-1" fill="#555555" mask="url(#mask-2)"></path>
                </g>
            </g>
        </g>
    </g>
</svg>