<?xml version="1.0" encoding="UTF-8"?>
<svg width="91px" height="91px" viewBox="0 0 91 91" version="1.1" xmlns="http://www.w3.org/2000/svg" xmlns:xlink="http://www.w3.org/1999/xlink">
    <!-- Generator: Sketch 51.3 (57544) - http://www.bohemiancoding.com/sketch -->
    <title>Group 7</title>
    <desc>Created with Sketch.</desc>
    <defs>
        <polygon id="path-1" points="0 29 0 0 29 0 29 29"></polygon>
    </defs>
    <g id="Welcome" stroke="none" stroke-width="1" fill="none" fill-rule="evenodd">
        <g id="Stocktaking" transform="translate(-410.000000, -2079.000000)">
            <g id="Group-7" transform="translate(411.000000, 2080.000000)">
                <circle id="Oval-Copy" stroke="#D1C2A1" stroke-width="2" cx="44.5" cy="44.5" r="44.5"></circle>
                <g id="Page-1" transform="translate(30.000000, 30.000000)">
                    <mask id="mask-2" fill="white">
                        <use xlink:href="#path-1"></use>
                    </mask>
                    <g id="Clip-2"></g>
                    <path d="M28.1820526,15.1519407 C27.7303927,15.1519407 27.3643635,15.5177881 27.3643635,15.9685874 L27.3643635,18.1970596 L9.37184569,0.23921125 C9.20807539,0.0754951781 8.99122182,-0.00468702414 8.77643475,0.000211566992 L0.81768908,0.000211566992 C0.366158355,0.000211566992 0,0.365930068 0,0.816729363 C0,1.26752866 0.366158355,1.63298934 0.81768908,1.63298934 L8.45522282,1.63298934 L26.2076389,19.3515802 L23.9743959,19.3515802 C23.5228651,19.3515802 23.1567068,19.716912 23.1567068,20.1677113 C23.1567068,20.6186395 23.5228651,20.9838423 23.9743959,20.9838423 L28.1820526,20.9838423 C28.4469524,20.9838423 28.6830502,20.8581548 28.8320967,20.6628557 C28.8658065,20.6195418 28.8943501,20.5730052 28.9177274,20.5247928 C28.9705523,20.4170238 29,20.2957192 29,20.1677113 L29,15.9680717 C29,15.5177881 28.6338416,15.1519407 28.1820526,15.1519407 M25.916133,28.1838689 C25.916133,28.6347971 25.5502329,29 25.0984439,29 L19.1129495,29 L19.0978382,29 L19.0822103,29 L11.9671141,29 L11.936504,29 L4.82127874,29 L4.79066867,29 L0.81768908,29 C0.366158355,29 0,28.6347971 0,28.1838689 C0,27.7330696 0.366158355,27.3672222 0.81768908,27.3672222 L3.98796173,27.3672222 L3.98796173,6.21613699 C3.98796173,5.76520878 4.35412009,5.39987701 4.80577997,5.39987701 C5.25782732,5.39987701 5.62398568,5.76520878 5.62398568,6.21613699 L5.62398568,27.3672222 L11.1337971,27.3672222 L11.1337971,13.3522241 C11.1337971,12.9014248 11.4998263,12.536093 11.9516153,12.536093 C12.4032752,12.536093 12.7696919,12.9014248 12.7696919,13.3522241 L12.7696919,27.3672222 L18.28002,27.3672222 L18.28002,19.0614031 C18.28002,18.6107328 18.6460492,18.2452721 19.0978382,18.2452721 C19.5494981,18.2452721 19.9155273,18.6107328 19.9155273,19.0614031 L19.9155273,27.3672222 L25.0984439,27.3672222 C25.5502329,27.3672222 25.916133,27.7330696 25.916133,28.1838689" id="Fill-1" fill="#555555" mask="url(#mask-2)"></path>
                </g>
            </g>
        </g>
    </g>
</svg>