<?xml version="1.0" encoding="UTF-8"?>
<svg width="91px" height="91px" viewBox="0 0 91 91" version="1.1" xmlns="http://www.w3.org/2000/svg" xmlns:xlink="http://www.w3.org/1999/xlink">
    <!-- Generator: Sketch 51.3 (57544) - http://www.bohemiancoding.com/sketch -->
    <title>Group 6</title>
    <desc>Created with Sketch.</desc>
    <defs>
        <polygon id="path-1" points="0.625121916 0.946898331 18.0186541 0.946898331 18.0186541 14 0.625121916 14"></polygon>
        <polygon id="path-3" points="0 0.946898331 17.5165674 0.946898331 17.5165674 14 0 14"></polygon>
    </defs>
    <g id="Welcome" stroke="none" stroke-width="1" fill="none" fill-rule="evenodd">
        <g id="technology" transform="translate(-330.000000, -2235.000000)">
            <g id="Group-6" transform="translate(331.000000, 2236.000000)">
                <g id="Group-8" stroke="#D1C2A1" stroke-width="2">
                    <circle id="Oval-Copy-3" cx="44.5" cy="44.5" r="44.5"></circle>
                </g>
                <g id="Group-43" transform="translate(28.000000, 26.000000)">
                    <path d="M15.470567,26 C15.3734543,26 15.2754166,25.9710185 15.1912522,25.9094328 C14.9822285,25.7590912 14.9378341,25.4710875 15.0913648,25.2654999 L15.1496324,25.1885177 C15.3031631,24.9829302 15.598201,24.9385522 15.8081495,25.0897995 C16.0171732,25.2401411 16.0624925,25.5281448 15.9089618,25.7346381 L15.8497693,25.8125259 C15.7572809,25.9356973 15.6148489,26 15.470567,26" id="Fill-1" fill="#555555"></path>
                    <path d="M15.3852115,31 C15.1679729,31 14.9579757,30.8973878 14.8469427,30.7167476 L13.0764487,27.8671215 C12.9605881,27.6822058 12.9774845,27.454535 13.1198964,27.2824458 L14.8276326,25.2227198 C15.0291817,24.9800847 15.4129697,24.9277097 15.6869316,25.1051433 C15.9608936,25.2836458 16.0188238,25.6246175 15.8184816,25.8661837 L14.3424665,27.6469328 L15.9234803,30.1929979 C16.087616,30.4559416 15.9789968,30.7872935 15.6808972,30.9326607 C15.5867605,30.9775536 15.4853826,31 15.3852115,31" id="Fill-3" fill="#555555"></path>
                    <path d="M18.6166133,31 C18.5657336,31 18.514854,30.9946319 18.4639743,30.9828221 C18.1901931,30.9216258 18,30.703681 18,30.4535276 C18,30.3611964 18.0266513,30.2699387 18.0763195,30.1894172 L19.6511669,27.650307 L18.1780789,25.8713193 C18.069051,25.7403378 18.0327084,25.5717795 18.0775309,25.415031 C18.1356792,25.2088961 18.3210266,25.051074 18.5560423,25.0102764 C18.7922694,24.9694789 19.0309193,25.0521476 19.1726556,25.2228531 L20.8807593,27.2842027 C21.0224955,27.4559818 21.0394554,27.6846628 20.923159,27.8714726 L19.1569071,30.7165644 C19.0466678,30.8947853 18.8383034,31 18.6166133,31" id="Fill-5" fill="#555555"></path>
                    <path d="M13.1078763,20.3452468 L16.5,22.7213492 L19.8932109,20.3452468 L19.8932109,19.7811362 C18.1743175,21.3617856 16.4782556,21.2569408 16.1455666,21.2181938 L16.1390432,21.2181938 C15.1485866,21.2181938 13.9341628,20.4466728 13.1078763,19.8164643 L13.1078763,20.3452468 Z M16.5,24 C16.3934525,24 16.286905,23.9680907 16.1944914,23.9031325 L16.1847065,23.8951552 C16.1836192,23.8951552 16.182532,23.8951552 16.182532,23.8940156 L12.2554965,21.1441187 C12.2391882,21.1327225 12.2239671,21.1213263 12.2076589,21.1087905 C12.0771926,20.997108 12,20.8318635 12,20.6552228 L12,18.6643111 C12,18.450063 12.1130708,18.2529092 12.2935492,18.1514832 C12.4751148,18.0511969 12.694733,18.0637327 12.863252,18.1845321 C13.0404687,18.3076108 13.2165982,18.4420857 13.3872916,18.5845378 C14.5114762,19.5087676 15.5726021,20.0728782 16.1618748,20.0569236 C16.1955786,20.055784 16.2292824,20.0580632 16.2629862,20.0637613 C16.3184344,20.0728782 17.7329065,20.2631944 19.2234839,18.8512083 C19.4963759,18.5925152 19.8029717,18.3395201 20.1313119,18.1024797 C20.3020053,17.9805406 20.5216236,17.9657256 20.7042764,18.0671515 C20.8869292,18.1674379 21,18.3645917 21,18.5799794 L21,20.6552228 C21,20.8352823 20.9217202,21.0028061 20.786905,21.113349 C20.771684,21.1258848 20.7575501,21.1361413 20.7412418,21.1463979 L16.8239913,23.8894571 C16.8229041,23.8917363 16.8207296,23.892876 16.8185552,23.8951552 C16.8163808,23.8962948 16.8142063,23.8974344 16.8120319,23.898574 C16.7968108,23.9099702 16.7794153,23.9213664 16.7620198,23.9304833 C16.6804784,23.9772077 16.5902392,24 16.5,24 Z" id="Fill-7" fill="#555555"></path>
                    <path d="M15.4651593,26 C15.3701454,26 15.2733042,25.9644035 15.190167,25.8863209 C14.9827808,25.6957074 14.9380146,25.3294079 15.0905851,25.0687497 L16.159492,23.2395491 C16.2709507,23.0500839 16.4609786,22.9616667 16.6427841,23.0156356 C16.8245896,23.0696045 16.9634562,23.2567732 16.9936048,23.4875763 C16.9981728,23.5208762 17,23.5530279 17,23.5840313 C17,23.7172311 16.9652834,23.8412447 16.9049861,23.9399963 L15.8406471,25.761159 C15.7492876,25.9184725 15.6085938,26 15.4651593,26" id="Fill-9" fill="#555555"></path>
                    <path d="M18.4530736,4.56214367 C18.7770109,4.56214367 19.1032703,4.61573546 19.4121138,4.72291904 L22.1650003,5.67160775 C22.1673225,5.672748 22.1708057,5.67388826 22.1731278,5.67388826 C24.3443205,6.45724059 24.5881442,8.44811859 24.5985938,8.5313569 C24.600916,8.55302166 24.602077,8.57354618 24.602077,8.59521095 L24.602077,10.1630559 C24.742566,9.93386545 24.8168742,9.67616876 24.8168742,9.41733181 L24.8168742,5.29874572 C24.7762369,5.06841505 24.4708766,3.65108324 22.9649745,3.29532497 C22.7919757,3.25427594 22.6468425,3.1391106 22.5702122,2.98175599 C22.4924208,2.82440137 22.4924208,2.64196123 22.5678901,2.48346636 C22.5678901,2.48346636 22.778043,2.00342075 22.5934335,1.65450399 C22.4436561,1.36944128 22.0477327,1.23033067 21.7203122,1.16191562 L13.8436432,1.16191562 C11.2730439,1.16191562 9.18196478,3.21550741 9.18196478,5.74002281 L9.18196478,8.7981756 C9.18196478,9.12314709 9.25046765,9.44241733 9.37934593,9.73432155 L9.37934593,8.53933865 C9.37934593,8.49714937 9.38282913,8.45496009 9.39327872,8.41277081 C9.98658324,5.8004561 12.3447075,5.4709236 12.4457202,5.45838084 C12.4701026,5.45496009 12.495646,5.45381984 12.5211894,5.45381984 L15.1359092,5.45381984 C15.3147133,5.45381984 15.4911953,5.42645382 15.6572276,5.37400228 C16.0241244,5.25883694 16.6360059,5.04104903 17.4255305,4.74800456 C17.7552732,4.62371722 18.1047539,4.56214367 18.4530736,4.56214367 M24.0110946,14 C23.9960008,14 23.982068,14 23.9658131,13.9988597 C23.6569696,13.9760547 23.4189512,13.7240593 23.4189512,13.4196123 L23.4189512,8.63397948 C23.3887635,8.44811859 23.1437786,7.26339795 21.769077,6.76624857 L19.0208347,5.81870011 C18.6400052,5.68643101 18.2231826,5.69213227 17.8458363,5.83238312 C17.2815584,6.04332953 16.5071277,6.32611174 16.018319,6.48004561 C15.735019,6.56898518 15.4377862,6.61459521 15.1359092,6.61459521 L12.5687931,6.61459521 C12.3330968,6.65678449 10.9630394,6.97491448 10.5613107,8.6054732 L10.5613107,12.5929304 C10.5613107,12.9076397 10.3070373,13.1641961 9.98658324,13.1733181 C9.66496807,13.1824401 9.39792298,12.9395667 9.380507,12.6259977 C9.33406437,11.8221209 9.02638199,11.290764 8.77791395,10.986317 C8.27633361,10.3717218 8,9.59521095 8,8.7981756 L8,5.74002281 C8,2.57468643 10.6205251,0 13.8436432,0 L21.7806876,0 C21.8178417,0 21.8561569,0.00342075257 21.893311,0.0102622577 C22.7594659,0.175598632 23.3516094,0.553021665 23.6511643,1.13340935 C23.8740889,1.56442417 23.8798942,2.00798176 23.8241631,2.35233751 C25.7062504,3.12656784 25.982584,5.09007982 25.9953557,5.18129989 C25.9988389,5.20524515 26,5.22919042 26,5.25427594 L26,9.41733181 C26,9.90079818 25.8595111,10.3762828 25.5947881,10.7936146 C24.8331291,11.9931585 24.5974328,13.4903079 24.5951106,13.5051311 C24.5509901,13.7913341 24.3002,14 24.0110946,14" id="Fill-11" fill="#555555"></path>
                    <path d="M17.2426022,20.8448452 C17.3146736,20.8549585 18.8007169,21.0369965 20.3622636,19.6503613 C20.6494051,19.3941596 20.9708664,19.1447002 21.3174954,18.9109723 L21.3495272,18.8884985 C21.372407,18.8738905 21.3929988,18.8581588 21.4158786,18.8446746 C22.0382093,18.4334035 23.5162447,17.1119424 23.8342739,13.7037864 L23.8342739,9.0134985 C23.8045302,8.8303368 23.5631483,7.66282144 22.2086638,7.1717683 L19.5008389,6.23798074 C19.1256101,6.10875623 18.7137736,6.113251 18.3419768,6.25258873 C17.7871415,6.45934795 17.0241001,6.73802342 16.5424802,6.88972176 C16.2633466,6.97849338 15.9704851,7.02231734 15.6730476,7.02231734 L13.1425412,7.02231734 C12.9217511,7.06277023 11.5626907,7.37178537 11.1657261,8.98428252 L11.1657261,13.8307635 C11.170302,13.9757197 11.3201647,17.4614104 13.6115772,18.9503015 C13.627593,18.9615385 13.6424649,18.9716517 13.6561928,18.9817649 L13.6699207,18.9918781 C13.8552471,19.1132368 14.0405735,19.2458324 14.221324,19.3862938 C15.4030659,20.2976075 16.5207444,20.8538348 17.1396431,20.8381031 C17.1739628,20.8369794 17.2082825,20.8392268 17.2426022,20.8448452 M17.4714002,22 C17.3089536,22 17.1899786,21.9910105 17.1236272,21.9831446 L17.1167633,21.9831446 C15.8869738,21.9831446 14.3288591,20.9235036 13.5017541,20.2863706 C13.3427395,20.1638883 13.1802929,20.0470243 13.0178462,19.93915 C13.0052624,19.9312841 12.9938225,19.9234183 12.9812386,19.9144288 L12.9663667,19.9043155 C10.1269829,18.0580906 10.004576,14.0229148 10,13.85099 L10,13.8386294 L10,8.91910842 C10,8.87753184 10.004576,8.83483157 10.0148719,8.79437868 C10.5994509,6.22000168 12.9228951,5.89525487 13.0224222,5.88289426 C13.046446,5.87952319 13.0716138,5.8783995 13.0967816,5.8783995 L15.6730476,5.8783995 C15.8492221,5.8783995 16.0231086,5.8514309 16.1866992,5.7997411 C16.5482001,5.68624827 17.149939,5.4727469 17.9289963,5.18283452 C18.557047,4.94798302 19.2514491,4.93899349 19.8863636,5.15811331 L22.5987645,6.09302455 C22.6010525,6.09414824 22.6044844,6.09527194 22.6067724,6.09639563 C24.7460342,6.86837162 24.9862721,8.82921311 24.996568,8.91236627 C24.998856,8.93259272 25,8.95281916 25,8.9741693 L25,13.7285076 C25,13.7464867 24.998856,13.763342 24.997712,13.7801974 C24.652227,17.5569242 23.011745,19.1694214 22.065665,19.7941938 C22.0519372,19.8031833 22.0370653,19.8132965 22.0221934,19.8234098 L21.9787218,19.8537494 C21.6744204,20.059385 21.3929988,20.2762574 21.1436089,20.4976246 C19.6541336,21.8202094 18.1680903,22 17.4714002,22" id="Fill-13" fill="#555555"></path>
                    <path d="M15.6825301,26 C15.541793,26 15.401056,25.9630683 15.2777435,25.8880859 C14.9748238,25.7011893 14.9091465,25.3453024 15.1329854,25.0912574 L16.7682158,23.2323639 C16.9089528,23.0723267 17.1394935,22.9861528 17.3753956,23.0018208 C17.612638,23.0186079 17.8217331,23.1372369 17.9289613,23.3151803 C17.9758737,23.3946393 18,23.4819323 18,23.5703445 C18,23.6912118 17.954428,23.8176747 17.8673051,23.91504 L16.2320747,25.7672186 C16.0993798,25.9194218 15.8916251,26 15.6825301,26" id="Fill-15" fill="#555555"></path>
                    <path d="M16.451661,34 C16.4313899,34 16.4102373,33.9982337 16.3899662,33.9955841 C16.250712,33.9761543 16.1282037,33.8922527 16.059458,33.7686083 L16.0568139,33.7633093 C15.955458,33.5804922 15.992475,33.3535163 16.1458308,33.2122084 L16.248068,33.118592 C16.4287458,32.9525552 16.7072541,32.9622701 16.8755929,33.138905 C17.0439318,33.316423 17.0412877,33.5955061 16.8685421,33.7677251 L16.7689489,33.868407 C16.6843388,33.9523086 16.5697626,34 16.451661,34" id="Fill-17" fill="#555555"></path>
                    <path d="M16.5479574,34 C16.4298679,34 16.3153034,33.9523086 16.230702,33.868407 L16.131119,33.7677251 C15.9592723,33.5955061 15.9557472,33.316423 16.1240689,33.138905 C16.2923905,32.9622701 16.5717516,32.9525552 16.7515297,33.118592 L16.8537565,33.2122084 C17.0070966,33.3526332 17.0441097,33.5778426 16.9445268,33.7606597 L16.941883,33.7659588 C16.8740256,33.8904864 16.7515297,33.9752711 16.6114085,33.994701 C16.5902582,33.9982337 16.5691078,34 16.5479574,34" id="Fill-19" fill="#555555"></path>
                    <path d="M16.499999,34 C16.3738143,34 16.2476295,33.9513727 16.1515349,33.8560633 L16.1466817,33.8512006 C16.0505871,33.7549186 15.9972012,33.6245975 16.0001132,33.4894137 C16.0039958,33.3532574 16.0612643,33.2248814 16.1612414,33.1334621 L16.1631827,33.1315171 C16.2660719,33.0362076 16.4077871,32.9866078 16.5543555,33.0031411 C16.6620979,33.0138391 16.7620751,33.0614938 16.8377859,33.1324896 L16.8387566,33.1334621 C16.9377631,33.2248814 16.9960022,33.3532574 16.9998848,33.4884412 C17.0027968,33.623625 16.9503816,33.753946 16.854287,33.850228 L16.8494338,33.8550908 C16.7533392,33.9513727 16.6261838,34 16.499999,34" id="Fill-21" fill="#555555"></path>
                    <path d="M16.499978,24 C16.371541,24 16.243104,23.949912 16.1460409,23.8536645 C15.9744647,23.6808119 15.9509342,23.4097475 16.0921169,23.2103776 C16.2176126,23.0345786 16.4450736,22.9569914 16.6519455,23.0237753 C16.8588173,23.0885951 17,23.2810901 17,23.498138 L17,23.4991201 C17,23.6621516 16.9215652,23.8153619 16.788226,23.9086631 C16.7019477,23.9705365 16.6009628,24 16.499978,24" id="Fill-23" fill="#555555"></path>
                    <path d="M16.4987065,24 C16.4175445,24 16.3373603,23.9804744 16.2640211,23.9414232 C16.1026749,23.8555107 16,23.6885669 16,23.5050264 L16,23.4962399 C16,23.2824347 16.1378777,23.091084 16.3422496,23.024697 C16.5456436,22.95831 16.7705505,23.0286021 16.8986496,23.2014036 L16.902561,23.2072612 C16.983723,23.3166045 17.0159923,23.4542599 16.9925237,23.5889864 C16.9680773,23.723713 16.8908267,23.8418428 16.7773954,23.9170163 C16.6932998,23.9726642 16.5964921,24 16.4987065,24" id="Fill-25" fill="#555555"></path>
                    <path d="M17.3092304,24.4743988 L19.283876,27.3504076 L21.6816599,22.6875295 L20.4620883,22.2201072 L17.3092304,24.4743988 Z M19.3485663,29 C19.1778263,29 19.0155702,28.9137765 18.9137625,28.7640198 L16.1045057,24.6718054 C16.0546624,24.5980615 16.0207264,24.514107 16.00694,24.4244799 C15.9952745,24.3473326 15.998456,24.2656471 16.015424,24.1896343 C16.0493599,24.0489538 16.1288972,23.9275601 16.2423703,23.8470092 L16.5499145,24.3212386 L16.2487333,23.8424711 C16.2497938,23.8413366 16.2508543,23.840202 16.2519148,23.840202 L20.0887933,21.0969321 C20.2160529,21.0061705 20.371946,20.9778075 20.5204156,21.0175157 C20.5363231,21.0220538 20.5543515,21.0277264 20.5713195,21.0345335 L22.6424703,21.8286977 C22.7909399,21.8854237 22.9097155,22.0090864 22.9648614,22.1679192 C23.0210677,22.3256175 23.0094023,22.5026027 22.9330465,22.6512248 L19.8226085,28.7016212 C19.7335268,28.8740683 19.5680892,28.9863858 19.3846232,28.9988655 C19.3729577,29 19.3602318,29 19.3485663,29 Z" id="Fill-27" fill="#555555"></path>
                    <path d="M11.3183179,22.6872544 L13.7160614,27.3514703 L14.7129119,25.8992211 C14.7139723,25.896952 14.7150328,25.8958174 14.7160933,25.8935483 L15.6906737,24.4742016 L12.5368085,22.2198117 L11.3183179,22.6872544 Z M13.6503117,29 C13.6386464,29 13.6269811,29 13.6153159,28.9988654 C13.431853,28.9863852 13.2664182,28.8740628 13.177338,28.7016082 L10.0669524,22.6509481 C9.9905979,22.5023195 9.97893263,22.3264612 10.035138,22.1676215 C10.0902829,22.0087817 10.2090566,21.8851136 10.3575237,21.8283851 L12.4286396,21.0341864 C12.4498492,21.0262444 12.4710588,21.0183024 12.4933289,21.0137641 C12.637554,20.979727 12.7881421,21.0092258 12.9111577,21.0977223 L16.7606972,23.8490537 C16.8837128,23.9375501 16.9664302,24.0748331 16.9918817,24.2291345 C17.0173332,24.3845706 16.9823374,24.5445449 16.8953781,24.6716167 L15.5909887,26.5731555 C15.5888677,26.5742901 15.5878072,26.5765592 15.5867467,26.5776938 L14.0861686,28.7640095 C13.9833022,28.9137727 13.8221093,29 13.6503117,29 Z" id="Fill-29" fill="#555555"></path>
                    <g id="Group-33" transform="translate(16.000000, 20.000000)">
                        <mask id="mask-2" fill="white">
                            <use xlink:href="#path-1"></use>
                        </mask>
                        <g id="Clip-32"></g>
                        <path d="M2.63932353,12.8116333 L15.9382059,12.8116333 C16.2153824,12.8116333 16.4780294,12.6856333 16.6579706,12.4639667 C16.8367941,12.2434667 16.9127941,11.9541333 16.8680882,11.6683 L16.1337941,7.04013333 C15.9695,6.00413333 15.2810294,5.13963333 14.3355,4.78263333 L8.56955882,2.60446667 L9.82132353,5.2248 C9.9085,5.40796667 9.89955882,5.62496667 9.79785294,5.7988 C9.69614706,5.9738 9.51620588,6.08113333 9.32173529,6.08463333 L7.88555882,6.10796667 L8.25661765,6.84763333 C8.37732353,7.0868 8.32814706,7.37963333 8.13702941,7.56163333 L2.63932353,12.8116333 Z M15.9382059,14.0004667 L1.19867647,14.0004667 C0.990794118,14.0004667 0.799676471,13.8814667 0.699088235,13.6913 L0.694617647,13.6819667 C0.573911765,13.4509667 0.613029412,13.1639667 0.791852941,12.9773 L0.917029412,12.8454667 C0.923735294,12.8384667 0.930441176,12.8338 0.936029412,12.8279667 L7.04508824,6.99463333 L6.44826471,5.80346667 C6.35661765,5.62146667 6.36220588,5.40213333 6.46279412,5.2248 C6.5645,5.04746667 6.74667647,4.9378 6.9445,4.9343 L8.39855882,4.91213333 L6.91544118,1.8053 C6.8115,1.58946667 6.84614706,1.32696667 6.99926471,1.14613333 C7.15461765,0.9653 7.4005,0.899966667 7.61844118,0.981633333 L14.7233235,3.66496667 C16.0544412,4.1678 17.0256765,5.38696667 17.2570294,6.8453 L17.9902059,11.4746333 C18.0907941,12.1046333 17.9220294,12.7451333 17.5252647,13.2328 C17.1296176,13.7204667 16.5506765,14.0004667 15.9382059,14.0004667 Z" id="Fill-31" fill="#000000" mask="url(#mask-2)"></path>
                    </g>
                    <path d="M16.5054757,34 L16.4947943,34 C16.2947619,34 16.1151211,33.8788999 16.0384097,33.69432 C15.9607272,33.5077868 16.0034526,33.2939084 16.143281,33.1522994 L16.1491072,33.1464398 C16.3355452,32.95893 16.6355939,32.9501404 16.8317422,33.1278841 L16.8375684,33.1337438 C16.9890492,33.2724229 17.0405139,33.4902077 16.9667155,33.681624 C16.8929171,33.8730402 16.7093922,34 16.5054757,34" id="Fill-34" fill="#555555"></path>
                    <path d="M16.4988203,34 C16.3690294,34 16.2392384,33.9484313 16.1416512,33.8491858 L16.1396994,33.8472398 C15.9884392,33.6905876 15.9562355,33.4541498 16.0616296,33.2634428 L16.0645573,33.2576048 C16.1377477,33.1252775 16.2675387,33.0328429 16.417823,33.0065721 C16.5671314,32.9822472 16.7203433,33.026032 16.8325686,33.1281965 C16.9994427,33.2770647 17.0482363,33.5212865 16.9486974,33.7207504 C16.921373,33.7752382 16.8842898,33.8238879 16.8393997,33.8647537 L16.8335445,33.8696187 C16.7388849,33.9562152 16.6188526,34 16.4988203,34" id="Fill-36" fill="#555555"></path>
                    <g id="Group-40" transform="translate(0.000000, 20.000000)">
                        <mask id="mask-4" fill="white">
                            <use xlink:href="#path-3"></use>
                        </mask>
                        <g id="Clip-39"></g>
                        <path d="M9.5121,2.60446667 L3.708225,4.78263333 C2.756475,5.13963333 2.063475,6.00413333 1.8981,7.04013333 L1.158975,11.6683 C1.11285,11.9541333 1.190475,12.2446333 1.3716,12.4639667 C1.5516,12.6856333 1.81485,12.8116333 2.09385,12.8116333 L15.48135,12.8116333 L9.947475,7.56163333 C9.7551,7.37963333 9.7056,7.0868 9.8271,6.84763333 L10.2006,6.10796667 L8.7561,6.08463333 C8.559225,6.08113333 8.376975,5.9738 8.2746,5.7988 C8.17335,5.62496667 8.16435,5.40796667 8.2521,5.2248 L9.5121,2.60446667 Z M16.94385,14.0004667 L2.09385,14.0004667 C1.47735,14.0004667 0.895725,13.7204667 0.497475,13.2328 C0.0981,12.7451333 -0.0729,12.1046333 0.02835,11.4746333 L0.767475,6.8453 C1.00035,5.38696667 1.977975,4.1678 3.318975,3.66496667 L10.469475,0.981633333 C10.68885,0.899966667 10.93635,0.9653 11.0916,1.14613333 C11.24685,1.32696667 11.2806,1.58946667 11.175975,1.8053 L9.6831,4.91213333 L11.148975,4.9343 C11.346975,4.9378 11.53035,5.04746667 11.632725,5.2248 C11.733975,5.40213333 11.7396,5.62146667 11.64735,5.80346667 L11.0466,6.99463333 L17.19585,12.8279667 C17.201475,12.8338 17.208225,12.8384667 17.21385,12.8454667 L17.340975,12.9773 C17.3421,12.9796333 17.343225,12.9808 17.345475,12.9819667 L17.347725,12.9843 C17.511975,13.1546333 17.561475,13.4101333 17.473725,13.6318 C17.38485,13.8558 17.1756,14.0004667 16.94385,14.0004667 Z" id="Fill-38" fill="#000000" mask="url(#mask-4)"></path>
                    </g>
                    <path d="M16,31.5412054 L16.9931455,33 L18,31.5215252 L17.156131,27.2250923 C17.1241432,27.0651907 17.1713633,26.901599 17.2856055,26.7687577 L17.926885,26.0246002 L16.9946687,25 L16.0685453,26.0147601 L16.7189642,26.7687577 C16.8332064,26.902829 16.8789033,27.0651907 16.8484387,27.2250923 L16,31.5412054 Z M16.9966954,34 C16.7836329,34 16.5877529,33.881139 16.4858036,33.6923598 L15.1306802,31.1869565 C15.0688234,31.0715914 15.0459134,30.9387468 15.0653869,30.8082328 L15.6988469,26.7541407 L15.1043338,25.8871546 C14.9829111,25.7088632 14.9657286,25.4769677 15.0619504,25.282362 C15.0768419,25.2520641 15.0940243,25.2229315 15.1146433,25.1949642 L16.5087136,23.2710475 C16.5797344,23.1591784 16.6851202,23.0729459 16.8145614,23.0298296 C17.0551158,22.950589 17.3174347,23.0321602 17.4663494,23.2395843 L18.8867661,25.2054519 C18.9898609,25.347619 19.0242258,25.5294064 18.9829879,25.700706 C18.9646599,25.7706243 18.9360225,25.8370466 18.8959301,25.8964771 L18.3082899,26.7541407 L18.937168,30.7895879 C18.9428955,30.8198858 18.9451865,30.851349 18.9451865,30.8816469 L18.9451865,30.8828122 C18.9451865,30.9830284 18.9199855,31.0809139 18.8718746,31.1683117 L17.5075873,33.6923598 C17.405638,33.881139 17.209758,34 16.9966954,34 Z" id="Fill-41" fill="#555555"></path>
                </g>
            </g>
        </g>
    </g>
</svg>