<?xml version="1.0" encoding="UTF-8"?>
<svg width="91px" height="91px" viewBox="0 0 91 91" version="1.1" xmlns="http://www.w3.org/2000/svg" xmlns:xlink="http://www.w3.org/1999/xlink">
    <!-- Generator: Sketch 51.3 (57544) - http://www.bohemiancoding.com/sketch -->
    <title>Group 14</title>
    <desc>Created with Sketch.</desc>
    <defs>
        <polygon id="path-1" points="0.0001184 0.235068966 36.8015024 0.235068966 36.8015024 33.9999121 0.0001184 33.9999121"></polygon>
    </defs>
    <g id="Welcome" stroke="none" stroke-width="1" fill="none" fill-rule="evenodd">
        <g id="technology" transform="translate(-793.000000, -2233.000000)">
            <g id="Group-14" transform="translate(794.000000, 2234.000000)">
                <g id="Group-5" stroke="#D1C2A1" stroke-width="2">
                    <circle id="Oval-Copy-4" cx="44.5" cy="44.5" r="44.5"></circle>
                </g>
                <g id="Group-8" transform="translate(26.000000, 28.000000)">
                    <path d="M19.2815373,6.80076727 C18.0332823,6.80076727 16.8431866,7.64412259 16.7346805,8.60515539 C16.6961969,8.95305832 16.7942865,9.26837364 17.0266344,9.53993707 C17.3796412,9.95271348 18.0020326,10.1995345 18.6918425,10.1995345 C19.978581,10.1995345 21.1571027,9.3736799 21.2650302,8.39695677 C21.3124835,7.97995603 21.1316399,7.66946851 20.9719188,7.48239148 C20.6079168,7.05573516 19.9759769,6.80076727 19.2815373,6.80076727 M18.6918425,12 C17.4997213,12 16.4230507,11.5401526 15.7375811,10.738437 C15.1797147,10.0857796 14.9245082,9.25419199 15.0194149,8.39695677 C15.2309296,6.52286736 17.1426637,5 19.2815373,5 C20.4794455,5 21.5656646,5.46859778 22.2624189,6.28570197 C22.8202853,6.94016983 23.0754918,7.76391224 22.9805851,8.60515539 C22.7702278,10.5079098 20.8862713,12 18.6918425,12" id="Fill-1" fill="#555555"></path>
                    <path d="M15.9112097,23.969908 C15.7279792,24.9958839 15.886615,25.8434293 16.3699007,26.4215679 C16.7852436,26.9178279 17.4416144,27.2022017 18.2676886,27.2441681 C18.8349037,27.2729283 19.5081834,27.1182689 20.1162872,26.8186346 C20.4255655,26.666323 20.6748941,26.4987508 20.8575097,26.3435045 C20.1900713,25.7178235 19.7187755,24.5994041 20.1845375,22.043562 C20.1848449,22.0403338 20.1854598,22.0371056 20.1860746,22.0338774 C20.1937605,21.9954327 20.214666,21.9018153 20.3191934,21.4404783 C20.4722954,20.761679 20.7575938,19.4994587 21.0671795,18.0925569 C21.2790013,17.0712766 21.1437305,16.2199161 20.6761239,15.6300387 C20.2746155,15.1232136 19.6265454,14.8224055 18.8017009,14.7596026 C18.236023,14.7170493 17.5578243,14.8549808 16.9423422,15.1390611 C16.6287598,15.283449 16.3745122,15.4448582 16.1879,15.5957025 C16.8378147,16.2375244 17.2783671,17.3676827 16.7428177,19.9109055 C16.7418954,19.9141337 16.7412805,19.916775 16.7406657,19.9197097 C16.7114595,20.055 16.0108182,23.4510507 15.9112097,23.969908 M18.4100304,28.9994204 C18.3297902,28.9994204 16.2816672,29.074549 14.9363376,27.5141618 C14.1004255,26.5454128 13.8283467,25.2039551 14.1034998,23.6690999 C14.1044221,23.6658717 14.1047295,23.66235 14.1056518,23.6591219 C14.1981894,23.1772419 14.8976009,19.7817781 14.9443308,19.5640224 C15.4457551,17.1830892 14.9178915,16.8253476 14.6922352,16.6727425 C14.5462043,16.5735491 14.3454501,16.4376719 14.2083347,16.195558 C14.0973511,15.9995191 13.9568539,15.5992242 14.2507605,15.1058988 C14.8868407,13.9930554 16.9629402,12.8620167 18.9477319,13.0137414 C20.2899872,13.1158695 21.4234951,13.6696499 22.1395081,14.5729548 C22.9326869,15.5739857 23.1841676,16.9101608 22.8662812,18.4379727 C22.8656664,18.4412009 22.8650515,18.4444291 22.8641292,18.4476573 C22.5530063,19.8610154 22.2667856,21.1285182 22.1127613,21.8099588 C22.0451259,22.1087126 22.0017778,22.3009364 21.9904027,22.3528808 C21.5572287,24.738803 22.0940079,25.082458 22.3233534,25.2294872 C22.4724587,25.3248654 22.6765947,25.4554601 22.8204736,25.6943458 C22.936991,25.88745 23.0885558,26.2845167 22.8081763,26.7845919 C22.2268192,27.8675013 20.318886,28.9994204 18.4100304,28.9994204" id="Fill-3" fill="#555555"></path>
                    <g id="Group-7">
                        <mask id="mask-2" fill="white">
                            <use xlink:href="#path-1"></use>
                        </mask>
                        <g id="Clip-6"></g>
                        <path d="M18.4006624,1.98422241 C9.2288064,1.98422241 1.7666464,8.67723966 1.7666464,16.9037741 C1.7666464,25.1306017 9.2288064,31.8233259 18.4006624,31.8233259 C21.3171504,31.8233259 24.1856864,31.1365845 26.6969504,29.8369638 C26.9198384,29.7220672 27.1809104,29.7059466 27.4159344,29.7932914 L32.5524224,31.6978776 L31.2068064,27.0360672 C31.1239264,26.749119 31.1946704,26.4401879 31.3938784,26.21655 C33.7757904,23.5469638 35.0346784,20.3269293 35.0346784,16.903481 C35.0349744,8.67723966 27.5728144,1.98422241 18.4006624,1.98422241 M33.8829424,33.9999121 C33.7787504,33.9999121 33.6742624,33.9817397 33.5733264,33.9445155 L27.1604864,31.5665672 C24.4840544,32.8799638 21.4645584,33.5722741 18.4006624,33.5722741 C13.5009744,33.5722741 8.8907744,31.8488259 5.4192864,28.7187741 C1.9247104,25.5679121 0.0001184,21.3718431 0.0001184,16.9037741 C0.0001184,12.4357052 1.9247104,8.23992931 5.4195824,5.08906724 C8.8910704,1.95872241 13.5012704,0.234981034 18.4006624,0.234981034 C23.3003504,0.234981034 27.9105504,1.95901552 31.3820384,5.08906724 C34.8769104,8.23992931 36.8015024,12.4357052 36.8015024,16.9037741 C36.8015024,20.5491017 35.4677264,24.1185155 33.0360864,27.0079293 L34.7324624,32.8849466 C34.8239264,33.2026707 34.7271344,33.5441362 34.4823424,33.7677741 C34.3162864,33.9198948 34.1013904,33.9999121 33.8829424,33.9999121" id="Fill-5" fill="#555555" mask="url(#mask-2)"></path>
                    </g>
                </g>
            </g>
        </g>
    </g>
</svg>