<?xml version="1.0" encoding="UTF-8"?>
<svg width="91px" height="91px" viewBox="0 0 91 91" version="1.1" xmlns="http://www.w3.org/2000/svg" xmlns:xlink="http://www.w3.org/1999/xlink">
    <!-- Generator: Sketch 51.3 (57544) - http://www.bohemiancoding.com/sketch -->
    <title>Group 11</title>
    <desc>Created with Sketch.</desc>
    <defs>
        <polygon id="path-1" points="0 0 33 0 33 33 0 33"></polygon>
    </defs>
    <g id="Welcome" stroke="none" stroke-width="1" fill="none" fill-rule="evenodd">
        <g id="technology" transform="translate(-563.000000, -2102.000000)">
            <g id="Group-11" transform="translate(564.000000, 2103.000000)">
                <g id="Group-9" stroke="#D1C2A1" stroke-width="2">
                    <circle id="Oval-Copy" cx="44.5" cy="44.5" r="44.5"></circle>
                </g>
                <g id="Group-3" transform="translate(28.000000, 27.000000)">
                    <mask id="mask-2" fill="white">
                        <use xlink:href="#path-1"></use>
                    </mask>
                    <g id="Clip-2"></g>
                    <path d="M17.6796075,31.8399975 L16.9927119,31.8399975 L16.9927119,10.7112999 L24.4081899,10.7112999 C24.4507699,10.7112999 24.4947537,10.7363311 24.5401412,10.7363311 C24.5607294,10.7372757 24.5808496,10.7368034 24.6009699,10.734442 C25.3697502,10.8260656 25.9471542,11.4877395 25.9401356,12.2693743 L25.9401356,20.8130437 C25.9401356,20.8871928 25.8872614,20.9688984 25.8872614,21.0553269 C25.8872614,21.1422277 25.9401356,21.2239333 25.9401356,21.2976101 L25.9401356,23.4852428 C25.9452826,25.6993237 25.0773048,27.8246146 23.5275785,29.3921347 C21.9778521,30.9596548 19.8736494,31.8399975 17.6796075,31.8399975 M6.89562714,23.4852428 L6.89562714,12.2693743 C6.89562714,11.4754601 7.49408729,10.811897 8.27737288,10.7363311 C8.30919094,10.7386925 8.34100899,10.7386925 8.37282704,10.7363311 C8.41821456,10.7363311 8.46173043,10.7112999 8.50431047,10.7112999 L15.8435187,10.7112999 L15.8435187,31.8399997 L15.1889091,31.8399975 C10.6136602,31.8433035 6.90077418,28.1032638 6.89562714,23.4852428 M16.4564841,2.58513206 C18.5775317,2.58418749 20.6007855,3.49097828 22.0223038,5.08116816 C22.0550577,5.16051235 22.1055923,5.23135538 22.1696963,5.2885021 C22.1954315,5.30786586 22.2225704,5.32534047 22.251581,5.34045365 C23.2285824,6.536284 23.819088,8.00604073 23.9426169,9.55136336 L8.96988345,9.55136336 C9.10885347,7.8993039 9.77422511,6.33650666 10.8672688,5.09911506 C10.8817741,5.08872475 10.8962794,5.08400188 10.9098489,5.07219471 C10.9547685,5.03252261 10.9936052,4.9862385 11.0244874,4.93428694 C12.438987,3.4324147 14.4032839,2.58324292 16.4564841,2.58513206 M29.2538922,13.6111413 L27.0893288,13.6111413 L27.0893288,12.2693743 C27.0958795,11.0348164 26.2676743,9.95422406 25.0819839,9.64959903 C24.9841902,7.90591592 24.3684173,6.23213126 23.3142104,4.84738616 L26.5320449,1.18055092 C26.6728866,1.0265854 26.7201458,0.807916581 26.6560417,0.609083809 C26.5919377,0.409306464 26.4262967,0.261008388 26.2227547,0.21991943 C26.0187449,0.179302759 25.80912,0.252979511 25.6743612,0.412140185 L22.5571279,3.96987716 C19.2569407,0.64970048 13.9437938,0.568467139 10.5448771,3.785213 L7.40331225,0.200083382 C7.26761762,0.0423395678 7.05892862,-0.0294480361 6.8567904,0.0111686345 C6.65418427,0.052257592 6.48854323,0.199611095 6.4239713,0.397971579 C6.35893146,0.595859777 6.40431897,0.813584023 6.54235317,0.968494116 L9.75597652,4.63485707 C8.60163628,6.0545514 7.92222726,7.80626339 7.81460738,9.63920872 C6.60411763,9.92541456 5.74783768,11.0145081 5.74643394,12.2693743 L5.74643394,13.6111413 L3.74610782,13.6111413 C1.69103593,13.6111413 0,15.3297932 0,17.4040771 L0,17.7913523 C0,18.1120351 0.257351899,18.3713206 0.574596603,18.3713206 C0.891841307,18.3713206 1.14919321,18.1120351 1.14919321,17.7913523 L1.14919321,17.4040771 C1.15761563,15.9579347 2.31335961,14.786191 3.74610782,14.7710778 L5.74643394,14.7710778 L5.74643394,20.4054602 L4.48868502,20.4054602 C2.43361314,20.4054602 0.738833905,22.0565751 0.738833905,24.1303867 L0.738833905,25.3044918 C0.738833905,25.6251746 0.995717891,25.8844601 1.31343051,25.8844601 C1.63067521,25.8844601 1.88802711,25.6251746 1.88802711,25.3044918 L1.88802711,24.1303867 C1.88802711,22.6960515 3.06716672,21.565869 4.48868502,21.565869 L5.74643394,21.565869 L5.74643394,23.4852428 C5.74315855,24.7443596 5.98881264,25.9916692 6.46889091,27.1539672 C4.4652894,27.2295331 2.87813005,28.8882046 2.87298301,30.9119538 L2.87298301,32.1077842 C2.87298301,32.4279947 3.13033491,32.6877524 3.44757962,32.6877524 C3.76529223,32.6877524 4.02264413,32.4279947 4.02264413,32.1077842 L4.02264413,30.9119538 C4.02264413,29.4776186 5.18681054,28.2770654 6.60739302,28.2770654 L7.04629498,28.2770654 C8.73967048,31.1967428 11.8377194,32.9928498 15.189377,32.9999341 L17.6800754,32.9999341 C21.0747809,33.0126858 24.2111987,31.1750176 25.884454,28.1939429 L26.4978873,28.1939429 C27.9194056,28.2019718 29.0657913,29.3708818 29.0597085,30.8056893 L29.0597085,32.1073119 C29.0597085,32.4275224 29.3170604,32.6872802 29.6343051,32.6872802 C29.9520177,32.6872802 30.2089017,32.4275224 30.2089017,32.1073119 L30.2089017,30.8056893 C30.2145166,28.7304608 28.5534271,27.0429798 26.4974194,27.0340064 L26.4417378,27.0340064 C26.8820435,25.95672 27.0893288,24.7429428 27.0893288,23.4852428 L27.0893288,21.6485192 L28.511315,21.6485192 C29.9328333,21.6485192 31.1119729,22.802316 31.1119729,24.2366512 L31.1119729,25.3044918 C31.1119729,25.6251746 31.3693248,25.8844601 31.6865695,25.8844601 C32.0042821,25.8844601 32.2611661,25.6251746 32.2611661,25.3044918 L32.2611661,24.2366512 C32.2611661,22.1623673 30.5663869,20.4885826 28.511315,20.4885826 L27.0893288,20.4885826 L27.0893288,14.7710778 L29.2538922,14.7710778 C30.6866404,14.786191 31.8423844,15.9579347 31.8508068,17.4040771 L31.8508068,17.7913523 C31.8508068,18.1120351 32.1076908,18.3713206 32.4254034,18.3713206 C32.7426481,18.3713206 33,18.1120351 33,17.7913523 L33,17.4040771 C33,15.3297932 31.3089641,13.6111413 29.2538922,13.6111413" id="Fill-1" fill="#555555" mask="url(#mask-2)"></path>
                </g>
            </g>
        </g>
    </g>
</svg>