<?xml version="1.0" encoding="UTF-8"?>
<svg width="91px" height="91px" viewBox="0 0 91 91" version="1.1" xmlns="http://www.w3.org/2000/svg" xmlns:xlink="http://www.w3.org/1999/xlink">
    <!-- Generator: Sketch 51.3 (57544) - http://www.bohemiancoding.com/sketch -->
    <title>Group 6</title>
    <desc>Created with Sketch.</desc>
    <defs></defs>
    <g id="Welcome" stroke="none" stroke-width="1" fill="none" fill-rule="evenodd">
        <g id="accounts-copy-2" transform="translate(-410.000000, -921.000000)">
            <g id="Group-2" transform="translate(43.000000, 922.000000)">
                <g id="Group-6" transform="translate(368.000000, 0.000000)">
                    <g id="Page-1" transform="translate(26.000000, 25.000000)" fill="#555555">
                        <g id="Group-7">
                            <path d="M20.8527321,10.3854904 C20.9432198,10.3854904 21.0362326,10.364663 21.1225116,10.3209255 C21.157444,10.3034305 24.6641562,8.54018439 26.3939434,7.99950557 C26.7074936,7.90120033 26.8813141,7.56962842 26.7815672,7.25930044 C26.683083,6.94938901 26.3505935,6.77652174 26.0340971,6.87441043 C24.2121388,7.44466413 20.7294164,9.1962469 20.58169,9.27039238 C20.2887625,9.41785024 20.1717599,9.77274881 20.320328,10.0630825 C20.4259671,10.2671908 20.6359826,10.3854904 20.8527321,10.3854904" id="Fill-3"></path>
                            <path d="M35.1504966,9.2058275 C34.8213741,9.2058275 34.5545407,9.46991869 34.5545407,9.79565893 L34.5545407,32.7920037 C34.5545407,33.7671417 33.752778,34.5606649 32.7675148,34.5606649 L18.4692032,34.5606649 L18.4692032,33.2039693 C19.3378846,32.9036385 21.6004968,32.2025888 23.8307018,32.2025888 C29.0209051,32.2025888 32.5448731,33.3397638 32.5798055,33.3514272 C32.7590974,33.4101604 32.9590119,33.3810021 33.1159975,33.2697838 C33.2712996,33.1589822 33.3630498,32.9811163 33.3630498,32.7920037 L33.3630498,6.84733484 C33.3630498,6.57074721 33.1694483,6.33164888 32.8967228,6.27208257 C32.8967228,6.27208257 32.4299748,6.16836221 31.6315791,6.02340363 C31.3087697,5.96467042 30.9973238,6.17710971 30.9375599,6.49660174 C30.8782168,6.81734341 31.0920202,7.12433901 31.4156714,7.18348877 C31.7199624,7.23888961 31.9750113,7.28762568 32.1715589,7.32636461 L32.1715589,32.0084776 C30.8218199,31.6577445 27.8239429,31.0225094 23.8307018,31.0225094 C21.2351792,31.0225094 18.6851109,31.8664349 17.8963953,32.1526031 C17.1952212,31.8460241 15.0752849,31.0225094 12.5109069,31.0225094 C8.40739714,31.0225094 5.02694681,31.6927345 3.57493565,32.0330539 L3.57493565,7.30387104 C4.76432218,7.01395389 8.27818919,6.2575034 12.5109069,6.2575034 C14.6834523,6.2575034 16.5462353,6.92689543 17.2772914,7.22930901 L17.2772914,30.4330945 C17.2772914,30.6455338 17.3930314,30.8417277 17.5794781,30.9462812 C17.7659247,31.0512512 17.9961421,31.0483354 18.1800636,30.9383668 C18.2389858,30.9037933 24.1417268,27.4143739 29.3811723,25.6861178 C29.6248576,25.6053075 29.7885771,25.3803718 29.7885771,25.1262778 L29.7885771,0.950686646 C29.7885771,0.757408548 29.6926181,0.576626878 29.5318447,0.466241758 C29.3723339,0.355856637 29.166948,0.330447232 28.9830266,0.398344495 C24.2166421,2.16783881 19.393019,5.13823993 19.3446186,5.16823136 C19.0655799,5.34109862 18.9809845,5.7047447 19.1552258,5.98049923 C19.3290463,6.2566703 19.6964683,6.34122947 19.9763487,6.16836221 C20.0201194,6.14045352 24.2166421,3.55619205 28.5970862,1.81294023 L28.5970862,24.704315 C24.5301924,26.1026654 20.2840067,28.386596 18.4687823,29.4088039 L18.4687823,6.84733484 C18.4687823,6.62364876 18.3412578,6.41995697 18.1396598,6.319569 C18.0369668,6.26958328 15.5954837,5.07825707 12.5109069,5.07825707 C7.12752296,5.07825707 2.98908071,6.2312609 2.81483937,6.28083007 C2.55936958,6.35247626 2.38302388,6.58449329 2.38302388,6.84733484 L2.38302388,32.7920037 C2.38302388,32.9761178 2.47140717,33.1510678 2.61955439,33.262286 C2.72477259,33.3410135 2.85061356,33.3818352 2.97897977,33.3818352 C3.03369323,33.3818352 3.08840669,33.3739207 3.14227841,33.3585085 C3.18310307,33.3476782 7.30260604,32.2025888 12.5109069,32.2025888 C14.6889237,32.2025888 16.5504441,32.8732305 17.2772914,33.174811 L17.2772914,34.5606649 L2.97897977,34.5606649 C1.99329567,34.5606649 1.19153298,33.7671417 1.19153298,32.7920037 L1.19153298,9.79565893 C1.19153298,9.46991869 0.924699629,9.2058275 0.595997972,9.2058275 C0.266875443,9.2058275 4.208728e-05,9.46991869 4.208728e-05,9.79565893 L4.208728e-05,32.7920037 C4.208728e-05,34.4177891 1.33631323,35.7403278 2.97897977,35.7403278 L32.7675148,35.7403278 C34.4101813,35.7403278 35.7464525,34.4177891 35.7464525,32.7920037 L35.7464525,9.79565893 C35.7464525,9.46991869 35.48004,9.2058275 35.1504966,9.2058275" id="Fill-5"></path>
                        </g>
                        <g id="Group-24" transform="translate(5.000000, 11.000000)">
                            <path d="M14.2643588,3.78172685 C14.3683819,3.99590232 14.5764282,4.11959958 14.7907159,4.11959958 C14.8797597,4.11959958 14.9717161,4.09774494 15.0570151,4.05228729 C15.0919668,4.0334923 18.5588497,2.1837156 20.2685738,1.61593206 C20.5785628,1.51277816 20.750409,1.16528939 20.6522111,0.839655256 C20.5544294,0.514021125 20.2257163,0.333064708 19.9132308,0.435781515 C18.1119663,1.03416155 14.6683847,2.87126256 14.5227523,2.94950217 C14.2327358,3.10423302 14.1170621,3.47707317 14.2643588,3.78172685" id="Fill-8"></path>
                            <path d="M14.2643588,11.2063162 C14.3683819,11.4204916 14.5764282,11.5441889 14.7907159,11.5441889 C14.8797597,11.5441889 14.9717161,11.5223343 15.0570151,11.4768766 C15.0919668,11.4585187 18.5588497,9.60830491 20.2685738,9.04095846 C20.5785628,8.93780457 20.750409,8.5898787 20.6522111,8.26468166 C20.5544294,7.93861044 20.2257163,7.75765402 19.9132308,7.86037083 C18.1119663,8.45875086 14.6683847,10.296289 14.5227523,10.3745286 C14.2327358,10.5292594 14.1170621,10.9016625 14.2643588,11.2063162" id="Fill-10"></path>
                            <path d="M8.44518015,1.37111638 C4.80811546,0.474639064 0.675068499,1.61676253 0.501141827,1.66571693 C0.187408069,1.75400967 0.000582529523,2.09319368 0.0850493104,2.42363583 C0.155785038,2.70031557 0.393373865,2.88214617 0.653015595,2.88214617 C0.704194975,2.88214617 0.755374354,2.87515269 0.806553734,2.86116572 C0.84566643,2.84936421 4.82517526,1.75007584 8.17638438,2.57574412 C8.49178251,2.65310955 8.81009329,2.44680175 8.88498994,2.11417413 C8.95905441,1.78198361 8.76224265,1.44935599 8.44518015,1.37111638" id="Fill-12"></path>
                            <path d="M8.44518015,5.08360773 C4.80811546,4.1880046 0.675068499,5.32925388 0.501141827,5.37820828 C0.187408069,5.46650102 0.000582529523,5.80568503 0.0850493104,6.13612718 C0.155785038,6.41280692 0.393373865,6.59463752 0.653015595,6.59463752 C0.704194975,6.59463752 0.755374354,6.58764403 0.806553734,6.57321997 C0.84566643,6.56185556 4.82517526,5.46256718 8.17638438,6.28823547 C8.49178251,6.3656009 8.81009329,6.1592931 8.88498994,5.82666548 C8.95905441,5.49447496 8.76224265,5.16141025 8.44518015,5.08360773" id="Fill-14"></path>
                            <path d="M14.2643588,14.9188512 C14.3683819,15.1330267 14.5764282,15.2562869 14.7907159,15.2562869 C14.8797597,15.2562869 14.9717161,15.2348693 15.0570151,15.1894117 C15.0919668,15.1710538 18.5588497,13.32084 20.2685738,12.7530564 C20.5785628,12.6503396 20.750409,12.3019767 20.6522111,11.9767796 C20.5544294,11.6511455 20.2257163,11.4701891 19.9132308,11.5729059 C18.1119663,12.1708488 14.6683847,14.008824 14.5227523,14.0870636 C14.2327358,14.2413574 14.1170621,14.6141975 14.2643588,14.9188512" id="Fill-16"></path>
                            <path d="M8.44518015,8.79614279 C4.80811546,7.90010256 0.675068499,9.04091476 0.501141827,9.09074333 C0.187408069,9.17903608 0.000582529523,9.51778299 0.0850493104,9.84866224 C0.155785038,10.125342 0.393373865,10.3076097 0.653015595,10.3076097 C0.704194975,10.3076097 0.755374354,10.299742 0.806553734,10.285755 C0.84566643,10.2739535 4.82517526,9.17466515 8.17638438,10.0003334 C8.49178251,10.078136 8.81009329,9.87182816 8.88498994,9.53920054 C8.95905441,9.20657292 8.76224265,8.87394531 8.44518015,8.79614279" id="Fill-18"></path>
                            <path d="M8.44518015,16.2205136 C4.80811546,15.3244733 0.675068499,16.4661597 0.501141827,16.5151141 C0.187408069,16.6038439 0.000582529523,16.9430279 0.0850493104,17.273033 C0.155785038,17.5497127 0.393373865,17.7324175 0.653015595,17.7324175 C0.704194975,17.7324175 0.755374354,17.724987 0.806553734,17.711 C0.84566643,17.6987614 4.82517526,16.599473 8.17638438,17.4255784 C8.49178251,17.5025067 8.81009329,17.296636 8.88498994,16.9635713 C8.95905441,16.6313808 8.76224265,16.2987532 8.44518015,16.2205136" id="Fill-20"></path>
                            <path d="M8.44518015,12.5084156 C4.80811546,11.6119383 0.675068499,12.7536247 0.501141827,12.8030161 C0.187408069,12.8913089 0.000582529523,13.2304929 0.0850493104,13.560935 C0.155785038,13.8371777 0.393373865,14.0198825 0.653015595,14.0198825 C0.704194975,14.0198825 0.755374354,14.0124519 0.806553734,13.9984649 C0.84566643,13.9866634 4.82517526,12.886938 8.17638438,13.7130433 C8.49178251,13.7904088 8.81009329,13.5845381 8.88498994,13.2514733 C8.95905441,12.9192828 8.76224265,12.5866552 8.44518015,12.5084156" id="Fill-22"></path>
                        </g>
                    </g>
                    <circle id="Oval-Copy" stroke="#D1C2A1" stroke-width="2" cx="44.5" cy="44.5" r="44.5"></circle>
                </g>
            </g>
        </g>
    </g>
</svg>