<?xml version="1.0" encoding="UTF-8"?>
<svg width="91px" height="91px" viewBox="0 0 91 91" version="1.1" xmlns="http://www.w3.org/2000/svg" xmlns:xlink="http://www.w3.org/1999/xlink">
    <!-- Generator: Sketch 51.3 (57544) - http://www.bohemiancoding.com/sketch -->
    <title>Group 8</title>
    <desc>Created with Sketch.</desc>
    <defs>
        <polygon id="path-1" points="2.95231038e-05 37.7945946 28.9535588 37.7945946 28.9535588 2.21452703e-05 2.95231038e-05 2.21452703e-05"></polygon>
    </defs>
    <g id="Welcome" stroke="none" stroke-width="1" fill="none" fill-rule="evenodd">
        <g id="accounts-copy-2" transform="translate(-783.000000, -921.000000)">
            <g id="Group-2" transform="translate(43.000000, 922.000000)">
                <g id="Group-8" transform="translate(741.000000, 0.000000)">
                    <g id="Page-1" transform="translate(30.000000, 26.000000)">
                        <g id="Group-3">
                            <mask id="mask-2" fill="white">
                                <use xlink:href="#path-1"></use>
                            </mask>
                            <g id="Clip-2"></g>
                            <path d="M27.770199,29.6675978 L22.6816707,29.6675978 C21.6593594,29.6675978 20.8276197,30.4993742 20.8276197,31.5218213 L20.8276197,36.6110997 L1.85400663,36.6110997 C1.48422976,36.6110997 1.18338933,36.3101455 1.18338933,35.9403933 L1.18338933,1.85424562 C1.18338933,1.48441961 1.48422976,1.18353921 1.85400663,1.18353921 L27.0996555,1.18353921 C27.4694324,1.18353921 27.770199,1.48441961 27.770199,1.85424562 L27.770199,29.6675978 Z M22.0110534,35.7742299 L22.0110534,31.5218213 C22.0110534,31.1519215 22.3118938,30.8511149 22.6816707,30.8511149 L26.9334404,30.8511149 L22.0110534,35.7742299 Z M27.0996555,2.21452703e-05 L1.85400663,2.21452703e-05 C0.831695356,2.21452703e-05 2.95231038e-05,0.831798497 2.95231038e-05,1.85424562 L2.95231038e-05,35.9403933 C2.95231038e-05,36.9627666 0.831695356,37.7946167 1.85400663,37.7946167 L21.4193365,37.7946167 C21.5762518,37.7946167 21.7268197,37.7322409 21.8377527,37.6212193 L28.780332,30.6777912 C28.8912651,30.5668434 28.9535588,30.4163294 28.9535588,30.2593933 L28.9535588,1.85424562 C28.9535588,0.831798497 28.1219668,2.21452703e-05 27.0996555,2.21452703e-05 Z" id="Fill-1" fill="#555555" mask="url(#mask-2)"></path>
                        </g>
                        <path d="M5.56963869,6.26312472 L7.43039684,6.26312472 L7.43039684,12.3683982 C7.43039684,12.7171697 7.68540909,13 8.00003553,13 C8.31459091,13 8.56967422,12.7171697 8.56967422,12.3683982 L8.56967422,6.26312472 L10.4303613,6.26312472 C10.7449877,6.26312472 11,5.98037323 11,5.63152297 C11,5.28275149 10.7449877,5 10.4303613,5 L5.56963869,5 C5.25508331,5 5,5.28275149 5,5.63152297 C5,5.98037323 5.25508331,6.26312472 5.56963869,6.26312472" id="Fill-4" fill="#555555"></path>
                        <path d="M13.8080639,6.2930998 C13.8128243,6.27537423 13.8278159,6.26308451 13.8444417,6.26308451 L14.1555714,6.26308451 C14.1721972,6.26308451 14.1871178,6.27537423 14.1918782,6.2930998 L15.3001223,10.3892814 L12.6998197,10.3892814 L13.8080639,6.2930998 Z M11.406063,12.9731175 C11.7074588,13.0735624 12.024983,12.8837807 12.1153591,12.5496734 L12.3580673,11.6523659 L15.6419458,11.6523659 L15.884725,12.5495947 C15.9587595,12.8232774 16.1851261,12.9999028 16.4301079,12.9999028 C16.4842483,12.9999028 16.5393834,12.991237 16.5939501,12.9731175 C16.8952749,12.872909 17.0662932,12.5208399 16.975775,12.1867326 L15.2829992,5.93015897 C15.1325144,5.37381251 14.679355,5 14.1555714,5 L13.8444417,5 C13.3205871,5 12.8674987,5.37381251 12.7170139,5.93015897 L11.0241671,12.1867326 C10.933791,12.5208399 11.1047382,12.872909 11.406063,12.9731175 Z" id="Fill-6" fill="#555555"></path>
                        <path d="M22.8854074,12.0062396 L20.7735723,9.00006325 L22.8854074,5.99388689 C23.0860602,5.70814336 23.0163298,5.31431046 22.7296604,5.11428211 C22.4429119,4.91425376 22.0476938,4.983661 21.846962,5.26948331 L20.0000549,7.89876498 L18.1530688,5.26948331 C17.952416,4.983661 17.5570398,4.91417498 17.2704494,5.11428211 C16.9836218,5.31431046 16.9138914,5.70814336 17.1146233,5.99388689 L19.2264585,9.00006325 L17.1146233,12.0062396 C16.9139705,12.2919831 16.9837009,12.685816 17.2704494,12.8858444 C17.3809745,12.9630511 17.5077067,13 17.6332531,13 C17.8330362,13 18.0297361,12.9060915 18.1529897,12.7305644 L19.9998968,10.1012827 L21.8468829,12.7305644 C21.9702156,12.9060127 22.1668364,13 22.3666195,13 C22.4920868,13 22.6189772,12.9629723 22.7294232,12.8858444 C23.0163298,12.685816 23.0861393,12.2919831 22.8854074,12.0062396" id="Fill-8" fill="#555555"></path>
                        <path d="M3.7258269,18 L5.2741731,18 C5.67506639,18 6,17.7761492 6,17.4999688 C6,17.2238508 5.67506639,17 5.2741731,17 L3.7258269,17 C3.32502414,17 3,17.2238508 3,17.4999688 C3,17.7761492 3.32502414,18 3.7258269,18" id="Fill-10" fill="#555555"></path>
                        <path d="M3.7258269,19 L5.2741731,19 C5.67506639,19 6,18.7761492 6,18.4999688 C6,18.2238508 5.67506639,18 5.2741731,18 L3.7258269,18 C3.32502414,18 3,18.2238508 3,18.4999688 C3,18.7761492 3.32502414,19 3.7258269,19" id="Fill-12" fill="#555555"></path>
                        <path d="M3.7258269,21 L5.2741731,21 C5.67506639,21 6,20.7761008 6,20.5 C6,20.2238992 5.67506639,20 5.2741731,20 L3.7258269,20 C3.32502414,20 3,20.2238992 3,20.5 C3,20.7761008 3.32502414,21 3.7258269,21" id="Fill-14" fill="#555555"></path>
                        <path d="M25.2741731,17 L23.7257364,17 C23.3250241,17 23,17.2238508 23,17.5000312 C23,17.7761492 23.3250241,18 23.7257364,18 L25.2741731,18 C25.6750664,18 26,17.7761492 26,17.5000312 C26,17.2238508 25.6750664,17 25.2741731,17" id="Fill-16" fill="#555555"></path>
                        <path d="M25.2741731,18 L23.7257364,18 C23.3250241,18 23,18.2238508 23,18.5000312 C23,18.7761492 23.3250241,19 23.7257364,19 L25.2741731,19 C25.6750664,19 26,18.7761492 26,18.5000312 C26,18.2238508 25.6750664,18 25.2741731,18" id="Fill-18" fill="#555555"></path>
                        <path d="M25.2741731,20 L23.7257364,20 C23.3250241,20 23,20.2238992 23,20.5000624 C23,20.7761008 23.3250241,21 23.7257364,21 L25.2741731,21 C25.6750664,21 26,20.7761008 26,20.5000624 C26,20.2238992 25.6750664,20 25.2741731,20" id="Fill-20" fill="#555555"></path>
                        <path d="M16.3918734,17 L8.60812656,17 C8.27224226,17 8,17.2238508 8,17.5000312 C8,17.7761492 8.27224226,18 8.60812656,18 L16.3918734,18 C16.7276819,18 17,17.7761492 17,17.5000312 C17,17.2238508 16.7276819,17 16.3918734,17" id="Fill-22" fill="#555555"></path>
                        <path d="M8.56963869,19 L13.4304324,19 C13.7449877,19 14,18.7761492 14,18.4999688 C14,18.2238508 13.7449877,18 13.4304324,18 L8.56963869,18 C8.25508331,18 8,18.2238508 8,18.4999688 C8,18.7761492 8.25508331,19 8.56963869,19" id="Fill-24" fill="#555555"></path>
                        <path d="M17,20.5000312 C17,20.2238853 16.7276796,20 16.3918683,20 L8.60805583,20 C8.27224456,20 8,20.2238853 8,20.5000312 C8,20.7761147 8.27224456,21 8.60805583,21 L16.3918683,21 C16.7276796,21 17,20.7761147 17,20.5000312" id="Fill-26" fill="#555555"></path>
                        <path d="M6.80949199,30.3242813 C6.80949199,30.5984222 6.53380556,30.894106 6.09521688,31.040886 L6.09521688,29.3989987 C6.68861466,29.6961238 6.80949199,29.9555488 6.80949199,30.3242813 Z M4.90478312,27.6010013 C4.31131109,27.3038762 4.19050801,27.0444512 4.19050801,26.6756429 C4.19050801,26.4015019 4.46619444,26.105894 4.90478312,25.9590382 L4.90478312,27.6010013 Z M6.80949199,26.6756429 C6.80949199,27.0114541 7.07597155,27.2837746 7.40474599,27.2837746 C7.73344619,27.2837746 8,27.0114541 8,26.6756429 C8,25.7059091 7.20048707,24.9159524 6.09521688,24.7046196 L6.09521688,24.6081317 C6.09521688,24.2722446 5.82873732,24 5.49996288,24 C5.17126268,24 4.90478312,24.2722446 4.90478312,24.6081317 L4.90478312,24.7046196 C3.79951293,24.9159524 3,25.7059091 3,26.6756429 C3,28.0306455 4.05916158,28.600091 4.90478312,28.9277858 L4.90478312,31.0409618 C4.46619444,30.8941819 4.19050801,30.5984222 4.19050801,30.3243571 C4.19050801,29.9885459 3.9239542,29.7162254 3.59525401,29.7162254 C3.26655381,29.7162254 3,29.9885459 3,30.3243571 C3,31.2940909 3.79951293,32.0840476 4.90478312,32.2953804 L4.90478312,32.3919442 C4.90478312,32.7278313 5.17126268,33 5.49996288,33 C5.82873732,33 6.09521688,32.7278313 6.09521688,32.3919442 L6.09521688,32.2953804 C7.20048707,32.0840476 8,31.2940909 8,30.3243571 C8,28.9694303 6.94076417,28.3999848 6.09521688,28.0722901 L6.09521688,25.9590382 C6.53380556,26.105894 6.80949199,26.4015019 6.80949199,26.6756429 Z" id="Fill-28" fill="#555555"></path>
                        <path d="M11.6338217,26 C11.2838244,26 11,26.2238992 11,26.5000624 C11,26.7761008 11.2838244,27 11.6338217,27 L16.3661783,27 C16.7162547,27 17,26.7761008 17,26.5000624 C17,26.2238992 16.7162547,26 16.3661783,26 L11.6338217,26 Z" id="Fill-30" fill="#555555"></path>
                        <path d="M13.5212683,31 L11.4787317,31 C11.2143753,31 11,31.2238992 11,31.5000624 C11,31.7761008 11.2143753,32 11.4787317,32 L13.5212683,32 C13.7856247,32 14,31.7761008 14,31.5000624 C14,31.2238992 13.7856247,31 13.5212683,31" id="Fill-32" fill="#555555"></path>
                        <path d="M17.2741731,31 L15.7257364,31 C15.3249336,31 15,31.2238992 15,31.5000624 C15,31.7761008 15.3249336,32 15.7257364,32 L17.2741731,32 C17.6749759,32 18,31.7761008 18,31.5000624 C18,31.2238992 17.6749759,31 17.2741731,31" id="Fill-34" fill="#555555"></path>
                        <path d="M19.432755,29 L11.5671743,29 C11.2539407,29 11,29.2238508 11,29.5000312 C11,29.7761492 11.2539407,30 11.5671743,30 L19.432755,30 C19.7459886,30 20,29.7761492 20,29.5000312 C20,29.2238508 19.7459886,29 19.432755,29" id="Fill-36" fill="#555555"></path>
                        <path d="M15.5,18 C15.7761632,18 16,18.2238508 16,18.5000312 C16,18.7761492 15.7761632,19 15.5,19 C15.2238368,19 15,18.7761492 15,18.5000312 C15,18.2238508 15.2238368,18 15.5,18" id="Fill-38" fill="#555555"></path>
                        <path d="M17.5,18 C17.7761632,18 18,18.2238508 18,18.5000312 C18,18.7761492 17.7761632,19 17.5,19 C17.2238368,19 17,18.7761492 17,18.5000312 C17,18.2238508 17.2238368,18 17.5,18" id="Fill-40" fill="#555555"></path>
                        <path d="M20.5,18 C20.7761632,18 21,18.2238508 21,18.5000312 C21,18.7761492 20.7761632,19 20.5,19 C20.2238368,19 20,18.7761492 20,18.5000312 C20,18.2238508 20.2238368,18 20.5,18" id="Fill-42" fill="#555555"></path>
                        <path d="M17.5,17 C17.7761632,17 18,17.2238508 18,17.5000312 C18,17.7761492 17.7761632,18 17.5,18 C17.2238368,18 17,17.7761492 17,17.5000312 C17,17.2238508 17.2238368,17 17.5,17" id="Fill-44" fill="#555555"></path>
                        <path d="M20.5,17 C20.7761632,17 21,17.2238508 21,17.5000312 C21,17.7761492 20.7761632,18 20.5,18 C20.2238368,18 20,17.7761492 20,17.5000312 C20,17.2238508 20.2238368,17 20.5,17" id="Fill-46" fill="#555555"></path>
                        <path d="M17.5,20 C17.7761632,20 18,20.2238992 18,20.5000624 C18,20.7761008 17.7761632,21 17.5,21 C17.2238368,21 17,20.7761008 17,20.5000624 C17,20.2238992 17.2238368,20 17.5,20" id="Fill-48" fill="#555555"></path>
                        <path d="M20.5,20 C20.7761632,20 21,20.2238992 21,20.5000624 C21,20.7761008 20.7761632,21 20.5,21 C20.2238368,21 20,20.7761008 20,20.5000624 C20,20.2238992 20.2238368,20 20.5,20" id="Fill-50" fill="#555555"></path>
                    </g>
                    <circle id="Oval-Copy-2" stroke="#D1C2A1" stroke-width="2" cx="44.5" cy="44.5" r="44.5"></circle>
                </g>
            </g>
        </g>
    </g>
</svg>