<?xml version="1.0" encoding="UTF-8"?>
<svg width="91px" height="91px" viewBox="0 0 91 91" version="1.1" xmlns="http://www.w3.org/2000/svg" xmlns:xlink="http://www.w3.org/1999/xlink">
    <!-- Generator: Sketch 51.3 (57544) - http://www.bohemiancoding.com/sketch -->
    <title>Group 10</title>
    <desc>Created with Sketch.</desc>
    <defs></defs>
    <g id="Welcome" stroke="none" stroke-width="1" fill="none" fill-rule="evenodd">
        <g id="accounts-copy-2" transform="translate(-1135.000000, -921.000000)">
            <g id="Group-10" transform="translate(1135.000000, 921.000000)">
                <path d="M45.5,2 C21.5,2 2,21.5 2,45.5 C2,69.5 21.5,89 45.5,89 C69.5,89 89,69.5 89,45.5 C89,21.5 69.5,2 45.5,2 M45.5,91 C20.4,91 0,70.6 0,45.5 C0,20.4 20.4,0 45.5,0 C70.6,0 91,20.4 91,45.5 C91,70.6 70.6,91 45.5,91" id="Fill-1" fill="#D1C2A1"></path>
                <g id="Group-9" transform="translate(27.000000, 38.000000)" fill="#555555">
                    <path d="M11.5,0.8999 C11.7,0.7999 11.9,0.6999 12.2,0.6999 C12.6,0.6999 12.9,0.7999 13.2,1.0999 C13.5,1.2999 13.6,1.5999 13.6,1.9999 C13.6,2.1999 13.6,2.3999 13.5,2.4999 L8.6,12.7999 C8.5,13.0999 8.3,13.2999 8,13.3999 C7.7,13.5999 7.4,13.5999 7.1,13.5999 C6.8,13.5999 6.5,13.4999 6.2,13.3999 C5.9,13.2999 5.7,12.9999 5.6,12.7999 L0.7,2.4999 C0.6,2.2999 0.6,2.1999 0.6,1.9999 C0.6,1.5999 0.7,1.2999 1.1,1.0999 C1.4,0.8999 1.7,0.6999 2.1,0.6999 C2.4,0.6999 2.6,0.7999 2.8,0.8999 C3,0.9999 3.2,1.1999 3.3,1.4999 L7.2,9.8999 L11.1,1.4999 C11.1,1.1999 11.3,0.9999 11.5,0.8999" id="Fill-3"></path>
                    <path d="M17.1001,8.5996 L21.3001,8.5996 L19.2001,3.8996 L17.1001,8.5996 Z M25.7001,12.4006 C25.7001,12.7006 25.6001,12.9996 25.3001,13.2996 C25.0001,13.4996 24.7001,13.7006 24.4001,13.7006 C24.2001,13.7006 24.0001,13.5996 23.8001,13.4996 C23.6001,13.4006 23.4001,13.2006 23.3001,12.9006 L22.3001,10.7996 L16.2001,10.7996 L15.2001,12.9006 C15.1001,13.2006 14.9001,13.2996 14.7001,13.4996 C14.5001,13.5996 14.3001,13.7006 14.0001,13.7006 C13.7001,13.7006 13.3001,13.5996 13.1001,13.2996 C12.8001,13.0996 12.7001,12.7996 12.7001,12.4006 C12.7001,12.2006 12.7001,11.9996 12.8001,11.7996 L17.7001,1.5996 C17.8001,1.2996 18.0001,1.0996 18.3001,0.8996 C18.6001,0.7996 18.8001,0.7006 19.1001,0.7006 C19.4001,0.7006 19.7001,0.7996 20.0001,0.8996 C20.3001,1.0996 20.5001,1.2996 20.6001,1.4996 L25.5001,11.7006 C25.6001,11.9996 25.7001,12.2006 25.7001,12.4006 Z" id="Fill-5"></path>
                    <path d="M28.9004,13.2002 C28.5994,12.9002 28.5004,12.5992 28.5004,12.2002 L28.5004,3.1002 L25.5994,3.1002 C24.7004,3.1002 24.2994,2.7002 24.2994,1.9002 C24.2994,1.1002 24.7004,0.8002 25.5994,0.8002 L34.2004,0.8002 C35.0994,0.8002 35.5004,1.2002 35.5004,1.9002 C35.5004,2.7002 35.0994,3.1002 34.2004,3.1002 L31.2994,3.1002 L31.2994,12.2002 C31.2994,12.5992 31.2004,13.0002 30.9004,13.2002 C30.5994,13.4002 30.2994,13.5992 29.9004,13.5992 C29.5004,13.5992 29.2004,13.5002 28.9004,13.2002" id="Fill-7"></path>
                </g>
            </g>
        </g>
    </g>
</svg>